  0
SECTION
  2
HEADER
  9
$ACADVER
  1
AC1027
  9
$ACADMAINTVER
 70
     8
  9
$DWGCODEPAGE
  3
ANSI_1252
  9
$REQUIREDVERSIONS
160
                 0
  9
$INSBASE
 10
0.0
 20
0.0
 30
0.0
  9
$EXTMIN
 10
1.000000000000000E+20
 20
1.000000000000000E+20
 30
1.000000000000000E+20
  9
$EXTMAX
 10
-1.000000000000000E+20
 20
-1.000000000000000E+20
 30
-1.000000000000000E+20
  9
$LIMMIN
 10
0.0
 20
0.0
  9
$LIMMAX
 10
12.0
 20
9.0
  9
$ORTHOMODE
 70
     0
  9
$REGENMODE
 70
     1
  9
$FILLMODE
 70
     1
  9
$QTEXTMODE
 70
     0
  9
$MIRRTEXT
 70
     1
  9
$LTSCALE
 40
1.0
  9
$ATTMODE
 70
     1
  9
$TEXTSIZE
 40
0.2
  9
$TRACEWID
 40
0.05
  9
$TEXTSTYLE
  7
Standard
  9
$CLAYER
  8
0
  9
$CELTYPE
  6
ByLayer
  9
$CECOLOR
 62
   256
  9
$CELTSCALE
 40
1.0
  9
$DISPSILH
 70
     0
  9
$DIMSCALE
 40
1.0
  9
$DIMASZ
 40
2.5
  9
$DIMEXO
 40
0.625
  9
$DIMDLI
 40
0.38
  9
$DIMRND
 40
0.0
  9
$DIMDLE
 40
0.0
  9
$DIMEXE
 40
1.25
  9
$DIMTP
 40
0.0
  9
$DIMTM
 40
0.0
  9
$DIMTXT
 40
2.5
  9
$DIMCEN
 40
0.09
  9
$DIMTSZ
 40
0.0
  9
$DIMTOL
 70
     0
  9
$DIMLIM
 70
     0
  9
$DIMTIH
 70
     1
  9
$DIMTOH
 70
     1
  9
$DIMSE1
 70
     0
  9
$DIMSE2
 70
     0
  9
$DIMTAD
 70
     0
  9
$DIMZIN
 70
     8
  9
$DIMBLK
  1

  9
$DIMASO
 70
     1
  9
$DIMSHO
 70
     1
  9
$DIMPOST
  1

  9
$DIMAPOST
  1

  9
$DIMALT
 70
     0
  9
$DIMALTD
 70
     2
  9
$DIMALTF
 40
25.4
  9
$DIMLFAC
 40
1.0
  9
$DIMTOFL
 70
     0
  9
$DIMTVP
 40
0.0
  9
$DIMTIX
 70
     0
  9
$DIMSOXD
 70
     0
  9
$DIMSAH
 70
     0
  9
$DIMBLK1
  1

  9
$DIMBLK2
  1

  9
$DIMSTYLE
  2
Standard
  9
$DIMCLRD
 70
     0
  9
$DIMCLRE
 70
     0
  9
$DIMCLRT
 70
     0
  9
$DIMTFAC
 40
1.0
  9
$DIMGAP
 40
0.625
  9
$DIMJUST
 70
     0
  9
$DIMSD1
 70
     0
  9
$DIMSD2
 70
     0
  9
$DIMTOLJ
 70
     1
  9
$DIMTZIN
 70
     0
  9
$DIMALTZ
 70
     0
  9
$DIMALTTZ
 70
     0
  9
$DIMUPT
 70
     0
  9
$DIMDEC
 70
     4
  9
$DIMTDEC
 70
     4
  9
$DIMALTU
 70
     2
  9
$DIMALTTD
 70
     2
  9
$DIMTXSTY
  7
Standard
  9
$DIMAUNIT
 70
     0
  9
$DIMADEC
 70
     0
  9
$DIMALTRND
 40
0.0
  9
$DIMAZIN
 70
     2
  9
$DIMDSEP
 70
    46
  9
$DIMATFIT
 70
     3
  9
$DIMFRAC
 70
     0
  9
$DIMLDRBLK
  1

  9
$DIMLUNIT
 70
     2
  9
$DIMLWD
 70
    -2
  9
$DIMLWE
 70
    -2
  9
$DIMTMOVE
 70
     0
  9
$DIMFXL
 40
1.0
  9
$DIMFXLON
 70
     0
  9
$DIMJOGANG
 40
0.7853981633974483
  9
$DIMTFILL
 70
     0
  9
$DIMTFILLCLR
 70
     0
  9
$DIMARCSYM
 70
     0
  9
$DIMLTYPE
  6

  9
$DIMLTEX1
  6

  9
$DIMLTEX2
  6

  9
$DIMTXTDIRECTION
 70
     0
  9
$LUNITS
 70
     2
  9
$LUPREC
 70
     4
  9
$SKETCHINC
 40
0.1
  9
$FILLETRAD
 40
0.5
  9
$AUNITS
 70
     0
  9
$AUPREC
 70
     0
  9
$MENU
  1
.
  9
$ELEVATION
 40
0.0
  9
$PELEVATION
 40
0.0
  9
$THICKNESS
 40
0.0
  9
$LIMCHECK
 70
     0
  9
$CHAMFERA
 40
0.0
  9
$CHAMFERB
 40
0.0
  9
$CHAMFERC
 40
0.0
  9
$CHAMFERD
 40
0.0
  9
$SKPOLY
 70
     0
  9
$TDCREATE
 40
2457882.609603032
  9
$TDUCREATE
 40
2457882.776269699
  9
$TDUPDATE
 40
2457882.609603276
  9
$TDUUPDATE
 40
2457882.776269942
  9
$TDINDWG
 40
0.0000000116
  9
$TDUSRTIMER
 40
0.0000000116
  9
$USRTIMER
 70
     1
  9
$ANGBASE
 50
0.0
  9
$ANGDIR
 70
     0
  9
$PDMODE
 70
     0
  9
$PDSIZE
 40
0.0
  9
$PLINEWID
 40
0.0
  9
$SPLFRAME
 70
     0
  9
$SPLINETYPE
 70
     6
  9
$SPLINESEGS
 70
     8
  9
$HANDSEED
  5
4E5
  9
$SURFTAB1
 70
     6
  9
$SURFTAB2
 70
     6
  9
$SURFTYPE
 70
     6
  9
$SURFU
 70
     6
  9
$SURFV
 70
     6
  9
$UCSBASE
  2

  9
$UCSNAME
  2

  9
$UCSORG
 10
0.0
 20
0.0
 30
0.0
  9
$UCSXDIR
 10
1.0
 20
0.0
 30
0.0
  9
$UCSYDIR
 10
0.0
 20
1.0
 30
0.0
  9
$UCSORTHOREF
  2

  9
$UCSORTHOVIEW
 70
     0
  9
$UCSORGTOP
 10
0.0
 20
0.0
 30
0.0
  9
$UCSORGBOTTOM
 10
0.0
 20
0.0
 30
0.0
  9
$UCSORGLEFT
 10
0.0
 20
0.0
 30
0.0
  9
$UCSORGRIGHT
 10
0.0
 20
0.0
 30
0.0
  9
$UCSORGFRONT
 10
0.0
 20
0.0
 30
0.0
  9
$UCSORGBACK
 10
0.0
 20
0.0
 30
0.0
  9
$PUCSBASE
  2

  9
$PUCSNAME
  2

  9
$PUCSORG
 10
0.0
 20
0.0
 30
0.0
  9
$PUCSXDIR
 10
1.0
 20
0.0
 30
0.0
  9
$PUCSYDIR
 10
0.0
 20
1.0
 30
0.0
  9
$PUCSORTHOREF
  2

  9
$PUCSORTHOVIEW
 70
     0
  9
$PUCSORGTOP
 10
0.0
 20
0.0
 30
0.0
  9
$PUCSORGBOTTOM
 10
0.0
 20
0.0
 30
0.0
  9
$PUCSORGLEFT
 10
0.0
 20
0.0
 30
0.0
  9
$PUCSORGRIGHT
 10
0.0
 20
0.0
 30
0.0
  9
$PUCSORGFRONT
 10
0.0
 20
0.0
 30
0.0
  9
$PUCSORGBACK
 10
0.0
 20
0.0
 30
0.0
  9
$USERI1
 70
     0
  9
$USERI2
 70
     0
  9
$USERI3
 70
     0
  9
$USERI4
 70
     0
  9
$USERI5
 70
     0
  9
$USERR1
 40
0.0
  9
$USERR2
 40
0.0
  9
$USERR3
 40
0.0
  9
$USERR4
 40
0.0
  9
$USERR5
 40
0.0
  9
$WORLDVIEW
 70
     1
  9
$SHADEDGE
 70
     3
  9
$SHADEDIF
 70
    70
  9
$TILEMODE
 70
     1
  9
$MAXACTVP
 70
    32
  9
$PINSBASE
 10
0.0
 20
0.0
 30
0.0
  9
$PLIMCHECK
 70
     0
  9
$PEXTMIN
 10
0.0
 20
0.0
 30
0.0
  9
$PEXTMAX
 10
0.0
 20
0.0
 30
0.0
  9
$PLIMMIN
 10
-20.0
 20
-7.5
  9
$PLIMMAX
 10
277.0
 20
202.5
  9
$UNITMODE
 70
     0
  9
$VISRETAIN
 70
     1
  9
$PLINEGEN
 70
     0
  9
$PSLTSCALE
 70
     1
  9
$TREEDEPTH
 70
  3020
  9
$CMLSTYLE
  2
Standard
  9
$CMLJUST
 70
     0
  9
$CMLSCALE
 40
1.0
  9
$PROXYGRAPHICS
 70
     1
  9
$MEASUREMENT
 70
     1
  9
$CELWEIGHT
370
    -1
  9
$ENDCAPS
280
     0
  9
$JOINSTYLE
280
     0
  9
$LWDISPLAY
290
     0
  9
$INSUNITS
 70
     4
  9
$HYPERLINKBASE
  1

  9
$STYLESHEET
  1

  9
$XEDIT
290
     1
  9
$CEPSNTYPE
380
     0
  9
$PSTYLEMODE
290
     1
  9
$FINGERPRINTGUID
  2
{74669FBF-4196-4227-B18B-B6DE7B1E189A}
  9
$VERSIONGUID
  2
{FAEB1C32-E019-11D5-929B-00C0DF256EC4}
  9
$EXTNAMES
290
     1
  9
$PSVPSCALE
 40
0.0
  9
$OLESTARTUP
290
     0
  9
$SORTENTS
280
   127
  9
$INDEXCTL
280
     0
  9
$HIDETEXT
280
     1
  9
$XCLIPFRAME
280
     2
  9
$HALOGAP
280
     0
  9
$OBSCOLOR
 70
   257
  9
$OBSLTYPE
280
     0
  9
$INTERSECTIONDISPLAY
280
     0
  9
$INTERSECTIONCOLOR
 70
   257
  9
$DIMASSOC
280
     2
  9
$PROJECTNAME
  1

  9
$CAMERADISPLAY
290
     0
  9
$LENSLENGTH
 40
50.0
  9
$CAMERAHEIGHT
 40
0.0
  9
$STEPSPERSEC
 40
2.0
  9
$STEPSIZE
 40
6.0
  9
$3DDWFPREC
 40
2.0
  9
$PSOLWIDTH
 40
0.25
  9
$PSOLHEIGHT
 40
4.0
  9
$LOFTANG1
 40
1.570796326794897
  9
$LOFTANG2
 40
1.570796326794897
  9
$LOFTMAG1
 40
0.0
  9
$LOFTMAG2
 40
0.0
  9
$LOFTPARAM
 70
     7
  9
$LOFTNORMALS
280
     1
  9
$LATITUDE
 40
37.795
  9
$LONGITUDE
 40
-122.394
  9
$NORTHDIRECTION
 40
0.0
  9
$TIMEZONE
 70
 -8000
  9
$LIGHTGLYPHDISPLAY
280
     1
  9
$TILEMODELIGHTSYNCH
280
     1
  9
$CMATERIAL
347
43F
  9
$SOLIDHIST
280
     0
  9
$SHOWHIST
280
     1
  9
$DWFFRAME
280
     2
  9
$DGNFRAME
280
     2
  9
$REALWORLDSCALE
290
     1
  9
$INTERFERECOLOR
 62
   256
  9
$CSHADOW
280
     0
  9
$SHADOWPLANELOCATION
 40
0.0
  0
ENDSEC
  0
SECTION
  2
CLASSES
  0
CLASS
  1
ACDBDICTIONARYWDFLT
  2
AcDbDictionaryWithDefault
  3
ObjectDBX Classes
 90
        0
 91
        4
280
     0
281
     0
  0
CLASS
  1
VISUALSTYLE
  2
AcDbVisualStyle
  3
ObjectDBX Classes
 90
     4095
 91
        4
280
     0
281
     0
  0
CLASS
  1
MATERIAL
  2
AcDbMaterial
  3
ObjectDBX Classes
 90
     1153
 91
        4
280
     0
281
     0
  0
CLASS
  1
SCALE
  2
AcDbScale
  3
ObjectDBX Classes
 90
     1153
 91
        4
280
     0
281
     0
  0
CLASS
  1
TABLESTYLE
  2
AcDbTableStyle
  3
ObjectDBX Classes
 90
     4095
 91
        4
280
     0
281
     0
  0
CLASS
  1
MLEADERSTYLE
  2
AcDbMLeaderStyle
  3
ACDB_MLEADERSTYLE_CLASS
 90
     4095
 91
        4
280
     0
281
     0
  0
CLASS
  1
SUN
  2
AcDbSun
  3
SCENEOE
 90
     1153
 91
        4
280
     0
281
     0
  0
CLASS
  1
DICTIONARYVAR
  2
AcDbDictionaryVar
  3
ObjectDBX Classes
 90
        0
 91
        4
280
     0
281
     0
  0
CLASS
  1
CELLSTYLEMAP
  2
AcDbCellStyleMap
  3
ObjectDBX Classes
 90
     1152
 91
        4
280
     0
281
     0
  0
ENDSEC
  0
SECTION
  2
TABLES
  0
TABLE
  2
VPORT
  5
404
330
0
100
AcDbSymbolTable
 70
     1
  0
VPORT
  5
424
330
404
100
AcDbSymbolTableRecord
100
AcDbViewportTableRecord
  2
*Active
 70
     0
 10
0.0
 20
0.0
 11
1.0
 21
1.0
 12
-4.70336884122851
 22
1.042333623749144
 13
0.0
 23
0.0
 14
0.5
 24
0.5
 15
0.5
 25
0.5
 16
0.0
 26
0.0
 36
1.0
 17
0.0
 27
0.0
 37
0.0
 40
91.78832572702619
 41
1.872061235647895
 42
50.0
 43
0.0
 44
0.0
 50
0.0
 51
0.0
 71
     0
 72
   100
 73
     1
 74
     3
 75
     0
 76
     0
 77
     0
 78
     0
281
     0
 65
     1
110
0.0
120
0.0
130
0.0
111
1.0
121
0.0
131
0.0
112
0.0
122
1.0
132
0.0
 79
     0
146
0.0
 60
     3
 61
     5
292
     1
282
     1
141
0.0
142
0.0
 63
   250
361
468
  0
ENDTAB
  0
TABLE
  2
LTYPE
  5
401
330
0
100
AcDbSymbolTable
 70
    48
  0
LTYPE
  5
40F
330
401
100
AcDbSymbolTableRecord
100
AcDbLinetypeTableRecord
  2
ByBlock
 70
     0
  3

 72
    65
 73
     0
 40
0.0
  0
LTYPE
  5
410
330
401
100
AcDbSymbolTableRecord
100
AcDbLinetypeTableRecord
  2
ByLayer
 70
     0
  3

 72
    65
 73
     0
 40
0.0
  0
LTYPE
  5
411
330
401
100
AcDbSymbolTableRecord
100
AcDbLinetypeTableRecord
  2
Continuous
 70
     0
  3
Solid line
 72
    65
 73
     0
 40
0.0
  0
LTYPE
  5
49D
330
401
100
AcDbSymbolTableRecord
100
AcDbLinetypeTableRecord
  2
PHANTOMX2
 70
     0
  3
Phantom (2x) ____________    ____    ____   _
 72
    65
 73
     6
 40
127.0
 49
63.5
 74
     0
 49
-12.7
 74
     0
 49
12.7
 74
     0
 49
-12.7
 74
     0
 49
12.7
 74
     0
 49
-12.7
 74
     0
  0
LTYPE
  5
49F
330
401
100
AcDbSymbolTableRecord
100
AcDbLinetypeTableRecord
  2
TRACKS
 70
     0
  3
Tracks -|-|-|-|-|-|-|-|-|-|-|-|-|-|-|-|-|-|-|-|-|-|-|-|-
 72
    65
 73
     2
 40
7.62
 49
3.81
 74
     2
 75
     0
340
49E
 46
6.35
 50
0.0
 44
0.0
 45
0.0
  9
TRACK1
 49
3.81
 74
     0
  0
LTYPE
  5
4A2
330
401
100
AcDbSymbolTableRecord
100
AcDbLinetypeTableRecord
  2
ZIGZAG
 70
     0
  3
Zig zag /\/\/\/\/\/\/\/\/\/\/\/\/\/\/\/\/\/\/\/\/\/\/\/
 72
    65
 73
     4
 40
20.32254
 49
0.00254
 74
     0
 49
-5.08
 74
     2
 75
     0
340
4A0
 46
5.08
 50
0.0
 44
-5.08
 45
0.0
  9
ZIG
 49
-10.16
 74
     2
 75
     0
340
4A1
 46
5.08
 50
180.0
 44
5.08
 45
0.0
  9
ZIG
 49
-5.08
 74
     0
  0
LTYPE
  5
4A3
330
401
100
AcDbSymbolTableRecord
100
AcDbLinetypeTableRecord
  2
HIDDENX2
 70
     0
  3
Hidden (2x) ____ ____ ____ ____ ____ ____ ____ 
 72
    65
 73
     2
 40
19.05
 49
12.7
 74
     0
 49
-6.35
 74
     0
  0
LTYPE
  5
4A5
330
401
100
AcDbSymbolTableRecord
100
AcDbLinetypeTableRecord
  2
HOT_WATER_SUPPLY
 70
     0
  3
Hot water supply ---- HW ---- HW ---- HW ----
 72
    65
 73
     3
 40
22.86
 49
12.7
 74
     0
 49
-5.08
 74
     2
 75
     0
340
4A4
 46
2.54
 50
0.0
 44
-2.54
 45
-1.27
  9
HW
 49
-5.08
 74
     0
  0
LTYPE
  5
4A6
330
401
100
AcDbSymbolTableRecord
100
AcDbLinetypeTableRecord
  2
PHANTOM
 70
     0
  3
Phantom ______  __  __  ______  __  __  ______ 
 72
    65
 73
     6
 40
63.50000000000001
 49
31.75
 74
     0
 49
-6.35
 74
     0
 49
6.35
 74
     0
 49
-6.35
 74
     0
 49
6.35
 74
     0
 49
-6.35
 74
     0
  0
LTYPE
  5
4A7
330
401
100
AcDbSymbolTableRecord
100
AcDbLinetypeTableRecord
  2
PHANTOM2
 70
     0
  3
Phantom (.5x) ___ _ _ ___ _ _ ___ _ _ ___ _ _
 72
    65
 73
     6
 40
31.75
 49
15.875
 74
     0
 49
-3.175
 74
     0
 49
3.175
 74
     0
 49
-3.175
 74
     0
 49
3.175
 74
     0
 49
-3.175
 74
     0
  0
LTYPE
  5
4A8
330
401
100
AcDbSymbolTableRecord
100
AcDbLinetypeTableRecord
  2
ACAD_ISO06W100
 70
     0
  3
ISO long-dash triple-dot ____ ... ____ ... ____
 72
    65
 73
     8
 40
36.0
 49
24.0
 74
     0
 49
-3.0
 74
     0
 49
0.0
 74
     0
 49
-3.0
 74
     0
 49
0.0
 74
     0
 49
-3.0
 74
     0
 49
0.0
 74
     0
 49
-3.0
 74
     0
  0
LTYPE
  5
4A9
330
401
100
AcDbSymbolTableRecord
100
AcDbLinetypeTableRecord
  2
ACAD_ISO07W100
 70
     0
  3
ISO dot . . . . . . . . . . . . . . . . . . . . 
 72
    65
 73
     2
 40
3.0
 49
0.0
 74
     0
 49
-3.0
 74
     0
  0
LTYPE
  5
4AA
330
401
100
AcDbSymbolTableRecord
100
AcDbLinetypeTableRecord
  2
ACAD_ISO08W100
 70
     0
  3
ISO long-dash short-dash ____ __ ____ __ ____ _
 72
    65
 73
     4
 40
36.0
 49
24.0
 74
     0
 49
-3.0
 74
     0
 49
6.0
 74
     0
 49
-3.0
 74
     0
  0
LTYPE
  5
4AB
330
401
100
AcDbSymbolTableRecord
100
AcDbLinetypeTableRecord
  2
ACAD_ISO09W100
 70
     0
  3
ISO long-dash double-short-dash ____ __ __ ____
 72
    65
 73
     6
 40
45.0
 49
24.0
 74
     0
 49
-3.0
 74
     0
 49
6.0
 74
     0
 49
-3.0
 74
     0
 49
6.0
 74
     0
 49
-3.0
 74
     0
  0
LTYPE
  5
4AC
330
401
100
AcDbSymbolTableRecord
100
AcDbLinetypeTableRecord
  2
ACAD_ISO02W100
 70
     0
  3
ISO dash __ __ __ __ __ __ __ __ __ __ __ __ __
 72
    65
 73
     2
 40
15.0
 49
12.0
 74
     0
 49
-3.0
 74
     0
  0
LTYPE
  5
4AD
330
401
100
AcDbSymbolTableRecord
100
AcDbLinetypeTableRecord
  2
ACAD_ISO03W100
 70
     0
  3
ISO dash space __    __    __    __    __    __
 72
    65
 73
     2
 40
30.0
 49
12.0
 74
     0
 49
-18.0
 74
     0
  0
LTYPE
  5
4AE
330
401
100
AcDbSymbolTableRecord
100
AcDbLinetypeTableRecord
  2
ACAD_ISO04W100
 70
     0
  3
ISO long-dash dot ____ . ____ . ____ . ____ . _
 72
    65
 73
     4
 40
30.0
 49
24.0
 74
     0
 49
-3.0
 74
     0
 49
0.0
 74
     0
 49
-3.0
 74
     0
  0
LTYPE
  5
4AF
330
401
100
AcDbSymbolTableRecord
100
AcDbLinetypeTableRecord
  2
ACAD_ISO05W100
 70
     0
  3
ISO long-dash double-dot ____ .. ____ .. ____ . 
 72
    65
 73
     6
 40
33.0
 49
24.0
 74
     0
 49
-3.0
 74
     0
 49
0.0
 74
     0
 49
-3.0
 74
     0
 49
0.0
 74
     0
 49
-3.0
 74
     0
  0
LTYPE
  5
4B0
330
401
100
AcDbSymbolTableRecord
100
AcDbLinetypeTableRecord
  2
CENTERX2
 70
     0
  3
Center (2x) ________  __  ________  __  _____
 72
    65
 73
     4
 40
101.6
 49
63.5
 74
     0
 49
-12.7
 74
     0
 49
12.7
 74
     0
 49
-12.7
 74
     0
  0
LTYPE
  5
4B1
330
401
100
AcDbSymbolTableRecord
100
AcDbLinetypeTableRecord
  2
DASHDOT
 70
     0
  3
Dash dot __ . __ . __ . __ . __ . __ . __ . __
 72
    65
 73
     4
 40
25.4
 49
12.7
 74
     0
 49
-6.35
 74
     0
 49
0.0
 74
     0
 49
-6.35
 74
     0
  0
LTYPE
  5
4B2
330
401
100
AcDbSymbolTableRecord
100
AcDbLinetypeTableRecord
  2
DASHDOT2
 70
     0
  3
Dash dot (.5x) _._._._._._._._._._._._._._._.
 72
    65
 73
     4
 40
12.7
 49
6.35
 74
     0
 49
-3.175
 74
     0
 49
0.0
 74
     0
 49
-3.175
 74
     0
  0
LTYPE
  5
4B3
330
401
100
AcDbSymbolTableRecord
100
AcDbLinetypeTableRecord
  2
DASHDOTX2
 70
     0
  3
Dash dot (2x) ____  .  ____  .  ____  .  ___
 72
    65
 73
     4
 40
50.8
 49
25.4
 74
     0
 49
-12.7
 74
     0
 49
0.0
 74
     0
 49
-12.7
 74
     0
  0
LTYPE
  5
4B4
330
401
100
AcDbSymbolTableRecord
100
AcDbLinetypeTableRecord
  2
BORDER2
 70
     0
  3
Border (.5x) __.__.__.__.__.__.__.__.__.__.__.
 72
    65
 73
     6
 40
22.225
 49
6.35
 74
     0
 49
-3.175
 74
     0
 49
6.35
 74
     0
 49
-3.175
 74
     0
 49
0.0
 74
     0
 49
-3.175
 74
     0
  0
LTYPE
  5
4B5
330
401
100
AcDbSymbolTableRecord
100
AcDbLinetypeTableRecord
  2
BORDERX2
 70
     0
  3
Border (2x) ____  ____  .  ____  ____  .  ___
 72
    65
 73
     6
 40
88.89999999999999
 49
25.4
 74
     0
 49
-12.7
 74
     0
 49
25.4
 74
     0
 49
-12.7
 74
     0
 49
0.0
 74
     0
 49
-12.7
 74
     0
  0
LTYPE
  5
4B6
330
401
100
AcDbSymbolTableRecord
100
AcDbLinetypeTableRecord
  2
CENTER
 70
     0
  3
Center ____ _ ____ _ ____ _ ____ _ ____ _ ____
 72
    65
 73
     4
 40
50.8
 49
31.75
 74
     0
 49
-6.35
 74
     0
 49
6.35
 74
     0
 49
-6.35
 74
     0
  0
LTYPE
  5
4B7
330
401
100
AcDbSymbolTableRecord
100
AcDbLinetypeTableRecord
  2
CENTER2
 70
     0
  3
Center (.5x) ___ _ ___ _ ___ _ ___ _ ___ _ ___
 72
    65
 73
     4
 40
28.575
 49
19.05
 74
     0
 49
-3.175
 74
     0
 49
3.175
 74
     0
 49
-3.175
 74
     0
  0
LTYPE
  5
4B8
330
401
100
AcDbSymbolTableRecord
100
AcDbLinetypeTableRecord
  2
ACAD_ISO14W100
 70
     0
  3
ISO dash triple-dot __ . . . __ . . . __ . . . _
 72
    65
 73
     8
 40
24.0
 49
12.0
 74
     0
 49
-3.0
 74
     0
 49
0.0
 74
     0
 49
-3.0
 74
     0
 49
0.0
 74
     0
 49
-3.0
 74
     0
 49
0.0
 74
     0
 49
-3.0
 74
     0
  0
LTYPE
  5
4B9
330
401
100
AcDbSymbolTableRecord
100
AcDbLinetypeTableRecord
  2
ACAD_ISO15W100
 70
     0
  3
ISO double-dash triple-dot __ __ . . . __ __ . .
 72
    65
 73
    10
 40
39.0
 49
12.0
 74
     0
 49
-3.0
 74
     0
 49
12.0
 74
     0
 49
-3.0
 74
     0
 49
0.0
 74
     0
 49
-3.0
 74
     0
 49
0.0
 74
     0
 49
-3.0
 74
     0
 49
0.0
 74
     0
 49
-3.0
 74
     0
  0
LTYPE
  5
4BC
330
401
100
AcDbSymbolTableRecord
100
AcDbLinetypeTableRecord
  2
BATTING
 70
     0
  3
Batting SSSSSSSSSSSSSSSSSSSSSSSSSSSSSSSSSSSSSSSSSSSSSSS
 72
    65
 73
     4
 40
10.16254
 49
0.00254
 74
     0
 49
-2.54
 74
     2
 75
     0
340
4BA
 46
2.54
 50
0.0
 44
-2.54
 45
0.0
  9
BAT
 49
-5.08
 74
     2
 75
     0
340
4BB
 46
2.54
 50
180.0
 44
2.54
 45
0.0
  9
BAT
 49
-2.54
 74
     0
  0
LTYPE
  5
4BD
330
401
100
AcDbSymbolTableRecord
100
AcDbLinetypeTableRecord
  2
BORDER
 70
     0
  3
Border __ __ . __ __ . __ __ . __ __ . __ __ .
 72
    65
 73
     6
 40
44.45
 49
12.7
 74
     0
 49
-6.35
 74
     0
 49
12.7
 74
     0
 49
-6.35
 74
     0
 49
0.0
 74
     0
 49
-6.35
 74
     0
  0
LTYPE
  5
4BE
330
401
100
AcDbSymbolTableRecord
100
AcDbLinetypeTableRecord
  2
ACAD_ISO10W100
 70
     0
  3
ISO dash dot __ . __ . __ . __ . __ . __ . __ . 
 72
    65
 73
     4
 40
18.0
 49
12.0
 74
     0
 49
-3.0
 74
     0
 49
0.0
 74
     0
 49
-3.0
 74
     0
  0
LTYPE
  5
4BF
330
401
100
AcDbSymbolTableRecord
100
AcDbLinetypeTableRecord
  2
ACAD_ISO11W100
 70
     0
  3
ISO double-dash dot __ __ . __ __ . __ __ . __ _
 72
    65
 73
     6
 40
33.0
 49
12.0
 74
     0
 49
-3.0
 74
     0
 49
12.0
 74
     0
 49
-3.0
 74
     0
 49
0.0
 74
     0
 49
-3.0
 74
     0
  0
LTYPE
  5
4C0
330
401
100
AcDbSymbolTableRecord
100
AcDbLinetypeTableRecord
  2
ACAD_ISO12W100
 70
     0
  3
ISO dash double-dot __ . . __ . . __ . . __ . . 
 72
    65
 73
     6
 40
21.0
 49
12.0
 74
     0
 49
-3.0
 74
     0
 49
0.0
 74
     0
 49
-3.0
 74
     0
 49
0.0
 74
     0
 49
-3.0
 74
     0
  0
LTYPE
  5
4C1
330
401
100
AcDbSymbolTableRecord
100
AcDbLinetypeTableRecord
  2
ACAD_ISO13W100
 70
     0
  3
ISO double-dash double-dot __ __ . . __ __ . . _
 72
    65
 73
     8
 40
36.0
 49
12.0
 74
     0
 49
-3.0
 74
     0
 49
12.0
 74
     0
 49
-3.0
 74
     0
 49
0.0
 74
     0
 49
-3.0
 74
     0
 49
0.0
 74
     0
 49
-3.0
 74
     0
  0
LTYPE
  5
4C3
330
401
100
AcDbSymbolTableRecord
100
AcDbLinetypeTableRecord
  2
FENCELINE2
 70
     0
  3
Fenceline square ----[]-----[]----[]-----[]----[]---
 72
    65
 73
     4
 40
36.83
 49
6.35
 74
     0
 49
-2.54
 74
     2
 75
     0
340
4C2
 46
2.54
 50
0.0
 44
-2.54
 45
0.0
  9
BOX
 49
-2.54
 74
     0
 49
25.4
 74
     0
  0
LTYPE
  5
4C5
330
401
100
AcDbSymbolTableRecord
100
AcDbLinetypeTableRecord
  2
GAS_LINE
 70
     0
  3
Gas line ----GAS----GAS----GAS----GAS----GAS----GAS--
 72
    65
 73
     3
 40
24.13
 49
12.7
 74
     0
 49
-5.08
 74
     2
 75
     0
340
4C4
 46
2.54
 50
0.0
 44
-2.54
 45
-1.27
  9
GAS
 49
-6.35
 74
     0
  0
LTYPE
  5
4C6
330
401
100
AcDbSymbolTableRecord
100
AcDbLinetypeTableRecord
  2
HIDDEN
 70
     0
  3
Hidden __ __ __ __ __ __ __ __ __ __ __ __ __ __
 72
    65
 73
     2
 40
9.524999999999999
 49
6.35
 74
     0
 49
-3.175
 74
     0
  0
LTYPE
  5
4C7
330
401
100
AcDbSymbolTableRecord
100
AcDbLinetypeTableRecord
  2
HIDDEN2
 70
     0
  3
Hidden (.5x) _ _ _ _ _ _ _ _ _ _ _ _ _ _ _ _ _ 
 72
    65
 73
     2
 40
4.762499999999999
 49
3.175
 74
     0
 49
-1.5875
 74
     0
  0
LTYPE
  5
4C8
330
401
100
AcDbSymbolTableRecord
100
AcDbLinetypeTableRecord
  2
DOTX2
 70
     0
  3
Dot (2x) .  .  .  .  .  .  .  .  .  .  .  .  .  .
 72
    65
 73
     2
 40
12.7
 49
0.0
 74
     0
 49
-12.7
 74
     0
  0
LTYPE
  5
4CA
330
401
100
AcDbSymbolTableRecord
100
AcDbLinetypeTableRecord
  2
DRAINAGE
 70
     0
  3
Drainage ---->---->---->----
 72
    65
 73
     2
 40
10.16
 49
5.08
 74
     2
 75
     0
340
4C9
 46
2.54
 50
180.0
 44
0.0
 45
0.0
  9
RIGHT_ARROW
 49
5.08
 74
     0
  0
LTYPE
  5
4CC
330
401
100
AcDbSymbolTableRecord
100
AcDbLinetypeTableRecord
  2
DRAINAGE2
 70
     0
  3
Drainage reversed----<----<----<----
 72
    65
 73
     2
 40
10.16
 49
5.08
 74
     2
 75
     0
340
4CB
 46
2.54
 50
0.0
 44
0.0
 45
0.0
  9
RIGHT_ARROW
 49
5.08
 74
     0
  0
LTYPE
  5
4CE
330
401
100
AcDbSymbolTableRecord
100
AcDbLinetypeTableRecord
  2
FENCELINE1
 70
     0
  3
Fenceline circle ----0-----0----0-----0----0-----0--
 72
    65
 73
     4
 40
36.83
 49
6.35
 74
     0
 49
-2.54
 74
     2
 75
     0
340
4CD
 46
2.54
 50
0.0
 44
-2.54
 45
0.0
  9
CIRC1
 49
-2.54
 74
     0
 49
25.4
 74
     0
  0
LTYPE
  5
4CF
330
401
100
AcDbSymbolTableRecord
100
AcDbLinetypeTableRecord
  2
DIVIDE2
 70
     0
  3
Divide (.5x) __..__..__..__..__..__..__..__.._
 72
    65
 73
     6
 40
15.875
 49
6.35
 74
     0
 49
-3.175
 74
     0
 49
0.0
 74
     0
 49
-3.175
 74
     0
 49
0.0
 74
     0
 49
-3.175
 74
     0
  0
LTYPE
  5
4D0
330
401
100
AcDbSymbolTableRecord
100
AcDbLinetypeTableRecord
  2
DIVIDEX2
 70
     0
  3
Divide (2x) ________  .  .  ________  .  .  _
 72
    65
 73
     6
 40
63.5
 49
25.4
 74
     0
 49
-12.7
 74
     0
 49
0.0
 74
     0
 49
-12.7
 74
     0
 49
0.0
 74
     0
 49
-12.7
 74
     0
  0
LTYPE
  5
4D1
330
401
100
AcDbSymbolTableRecord
100
AcDbLinetypeTableRecord
  2
DOT
 70
     0
  3
Dot . . . . . . . . . . . . . . . . . . . . . . . .
 72
    65
 73
     2
 40
6.35
 49
0.0
 74
     0
 49
-6.35
 74
     0
  0
LTYPE
  5
4D2
330
401
100
AcDbSymbolTableRecord
100
AcDbLinetypeTableRecord
  2
DOT2
 70
     0
  3
Dot (.5x) ........................................
 72
    65
 73
     2
 40
3.175
 49
0.0
 74
     0
 49
-3.175
 74
     0
  0
LTYPE
  5
4D3
330
401
100
AcDbSymbolTableRecord
100
AcDbLinetypeTableRecord
  2
DASHED
 70
     0
  3
Dashed __ __ __ __ __ __ __ __ __ __ __ __ __ _
 72
    65
 73
     2
 40
19.05
 49
12.7
 74
     0
 49
-6.35
 74
     0
  0
LTYPE
  5
4D4
330
401
100
AcDbSymbolTableRecord
100
AcDbLinetypeTableRecord
  2
DASHED2
 70
     0
  3
Dashed (.5x) _ _ _ _ _ _ _ _ _ _ _ _ _ _ _ _ _ 
 72
    65
 73
     2
 40
9.524999999999999
 49
6.35
 74
     0
 49
-3.175
 74
     0
  0
LTYPE
  5
4D5
330
401
100
AcDbSymbolTableRecord
100
AcDbLinetypeTableRecord
  2
DASHEDX2
 70
     0
  3
Dashed (2x) ____  ____  ____  ____  ____  ___
 72
    65
 73
     2
 40
38.09999999999999
 49
25.4
 74
     0
 49
-12.7
 74
     0
  0
LTYPE
  5
4D6
330
401
100
AcDbSymbolTableRecord
100
AcDbLinetypeTableRecord
  2
DIVIDE
 70
     0
  3
Divide ____ . . ____ . . ____ . . ____ . . ____
 72
    65
 73
     6
 40
31.75
 49
12.7
 74
     0
 49
-6.35
 74
     0
 49
0.0
 74
     0
 49
-6.35
 74
     0
 49
0.0
 74
     0
 49
-6.35
 74
     0
  0
ENDTAB
  0
TABLE
  2
LAYER
  5
3FE
330
0
100
AcDbSymbolTable
 70
     4
  0
LAYER
  5
40C
330
3FE
100
AcDbSymbolTableRecord
100
AcDbLayerTableRecord
  2
0
 70
     0
 62
     7
420
 16777215
  6
Continuous
370
    25
390
40B
347
441
348
0
  0
LAYER
  5
4D7
330
3FE
100
AcDbSymbolTableRecord
100
AcDbLayerTableRecord
  2
speaker mounting holes
 70
     0
 62
    18
420
        0
  6
Continuous
370
    25
390
40B
347
441
348
0
  0
LAYER
  5
4D8
330
3FE
100
AcDbSymbolTableRecord
100
AcDbLayerTableRecord
  2
outline
 70
     0
 62
    18
420
        0
  6
Continuous
370
    25
390
40B
347
441
348
0
  0
LAYER
  5
4D9
330
3FE
100
AcDbSymbolTableRecord
100
AcDbLayerTableRecord
  2
grill
 70
     0
 62
    18
420
        0
  6
Continuous
370
    25
390
40B
347
441
348
0
  0
ENDTAB
  0
TABLE
  2
STYLE
  5
3FF
330
0
100
AcDbSymbolTable
 70
    12
  0
STYLE
  5
40D
330
3FF
100
AcDbSymbolTableRecord
100
AcDbTextStyleTableRecord
  2
Standard
 70
     0
 40
0.0
 41
1.0
 50
0.0
 71
     0
 42
0.2
  3
txt
  4

  0
STYLE
  5
49E
330
3FF
100
AcDbSymbolTableRecord
100
AcDbTextStyleTableRecord
  2
textstyle0
 70
     0
 40
0.0
 41
1.0
 50
0.0
 71
     0
 42
0.2
  3
ltypeshp.shx
  4

  0
STYLE
  5
4A0
330
3FF
100
AcDbSymbolTableRecord
100
AcDbTextStyleTableRecord
  2
textstyle1
 70
     0
 40
0.0
 41
1.0
 50
0.0
 71
     0
 42
0.2
  3
ltypeshp.shx
  4

  0
STYLE
  5
4A1
330
3FF
100
AcDbSymbolTableRecord
100
AcDbTextStyleTableRecord
  2
textstyle2
 70
     0
 40
0.0
 41
1.0
 50
0.0
 71
     0
 42
0.2
  3
ltypeshp.shx
  4

  0
STYLE
  5
4A4
330
3FF
100
AcDbSymbolTableRecord
100
AcDbTextStyleTableRecord
  2
textstyle3
 70
     0
 40
0.0
 41
1.0
 50
0.0
 71
     0
 42
0.2
  3
STANDARD
  4

  0
STYLE
  5
4BA
330
3FF
100
AcDbSymbolTableRecord
100
AcDbTextStyleTableRecord
  2
textstyle4
 70
     0
 40
0.0
 41
1.0
 50
0.0
 71
     0
 42
0.2
  3
ltypeshp.shx
  4

  0
STYLE
  5
4BB
330
3FF
100
AcDbSymbolTableRecord
100
AcDbTextStyleTableRecord
  2
textstyle5
 70
     0
 40
0.0
 41
1.0
 50
0.0
 71
     0
 42
0.2
  3
ltypeshp.shx
  4

  0
STYLE
  5
4C2
330
3FF
100
AcDbSymbolTableRecord
100
AcDbTextStyleTableRecord
  2
textstyle6
 70
     0
 40
0.0
 41
1.0
 50
0.0
 71
     0
 42
0.2
  3
ltypeshp.shx
  4

  0
STYLE
  5
4C4
330
3FF
100
AcDbSymbolTableRecord
100
AcDbTextStyleTableRecord
  2
textstyle7
 70
     0
 40
0.0
 41
1.0
 50
0.0
 71
     0
 42
0.2
  3
STANDARD
  4

  0
STYLE
  5
4C9
330
3FF
100
AcDbSymbolTableRecord
100
AcDbTextStyleTableRecord
  2
textstyle8
 70
     0
 40
0.0
 41
1.0
 50
0.0
 71
     0
 42
0.2
  3
qcadshp.shx
  4

  0
STYLE
  5
4CB
330
3FF
100
AcDbSymbolTableRecord
100
AcDbTextStyleTableRecord
  2
textstyle9
 70
     0
 40
0.0
 41
1.0
 50
0.0
 71
     0
 42
0.2
  3
qcadshp.shx
  4

  0
STYLE
  5
4CD
330
3FF
100
AcDbSymbolTableRecord
100
AcDbTextStyleTableRecord
  2
textstyle10
 70
     0
 40
0.0
 41
1.0
 50
0.0
 71
     0
 42
0.2
  3
ltypeshp.shx
  4

  0
ENDTAB
  0
TABLE
  2
VIEW
  5
402
330
0
100
AcDbSymbolTable
 70
     0
  0
ENDTAB
  0
TABLE
  2
UCS
  5
403
330
0
100
AcDbSymbolTable
 70
     0
  0
ENDTAB
  0
TABLE
  2
APPID
  5
405
330
0
100
AcDbSymbolTable
 70
     2
  0
APPID
  5
40E
330
405
100
AcDbSymbolTableRecord
100
AcDbRegAppTableRecord
  2
ACAD
 70
     0
  0
APPID
  5
469
330
405
100
AcDbSymbolTableRecord
100
AcDbRegAppTableRecord
  2
QCAD
 70
     0
  0
ENDTAB
  0
TABLE
  2
DIMSTYLE
  5
406
330
0
100
AcDbSymbolTable
 70
     2
100
AcDbDimStyleTable
  0
DIMSTYLE
105
422
330
406
100
AcDbSymbolTableRecord
100
AcDbDimStyleTableRecord
  2
Standard
 70
     0
178
     0
340
40D
  0
DIMSTYLE
105
49C
330
406
100
AcDbSymbolTableRecord
100
AcDbDimStyleTableRecord
  2
QCADDimStyle
 70
     0
 41
2.5
 42
0.625
 44
1.25
 73
     0
 77
     1
140
2.5
147
0.625
178
     0
340
40D
  0
ENDTAB
  0
TABLE
  2
BLOCK_RECORD
  5
3FD
330
0
100
AcDbSymbolTable
 70
     1
  0
BLOCK_RECORD
  5
41A
330
3FD
100
AcDbSymbolTableRecord
100
AcDbBlockTableRecord
  2
*Model_Space
340
41D
 70
     0
280
     1
281
     0
  0
BLOCK_RECORD
  5
416
330
3FD
100
AcDbSymbolTableRecord
100
AcDbBlockTableRecord
  2
*Paper_Space
340
419
 70
     0
280
     1
281
     0
  0
ENDTAB
  0
ENDSEC
  0
SECTION
  2
BLOCKS
  0
BLOCK
  5
41B
330
41A
100
AcDbEntity
  8
0
100
AcDbBlockBegin
  2
*Model_Space
 70
     0
 10
0.0
 20
0.0
 30
0.0
  3
*Model_Space
  1
*Model_Space
  0
ENDBLK
  5
41C
330
41A
100
AcDbEntity
  8
0
100
AcDbBlockEnd
  0
BLOCK
  5
417
330
416
100
AcDbEntity
 67
     1
  8
0
100
AcDbBlockBegin
  2
*Paper_Space
 70
     0
 10
0.0
 20
0.0
 30
0.0
  3
*Paper_Space
  1
*Paper_Space
  0
ENDBLK
  5
418
330
416
100
AcDbEntity
 67
     1
  8
0
100
AcDbBlockEnd
  0
ENDSEC
  0
SECTION
  2
ENTITIES
  0
ARC
  5
1F5
330
41A
100
AcDbEntity
  8
grill
100
AcDbCircle
 10
0.0000000000000028
 20
0.0000000000000028
 30
0.0
 40
24.0
100
AcDbArc
 50
176.0144996657305
 51
183.9855003342695
  0
ARC
  5
1E1
330
41A
100
AcDbEntity
  8
grill
100
AcDbCircle
 10
0.0000000000000028
 20
0.0000000000000028
 30
0.0
 40
24.0
100
AcDbArc
 50
202.3303901282496
 51
211.1380503279514
  0
ARC
  5
1E6
330
41A
100
AcDbEntity
  8
grill
100
AcDbCircle
 10
0.0000000000000028
 20
0.0000000000000028
 30
0.0
 40
24.0
100
AcDbArc
 50
194.8351613723119
 51
198.3899021892661
  0
ARC
  5
18F
330
41A
100
AcDbEntity
  8
grill
100
AcDbCircle
 10
0.0000000000000028
 20
0.0000000000000028
 30
0.0
 40
24.0
100
AcDbArc
 50
214.8000819088837
 51
223.2092153406711
  0
ARC
  5
2E8
330
41A
100
AcDbEntity
  8
grill
100
AcDbCircle
 10
0.0000000000000028
 20
0.0000000000000028
 30
0.0
 40
24.0
100
AcDbArc
 50
14.83516137231199
 51
18.38990218926605
  0
ARC
  5
2D6
330
41A
100
AcDbEntity
  8
grill
100
AcDbCircle
 10
0.0000000000000028
 20
0.0000000000000028
 30
0.0
 40
24.0
100
AcDbArc
 50
34.80008190888376
 51
43.20921534067108
  0
ARC
  5
2DE
330
41A
100
AcDbEntity
  8
grill
100
AcDbCircle
 10
0.0000000000000028
 20
0.0000000000000028
 30
0.0
 40
24.0
100
AcDbArc
 50
22.33039012824963
 51
31.13805032795134
  0
ARC
  5
2C9
330
41A
100
AcDbEntity
  8
grill
100
AcDbCircle
 10
0.0000000000000028
 20
0.0000000000000028
 30
0.0
 40
24.0
100
AcDbArc
 50
226.7907846593289
 51
235.1999180911163
  0
ARC
  5
295
330
41A
100
AcDbEntity
  8
grill
100
AcDbCircle
 10
0.0000000000000028
 20
0.0000000000000028
 30
0.0
 40
24.0
100
AcDbArc
 50
71.61009781073392
 51
75.16483862768803
  0
ARC
  5
29A
330
41A
100
AcDbEntity
  8
grill
100
AcDbCircle
 10
0.0000000000000028
 20
0.0000000000000028
 30
0.0
 40
24.0
100
AcDbArc
 50
58.86194967204865
 51
67.6696098717504
  0
ARC
  5
299
330
41A
100
AcDbEntity
  8
grill
100
AcDbCircle
 10
0.0000000000000028
 20
0.0000000000000028
 30
0.0
 40
24.0
100
AcDbArc
 50
46.79078465932891
 51
55.19991809111629
  0
ARC
  5
284
330
41A
100
AcDbEntity
  8
grill
100
AcDbCircle
 10
0.0000000000000028
 20
0.0000000000000028
 30
0.0
 40
24.0
100
AcDbArc
 50
98.32950909920164
 51
98.57642635766882
  0
ARC
  5
28B
330
41A
100
AcDbEntity
  8
grill
100
AcDbCircle
 10
0.0000000000000028
 20
0.0000000000000028
 30
0.0
 40
24.0
100
AcDbArc
 50
86.01449966573055
 51
93.98550033426945
  0
ARC
  5
272
330
41A
100
AcDbEntity
  8
grill
100
AcDbCircle
 10
0.0000000000000028
 20
0.0000000000000028
 30
0.0
 40
24.0
100
AcDbArc
 50
104.835161372312
 51
108.3899021892661
  0
ARC
  5
266
330
41A
100
AcDbEntity
  8
grill
100
AcDbCircle
 10
0.0000000000000028
 20
0.0000000000000028
 30
0.0
 40
24.0
100
AcDbArc
 50
112.3303901282496
 51
121.1380503279513
  0
ARC
  5
25C
330
41A
100
AcDbEntity
  8
grill
100
AcDbCircle
 10
0.0000000000000028
 20
0.0000000000000028
 30
0.0
 40
24.0
100
AcDbArc
 50
124.8000819088837
 51
133.209215340671
  0
ARC
  5
245
330
41A
100
AcDbEntity
  8
grill
100
AcDbCircle
 10
0.0000000000000028
 20
0.0000000000000028
 30
0.0
 40
24.0
100
AcDbArc
 50
148.8619496720486
 51
157.6696098717504
  0
ARC
  5
249
330
41A
100
AcDbEntity
  8
grill
100
AcDbCircle
 10
0.0000000000000028
 20
0.0000000000000028
 30
0.0
 40
24.0
100
AcDbArc
 50
136.7907846593289
 51
145.1999180911163
  0
ARC
  5
237
330
41A
100
AcDbEntity
  8
grill
100
AcDbCircle
 10
0.0000000000000028
 20
0.0000000000000028
 30
0.0
 40
24.0
100
AcDbArc
 50
161.6100978107339
 51
165.164838627688
  0
ARC
  5
3DF
330
41A
100
AcDbEntity
  8
grill
100
AcDbCircle
 10
0.0000000000000028
 20
0.0000000000000028
 30
0.0
 40
24.0
100
AcDbArc
 50
251.6100978107339
 51
255.1648386276881
  0
ARC
  5
3B4
330
41A
100
AcDbEntity
  8
grill
100
AcDbCircle
 10
0.0000000000000028
 20
0.0000000000000028
 30
0.0
 40
24.0
100
AcDbArc
 50
238.8619496720486
 51
247.6696098717504
  0
ARC
  5
399
330
41A
100
AcDbEntity
  8
grill
100
AcDbCircle
 10
0.0000000000000028
 20
0.0000000000000028
 30
0.0
 40
24.0
100
AcDbArc
 50
266.0144996657305
 51
273.9855003342695
  0
ARC
  5
36A
330
41A
100
AcDbEntity
  8
grill
100
AcDbCircle
 10
0.0000000000000028
 20
0.0000000000000028
 30
0.0
 40
24.0
100
AcDbArc
 50
292.3303901282496
 51
301.1380503279513
  0
ARC
  5
36C
330
41A
100
AcDbEntity
  8
grill
100
AcDbCircle
 10
0.0000000000000028
 20
0.0000000000000028
 30
0.0
 40
24.0
100
AcDbArc
 50
284.835161372312
 51
288.3899021892661
  0
ARC
  5
357
330
41A
100
AcDbEntity
  8
grill
100
AcDbCircle
 10
0.0000000000000028
 20
0.0000000000000028
 30
0.0
 40
24.0
100
AcDbArc
 50
328.8619496720487
 51
337.6696098717504
  0
ARC
  5
355
330
41A
100
AcDbEntity
  8
grill
100
AcDbCircle
 10
0.0000000000000028
 20
0.0000000000000028
 30
0.0
 40
24.0
100
AcDbArc
 50
341.6100978107339
 51
345.164838627688
  0
ARC
  5
359
330
41A
100
AcDbEntity
  8
grill
100
AcDbCircle
 10
0.0000000000000028
 20
0.0000000000000028
 30
0.0
 40
24.0
100
AcDbArc
 50
316.7907846593289
 51
325.1999180911163
  0
ARC
  5
35F
330
41A
100
AcDbEntity
  8
grill
100
AcDbCircle
 10
0.0000000000000028
 20
0.0000000000000028
 30
0.0
 40
24.0
100
AcDbArc
 50
304.8000819088837
 51
313.2092153406711
  0
ARC
  5
342
330
41A
100
AcDbEntity
  8
grill
100
AcDbCircle
 10
0.0000000000000028
 20
0.0000000000000028
 30
0.0
 40
24.0
100
AcDbArc
 50
356.0144996657305
 51
3.985500334269452
  0
LINE
  5
1B2
330
41A
100
AcDbEntity
  8
grill
100
AcDbLine
 10
0.0000000000000001
 20
1.060660171779826
 30
0.0
 11
-2.474873734152916
 21
3.535533905932743
 31
0.0
  0
LINE
  5
1BC
330
41A
100
AcDbEntity
  8
grill
100
AcDbLine
 10
-3.535533905932737
 20
4.596194077712565
 30
0.0
 11
-6.010407640085652
 21
7.071067811865481
 31
0.0
  0
LINE
  5
2A8
330
41A
100
AcDbEntity
  8
grill
100
AcDbLine
 10
3.535533905932736
 20
-2.474873734152913
 30
0.0
 11
1.060660171779821
 21
0.0000000000000045
 31
0.0
  0
LINE
  5
251
330
41A
100
AcDbEntity
  8
grill
100
AcDbLine
 10
-14.14213562373096
 20
15.20279579551078
 30
0.0
 11
-16.43194423095805
 21
17.49260440273788
 31
0.0
  0
LINE
  5
250
330
41A
100
AcDbEntity
  8
grill
100
AcDbLine
 10
-10.60660171779821
 20
11.66726188957804
 30
0.0
 11
-13.08147545195113
 21
14.14213562373095
 31
0.0
  0
LINE
  5
214
330
41A
100
AcDbEntity
  8
grill
100
AcDbLine
 10
-7.071067811865473
 20
8.131727983645302
 30
0.0
 11
-9.54594154601839
 21
10.60660171779822
 31
0.0
  0
LINE
  5
3C9
330
41A
100
AcDbEntity
  8
grill
100
AcDbLine
 10
7.071067811865475
 20
-6.010407640085652
 30
0.0
 11
4.596194077712558
 21
-3.535533905932734
 31
0.0
  0
LINE
  5
3C8
330
41A
100
AcDbEntity
  8
grill
100
AcDbLine
 10
10.60660171779821
 20
-9.545941546018385
 30
0.0
 11
8.131727983645295
 21
-7.071067811865473
 31
0.0
  0
LINE
  5
3B0
330
41A
100
AcDbEntity
  8
grill
100
AcDbLine
 10
14.14213562373095
 20
-13.08147545195113
 30
0.0
 11
11.66726188957803
 21
-10.60660171779821
 31
0.0
  0
LINE
  5
385
330
41A
100
AcDbEntity
  8
grill
100
AcDbLine
 10
17.49260440273787
 20
-16.43194423095804
 30
0.0
 11
15.20279579551076
 21
-14.14213562373095
 31
0.0
  0
LINE
  5
1B4
330
41A
100
AcDbEntity
  8
grill
100
AcDbLine
 10
-1.060660171779821
 20
0.0000000000000048
 30
0.0
 11
-3.535533905932736
 21
2.474873734152919
 31
0.0
  0
LINE
  5
1BE
330
41A
100
AcDbEntity
  8
grill
100
AcDbLine
 10
-4.59619407771256
 20
3.535533905932742
 30
0.0
 11
-7.071067811865475
 21
6.010407640085661
 31
0.0
  0
LINE
  5
2A6
330
41A
100
AcDbEntity
  8
grill
100
AcDbLine
 10
2.474873734152915
 20
-3.535533905932734
 30
0.0
 11
-0.0000000000000002
 21
-1.060660171779816
 31
0.0
  0
LINE
  5
24D
330
41A
100
AcDbEntity
  8
grill
100
AcDbLine
 10
-15.20279579551077
 20
14.14213562373096
 30
0.0
 11
-17.49260440273787
 21
16.43194423095805
 31
0.0
  0
LINE
  5
24C
330
41A
100
AcDbEntity
  8
grill
100
AcDbLine
 10
-11.66726188957803
 20
10.60660171779822
 30
0.0
 11
-14.14213562373095
 21
13.08147545195113
 31
0.0
  0
LINE
  5
218
330
41A
100
AcDbEntity
  8
grill
100
AcDbLine
 10
-8.131727983645295
 20
7.071067811865483
 30
0.0
 11
-10.60660171779821
 21
9.545941546018396
 31
0.0
  0
LINE
  5
3C7
330
41A
100
AcDbEntity
  8
grill
100
AcDbLine
 10
6.010407640085654
 20
-7.071067811865471
 30
0.0
 11
3.535533905932736
 21
-4.596194077712554
 31
0.0
  0
LINE
  5
3C6
330
41A
100
AcDbEntity
  8
grill
100
AcDbLine
 10
9.545941546018387
 20
-10.60660171779821
 30
0.0
 11
7.071067811865468
 21
-8.131727983645298
 31
0.0
  0
LINE
  5
3AC
330
41A
100
AcDbEntity
  8
grill
100
AcDbLine
 10
13.08147545195113
 20
-14.14213562373095
 30
0.0
 11
10.60660171779821
 21
-11.66726188957803
 31
0.0
  0
LINE
  5
37F
330
41A
100
AcDbEntity
  8
grill
100
AcDbLine
 10
16.43194423095804
 20
-17.49260440273788
 30
0.0
 11
14.14213562373095
 21
-15.20279579551077
 31
0.0
  0
LINE
  5
143
330
41A
100
AcDbEntity
  8
grill
100
AcDbLine
 10
8.131727983645291
 20
7.071067811865486
 30
0.0
 11
10.60660171779821
 21
9.545941546018403
 31
0.0
  0
LINE
  5
141
330
41A
100
AcDbEntity
  8
grill
100
AcDbLine
 10
11.66726188957804
 20
10.60660171779822
 30
0.0
 11
14.14213562373101
 21
13.08147545195108
 31
0.0
  0
LINE
  5
147
330
41A
100
AcDbEntity
  8
grill
100
AcDbLine
 10
-2.474873734152915
 20
-3.535533905932733
 30
0.0
 11
-0.0000000000000002
 21
-1.060660171779816
 31
0.0
  0
LINE
  5
145
330
41A
100
AcDbEntity
  8
grill
100
AcDbLine
 10
4.596194077712561
 20
3.53553390593274
 30
0.0
 11
7.071067811865476
 21
6.010407640085657
 31
0.0
  0
LINE
  5
144
330
41A
100
AcDbEntity
  8
grill
100
AcDbLine
 10
1.060660171779816
 20
-0.0000000000000003
 30
0.0
 11
3.53553390593274
 21
2.474873734152918
 31
0.0
  0
LINE
  5
14B
330
41A
100
AcDbEntity
  8
grill
100
AcDbLine
 10
-9.545941546018401
 20
-10.6066017177982
 30
0.0
 11
-7.071067811865461
 21
-8.131727983645305
 31
0.0
  0
LINE
  5
149
330
41A
100
AcDbEntity
  8
grill
100
AcDbLine
 10
-6.010407640085657
 20
-7.071067811865469
 30
0.0
 11
-3.53553390593274
 21
-4.596194077712557
 31
0.0
  0
LINE
  5
14D
330
41A
100
AcDbEntity
  8
grill
100
AcDbLine
 10
-13.08147545195109
 20
-14.14213562373098
 30
0.0
 11
-10.60660171779822
 21
-11.66726188957802
 31
0.0
  0
LINE
  5
14C
330
41A
100
AcDbEntity
  8
grill
100
AcDbLine
 10
-16.44023266258723
 20
-17.50089283436704
 30
0.0
 11
-14.14213562373093
 21
-15.20279579551079
 31
0.0
  0
LINE
  5
13F
330
41A
100
AcDbEntity
  8
grill
100
AcDbLine
 10
15.2027957955108
 20
14.14213562373092
 30
0.0
 11
17.50089283436705
 21
16.44023266258723
 31
0.0
  0
LINE
  5
153
330
41A
100
AcDbEntity
  8
grill
100
AcDbLine
 10
-10.6066017177982
 20
-9.545941546018398
 30
0.0
 11
-8.131727983645307
 21
-7.071067811865459
 31
0.0
  0
LINE
  5
151
330
41A
100
AcDbEntity
  8
grill
100
AcDbLine
 10
-14.14213562373098
 20
-13.08147545195108
 30
0.0
 11
-11.66726188957802
 21
-10.60660171779822
 31
0.0
  0
LINE
  5
156
330
41A
100
AcDbEntity
  8
grill
100
AcDbLine
 10
-3.535533905932737
 20
-2.474873734152912
 30
0.0
 11
-1.060660171779821
 21
0.0000000000000048
 31
0.0
  0
LINE
  5
155
330
41A
100
AcDbEntity
  8
grill
100
AcDbLine
 10
-7.07106781186547
 20
-6.010407640085654
 30
0.0
 11
-4.596194077712559
 21
-3.535533905932733
 31
0.0
  0
LINE
  5
14E
330
41A
100
AcDbEntity
  8
grill
100
AcDbLine
 10
-17.50089283436704
 20
-16.44023266258722
 30
0.0
 11
-15.20279579551078
 21
-14.14213562373092
 31
0.0
  0
LINE
  5
13A
330
41A
100
AcDbEntity
  8
grill
100
AcDbLine
 10
7.071067811865466
 20
8.131727983645312
 30
0.0
 11
9.545941546018405
 21
10.6066017177982
 31
0.0
  0
LINE
  5
139
330
41A
100
AcDbEntity
  8
grill
100
AcDbLine
 10
3.535533905932739
 20
4.596194077712566
 30
0.0
 11
6.010407640085659
 21
7.071067811865475
 31
0.0
  0
LINE
  5
138
330
41A
100
AcDbEntity
  8
grill
100
AcDbLine
 10
-0.0000000000000049
 20
1.060660171779821
 30
0.0
 11
2.474873734152916
 21
3.535533905932743
 31
0.0
  0
LINE
  5
13D
330
41A
100
AcDbEntity
  8
grill
100
AcDbLine
 10
14.14213562373093
 20
15.2027957955108
 30
0.0
 11
16.44023266258723
 21
17.50089283436705
 31
0.0
  0
LINE
  5
13C
330
41A
100
AcDbEntity
  8
grill
100
AcDbLine
 10
10.60660171779823
 20
11.66726188957803
 30
0.0
 11
13.08147545195117
 21
14.14213562373092
 31
0.0
  0
LINE
  5
1C0
330
41A
100
AcDbEntity
  8
grill
100
AcDbLine
 10
-7.071067811865476
 20
1.060660171779828
 30
0.0
 11
-9.54594154601839
 21
3.535533905932744
 31
0.0
  0
LINE
  5
1AC
330
41A
100
AcDbEntity
  8
grill
100
AcDbLine
 10
-3.535533905932737
 20
-2.474873734152912
 30
0.0
 11
-6.010407640085654
 21
0.0000000000000061
 31
0.0
  0
LINE
  5
2AA
330
41A
100
AcDbEntity
  8
grill
100
AcDbLine
 10
-0.0000000000000011
 20
-6.010407640085649
 30
0.0
 11
-2.474873734152915
 21
-3.535533905932733
 31
0.0
  0
LINE
  5
243
330
41A
100
AcDbEntity
  8
grill
100
AcDbLine
 10
-17.67766952966369
 20
11.66726188957804
 30
0.0
 11
-19.70756143805592
 21
13.69715379797028
 31
0.0
  0
LINE
  5
23E
330
41A
100
AcDbEntity
  8
grill
100
AcDbLine
 10
-14.14213562373095
 20
8.131727983645305
 30
0.0
 11
-16.61700935788387
 21
10.60660171779822
 31
0.0
  0
LINE
  5
21C
330
41A
100
AcDbEntity
  8
grill
100
AcDbLine
 10
-10.60660171779821
 20
4.596194077712566
 30
0.0
 11
-13.08147545195113
 21
7.071067811865481
 31
0.0
  0
LINE
  5
3C5
330
41A
100
AcDbEntity
  8
grill
100
AcDbLine
 10
3.535533905932735
 20
-9.545941546018389
 30
0.0
 11
1.060660171779819
 21
-7.071067811865471
 31
0.0
  0
LINE
  5
3C4
330
41A
100
AcDbEntity
  8
grill
100
AcDbLine
 10
7.071067811865473
 20
-13.08147545195112
 30
0.0
 11
4.596194077712559
 21
-10.60660171779821
 31
0.0
  0
LINE
  5
3A8
330
41A
100
AcDbEntity
  8
grill
100
AcDbLine
 10
10.6066017177982
 20
-16.61700935788387
 30
0.0
 11
8.131727983645298
 21
-14.14213562373094
 31
0.0
  0
LINE
  5
37B
330
41A
100
AcDbEntity
  8
grill
100
AcDbLine
 10
13.69715379797025
 20
-19.70756143805593
 30
0.0
 11
11.66726188957803
 21
-17.67766952966368
 31
0.0
  0
LINE
  5
1C2
330
41A
100
AcDbEntity
  8
grill
100
AcDbLine
 10
-8.131727983645296
 20
0.0000000000000046
 30
0.0
 11
-10.60660171779821
 21
2.474873734152922
 31
0.0
  0
LINE
  5
1A8
330
41A
100
AcDbEntity
  8
grill
100
AcDbLine
 10
-4.596194077712559
 20
-3.535533905932733
 30
0.0
 11
-7.071067811865475
 21
-1.060660171779816
 31
0.0
  0
LINE
  5
2AE
330
41A
100
AcDbEntity
  8
grill
100
AcDbLine
 10
-1.060660171779821
 20
-7.07106781186547
 30
0.0
 11
-3.535533905932741
 21
-4.59619407771255
 31
0.0
  0
LINE
  5
242
330
41A
100
AcDbEntity
  8
grill
100
AcDbLine
 10
-18.7383297014435
 20
10.60660171779822
 30
0.0
 11
-20.54217274105407
 21
12.41044475740878
 31
0.0
  0
LINE
  5
23C
330
41A
100
AcDbEntity
  8
grill
100
AcDbLine
 10
-15.20279579551077
 20
7.071067811865484
 30
0.0
 11
-17.67766952966369
 21
9.5459415460184
 31
0.0
  0
LINE
  5
222
330
41A
100
AcDbEntity
  8
grill
100
AcDbLine
 10
-11.66726188957803
 20
3.535533905932741
 30
0.0
 11
-14.14213562373095
 21
6.010407640085657
 31
0.0
  0
LINE
  5
3C3
330
41A
100
AcDbEntity
  8
grill
100
AcDbLine
 10
2.474873734152917
 20
-10.60660171779821
 30
0.0
 11
-0.0000000000000015
 21
-8.131727983645291
 31
0.0
  0
LINE
  5
3C2
330
41A
100
AcDbEntity
  8
grill
100
AcDbLine
 10
6.010407640085649
 20
-14.14213562373095
 30
0.0
 11
3.535533905932731
 21
-11.66726188957803
 31
0.0
  0
LINE
  5
3A4
330
41A
100
AcDbEntity
  8
grill
100
AcDbLine
 10
9.545941546018392
 20
-17.67766952966368
 30
0.0
 11
7.071067811865476
 21
-15.20279579551076
 31
0.0
  0
LINE
  5
377
330
41A
100
AcDbEntity
  8
grill
100
AcDbLine
 10
12.41044475740876
 20
-20.54217274105408
 30
0.0
 11
10.60660171779822
 21
-18.7383297014435
 31
0.0
  0
LINE
  5
1CC
330
41A
100
AcDbEntity
  8
grill
100
AcDbLine
 10
-11.66726188957803
 20
-3.535533905932733
 30
0.0
 11
-14.14213562373095
 21
-1.060660171779814
 31
0.0
  0
LINE
  5
1A0
330
41A
100
AcDbEntity
  8
grill
100
AcDbLine
 10
-8.131727983645307
 20
-7.071067811865459
 30
0.0
 11
-10.60660171779822
 21
-4.596194077712553
 31
0.0
  0
LINE
  5
2B6
330
41A
100
AcDbEntity
  8
grill
100
AcDbLine
 10
-4.596194077712564
 20
-10.60660171779821
 30
0.0
 11
-7.071067811865461
 21
-8.131727983645305
 31
0.0
  0
LINE
  5
238
330
41A
100
AcDbEntity
  8
grill
100
AcDbLine
 10
-22.27386360737625
 20
7.071067811865484
 30
0.0
 11
-22.77435904579765
 21
7.571563250286879
 31
0.0
  0
LINE
  5
228
330
41A
100
AcDbEntity
  8
grill
100
AcDbLine
 10
-15.20279579551077
 20
0.0000000000000086
 30
0.0
 11
-17.67766952966369
 21
2.474873734152923
 31
0.0
  0
LINE
  5
22E
330
41A
100
AcDbEntity
  8
grill
100
AcDbLine
 10
-18.73832970144351
 20
3.535533905932741
 30
0.0
 11
-21.21320343559643
 21
6.010407640085655
 31
0.0
  0
LINE
  5
3BF
330
41A
100
AcDbEntity
  8
grill
100
AcDbLine
 10
-1.060660171779831
 20
-14.14213562373094
 30
0.0
 11
-3.535533905932735
 21
-11.66726188957803
 31
0.0
  0
LINE
  5
3BE
330
41A
100
AcDbEntity
  8
grill
100
AcDbLine
 10
2.47487373415291
 20
-17.67766952966369
 30
0.0
 11
-0.0000000000000028
 21
-15.20279579551077
 31
0.0
  0
LINE
  5
39E
330
41A
100
AcDbEntity
  8
grill
100
AcDbLine
 10
6.010407640085647
 20
-21.21320343559643
 30
0.0
 11
3.535533905932735
 21
-18.73832970144351
 31
0.0
  0
LINE
  5
36F
330
41A
100
AcDbEntity
  8
grill
100
AcDbLine
 10
7.57156325028686
 20
-22.77435904579765
 30
0.0
 11
7.071067811865475
 21
-22.27386360737624
 31
0.0
  0
LINE
  5
1C8
330
41A
100
AcDbEntity
  8
grill
100
AcDbLine
 10
-10.60660171779821
 20
-2.474873734152913
 30
0.0
 11
-13.08147545195113
 21
0.0000000000000074
 31
0.0
  0
LINE
  5
1A4
330
41A
100
AcDbEntity
  8
grill
100
AcDbLine
 10
-7.07106781186547
 20
-6.010407640085654
 30
0.0
 11
-9.545941546018394
 21
-3.535533905932728
 31
0.0
  0
LINE
  5
2B2
330
41A
100
AcDbEntity
  8
grill
100
AcDbLine
 10
-3.535533905932747
 20
-9.545941546018382
 30
0.0
 11
-6.010407640085655
 21
-7.071067811865468
 31
0.0
  0
LINE
  5
234
330
41A
100
AcDbEntity
  8
grill
100
AcDbLine
 10
-17.67766952966369
 20
4.596194077712566
 30
0.0
 11
-20.1525432638166
 21
7.071067811865481
 31
0.0
  0
LINE
  5
239
330
41A
100
AcDbEntity
  8
grill
100
AcDbLine
 10
-21.21320343559643
 20
8.131727983645305
 30
0.0
 11
-22.20019972184247
 21
9.118724269891343
 31
0.0
  0
LINE
  5
224
330
41A
100
AcDbEntity
  8
grill
100
AcDbLine
 10
-14.14213562373095
 20
1.06066017177983
 30
0.0
 11
-16.61700935788387
 21
3.535533905932741
 31
0.0
  0
LINE
  5
3C1
330
41A
100
AcDbEntity
  8
grill
100
AcDbLine
 10
-0.0000000000000024
 20
-13.08147545195112
 30
0.0
 11
-2.47487373415292
 21
-10.6066017177982
 31
0.0
  0
LINE
  5
3C0
330
41A
100
AcDbEntity
  8
grill
100
AcDbLine
 10
3.535533905932735
 20
-16.61700935788386
 30
0.0
 11
1.060660171779813
 21
-14.14213562373095
 31
0.0
  0
LINE
  5
3A2
330
41A
100
AcDbEntity
  8
grill
100
AcDbLine
 10
7.071067811865466
 20
-20.1525432638166
 30
0.0
 11
4.596194077712551
 21
-17.67766952966369
 31
0.0
  0
LINE
  5
371
330
41A
100
AcDbEntity
  8
grill
100
AcDbLine
 10
9.118724269891345
 20
-22.20019972184247
 30
0.0
 11
8.131727983645296
 21
-21.21320343559642
 31
0.0
  0
LINE
  5
1FD
330
41A
100
AcDbEntity
  8
grill
100
AcDbLine
 10
1.060660171779822
 20
7.071067811865481
 30
0.0
 11
3.535533905932741
 21
9.545941546018398
 31
0.0
  0
LINE
  5
1FC
330
41A
100
AcDbEntity
  8
grill
100
AcDbLine
 10
-2.474873734152916
 20
3.535533905932743
 30
0.0
 11
0.0000000000000004
 21
6.010407640085661
 31
0.0
  0
LINE
  5
1B0
330
41A
100
AcDbEntity
  8
grill
100
AcDbLine
 10
-6.010407640085654
 20
0.0000000000000061
 30
0.0
 11
-3.535533905932736
 21
2.474873734152922
 31
0.0
  0
LINE
  5
1A2
330
41A
100
AcDbEntity
  8
grill
100
AcDbLine
 10
-13.08147545195113
 20
-7.071067811865469
 30
0.0
 11
-10.60660171779822
 21
-4.596194077712553
 31
0.0
  0
LINE
  5
1AE
330
41A
100
AcDbEntity
  8
grill
100
AcDbLine
 10
-9.545941546018394
 20
-3.535533905932728
 30
0.0
 11
-7.071067811865475
 21
-1.060660171779816
 31
0.0
  0
LINE
  5
192
330
41A
100
AcDbEntity
  8
grill
100
AcDbLine
 10
-19.70756143805592
 20
-13.69715379797027
 30
0.0
 11
-17.67766952966369
 21
-11.66726188957802
 31
0.0
  0
LINE
  5
19E
330
41A
100
AcDbEntity
  8
grill
100
AcDbLine
 10
-16.61700935788387
 20
-10.6066017177982
 30
0.0
 11
-14.14213562373095
 21
-8.131727983645288
 31
0.0
  0
LINE
  5
16A
330
41A
100
AcDbEntity
  8
grill
100
AcDbLine
 10
4.596194077712562
 20
10.60660171779822
 30
0.0
 11
7.071067811865479
 21
13.08147545195113
 31
0.0
  0
LINE
  5
168
330
41A
100
AcDbEntity
  8
grill
100
AcDbLine
 10
8.131727983645296
 20
14.14213562373096
 30
0.0
 11
10.60660171779821
 21
16.61700935788388
 31
0.0
  0
LINE
  5
29B
330
41A
100
AcDbEntity
  8
grill
100
AcDbLine
 10
11.66726188957803
 20
17.67766952966369
 30
0.0
 11
13.69715379797027
 21
19.70756143805591
 31
0.0
  0
LINE
  5
1F9
330
41A
100
AcDbEntity
  8
grill
100
AcDbLine
 10
0.0000000000000005
 20
8.1317279836453
 30
0.0
 11
2.47487373415292
 21
10.60660171779822
 31
0.0
  0
LINE
  5
1F8
330
41A
100
AcDbEntity
  8
grill
100
AcDbLine
 10
-3.535533905932737
 20
4.596194077712565
 30
0.0
 11
-1.060660171779819
 21
7.071067811865482
 31
0.0
  0
LINE
  5
1B6
330
41A
100
AcDbEntity
  8
grill
100
AcDbLine
 10
-7.071067811865474
 20
1.060660171779828
 30
0.0
 11
-4.596194077712558
 21
3.535533905932744
 31
0.0
  0
LINE
  5
1A6
330
41A
100
AcDbEntity
  8
grill
100
AcDbLine
 10
-14.14213562373095
 20
-6.010407640085651
 30
0.0
 11
-11.66726188957804
 21
-3.535533905932733
 31
0.0
  0
LINE
  5
1AA
330
41A
100
AcDbEntity
  8
grill
100
AcDbLine
 10
-10.60660171779821
 20
-2.474873734152913
 30
0.0
 11
-8.131727983645296
 21
0.0000000000000046
 31
0.0
  0
LINE
  5
196
330
41A
100
AcDbEntity
  8
grill
100
AcDbLine
 10
-20.54217274105407
 20
-12.41044475740877
 30
0.0
 11
-18.7383297014435
 21
-10.60660171779821
 31
0.0
  0
LINE
  5
19A
330
41A
100
AcDbEntity
  8
grill
100
AcDbLine
 10
-17.67766952966368
 20
-9.545941546018392
 30
0.0
 11
-15.20279579551077
 21
-7.071067811865471
 31
0.0
  0
LINE
  5
170
330
41A
100
AcDbEntity
  8
grill
100
AcDbLine
 10
3.53553390593274
 20
11.66726188957804
 30
0.0
 11
6.010407640085658
 21
14.14213562373096
 31
0.0
  0
LINE
  5
166
330
41A
100
AcDbEntity
  8
grill
100
AcDbLine
 10
7.071067811865479
 20
15.20279579551078
 30
0.0
 11
9.54594154601839
 21
17.67766952966369
 31
0.0
  0
LINE
  5
298
330
41A
100
AcDbEntity
  8
grill
100
AcDbLine
 10
10.60660171779822
 20
18.73832970144352
 30
0.0
 11
12.41044475740877
 21
20.54217274105407
 31
0.0
  0
LINE
  5
1E3
330
41A
100
AcDbEntity
  8
grill
100
AcDbLine
 10
-22.20019972184248
 20
-9.11872426989134
 30
0.0
 11
-21.21320343559643
 21
-8.131727983645288
 31
0.0
  0
LINE
  5
1D3
330
41A
100
AcDbEntity
  8
grill
100
AcDbLine
 10
-16.61700935788387
 20
-3.535533905932736
 30
0.0
 11
-14.14213562373095
 21
-1.060660171779814
 31
0.0
  0
LINE
  5
1DB
330
41A
100
AcDbEntity
  8
grill
100
AcDbLine
 10
-20.1525432638166
 20
-7.071067811865467
 30
0.0
 11
-17.67766952966369
 21
-4.596194077712552
 31
0.0
  0
LINE
  5
1C7
330
41A
100
AcDbEntity
  8
grill
100
AcDbLine
 10
-9.54594154601839
 20
3.535533905932744
 30
0.0
 11
-7.071067811865476
 21
6.010407640085657
 31
0.0
  0
LINE
  5
1CF
330
41A
100
AcDbEntity
  8
grill
100
AcDbLine
 10
-13.08147545195113
 20
0.0000000000000074
 30
0.0
 11
-10.60660171779821
 21
2.474873734152922
 31
0.0
  0
LINE
  5
187
330
41A
100
AcDbEntity
  8
grill
100
AcDbLine
 10
4.596194077712558
 20
17.6776695296637
 30
0.0
 11
7.071067811865481
 21
20.1525432638166
 31
0.0
  0
LINE
  5
17F
330
41A
100
AcDbEntity
  8
grill
100
AcDbLine
 10
1.060660171779821
 20
14.14213562373096
 30
0.0
 11
3.535533905932737
 21
16.61700935788387
 31
0.0
  0
LINE
  5
296
330
41A
100
AcDbEntity
  8
grill
100
AcDbLine
 10
8.131727983645298
 20
21.21320343559643
 30
0.0
 11
9.11872426989134
 21
22.20019972184248
 31
0.0
  0
LINE
  5
201
330
41A
100
AcDbEntity
  8
grill
100
AcDbLine
 10
-2.474873734152918
 20
10.60660171779822
 30
0.0
 11
0.0000000000000037
 21
13.08147545195114
 31
0.0
  0
LINE
  5
200
330
41A
100
AcDbEntity
  8
grill
100
AcDbLine
 10
-6.010407640085652
 20
7.071067811865481
 30
0.0
 11
-3.535533905932737
 21
9.545941546018396
 31
0.0
  0
LINE
  5
1E2
330
41A
100
AcDbEntity
  8
grill
100
AcDbLine
 10
-22.77435904579765
 20
-7.571563250286874
 30
0.0
 11
-22.27386360737624
 21
-7.071067811865476
 31
0.0
  0
LINE
  5
1D7
330
41A
100
AcDbEntity
  8
grill
100
AcDbLine
 10
-17.67766952966369
 20
-2.474873734152911
 30
0.0
 11
-15.20279579551077
 21
0.0000000000000086
 31
0.0
  0
LINE
  5
1DF
330
41A
100
AcDbEntity
  8
grill
100
AcDbLine
 10
-21.21320343559642
 20
-6.010407640085647
 30
0.0
 11
-18.73832970144351
 21
-3.535533905932736
 31
0.0
  0
LINE
  5
1C5
330
41A
100
AcDbEntity
  8
grill
100
AcDbLine
 10
-10.60660171779821
 20
4.596194077712566
 30
0.0
 11
-8.131727983645295
 21
7.071067811865483
 31
0.0
  0
LINE
  5
1CB
330
41A
100
AcDbEntity
  8
grill
100
AcDbLine
 10
-14.14213562373095
 20
1.06066017177983
 30
0.0
 11
-11.66726188957803
 21
3.535533905932741
 31
0.0
  0
LINE
  5
181
330
41A
100
AcDbEntity
  8
grill
100
AcDbLine
 10
3.53553390593274
 20
18.73832970144352
 30
0.0
 11
6.010407640085655
 21
21.21320343559643
 31
0.0
  0
LINE
  5
17B
330
41A
100
AcDbEntity
  8
grill
100
AcDbLine
 10
0.0000000000000009
 20
15.20279579551078
 30
0.0
 11
2.474873734152915
 21
17.6776695296637
 31
0.0
  0
LINE
  5
293
330
41A
100
AcDbEntity
  8
grill
100
AcDbLine
 10
7.071067811865473
 20
22.27386360737625
 30
0.0
 11
7.571563250286876
 21
22.77435904579765
 31
0.0
  0
LINE
  5
207
330
41A
100
AcDbEntity
  8
grill
100
AcDbLine
 10
-3.535533905932735
 20
11.66726188957804
 30
0.0
 11
-1.060660171779819
 21
14.14213562373096
 31
0.0
  0
LINE
  5
206
330
41A
100
AcDbEntity
  8
grill
100
AcDbLine
 10
-7.071067811865473
 20
8.131727983645302
 30
0.0
 11
-4.59619407771256
 21
10.60660171779822
 31
0.0
  0
LINE
  5
1F3
330
41A
100
AcDbEntity
  8
grill
100
AcDbLine
 10
-23.94196011291103
 20
-1.668096505534786
 30
0.0
 11
-22.27386360737625
 21
0.0000000000000027
 31
0.0
  0
LINE
  5
28C
330
41A
100
AcDbEntity
  8
grill
100
AcDbLine
 10
0.0000000000000014
 20
22.27386360737626
 30
0.0
 11
1.668096505534774
 21
23.94196011291103
 31
0.0
  0
LINE
  5
277
330
41A
100
AcDbEntity
  8
grill
100
AcDbLine
 10
-7.071067811865476
 20
15.20279579551078
 30
0.0
 11
-4.59619407771256
 21
17.67766952966369
 31
0.0
  0
LINE
  5
27F
330
41A
100
AcDbEntity
  8
grill
100
AcDbLine
 10
-3.535533905932739
 20
18.73832970144352
 30
0.0
 11
-1.060660171779819
 21
21.21320343559643
 31
0.0
  0
LINE
  5
227
330
41A
100
AcDbEntity
  8
grill
100
AcDbLine
 10
-17.67766952966369
 20
4.596194077712566
 30
0.0
 11
-15.20279579551077
 21
7.071067811865484
 31
0.0
  0
LINE
  5
226
330
41A
100
AcDbEntity
  8
grill
100
AcDbLine
 10
-21.21320343559643
 20
1.060660171779828
 30
0.0
 11
-18.73832970144351
 21
3.535533905932741
 31
0.0
  0
LINE
  5
217
330
41A
100
AcDbEntity
  8
grill
100
AcDbLine
 10
-10.60660171779821
 20
11.66726188957804
 30
0.0
 11
-8.131727983645293
 21
14.14213562373096
 31
0.0
  0
LINE
  5
21F
330
41A
100
AcDbEntity
  8
grill
100
AcDbLine
 10
-14.14213562373095
 20
8.131727983645307
 30
0.0
 11
-11.66726188957803
 21
10.60660171779822
 31
0.0
  0
LINE
  5
29F
330
41A
100
AcDbEntity
  8
grill
100
AcDbLine
 10
-23.68807716974934
 20
-3.53553390593273
 30
0.0
 11
-21.21320343559643
 21
-1.060660171779813
 31
0.0
  0
LINE
  5
29D
330
41A
100
AcDbEntity
  8
grill
100
AcDbLine
 10
1.060660171779827
 20
21.21320343559643
 30
0.0
 11
3.535533905932742
 21
23.68807716974935
 31
0.0
  0
LINE
  5
287
330
41A
100
AcDbEntity
  8
grill
100
AcDbLine
 10
-2.474873734152913
 20
17.67766952966369
 30
0.0
 11
0.0000000000000012
 21
20.15254326381661
 31
0.0
  0
LINE
  5
27B
330
41A
100
AcDbEntity
  8
grill
100
AcDbLine
 10
-6.010407640085655
 20
14.14213562373095
 30
0.0
 11
-3.535533905932739
 21
16.61700935788387
 31
0.0
  0
LINE
  5
221
330
41A
100
AcDbEntity
  8
grill
100
AcDbLine
 10
-13.08147545195113
 20
7.071067811865481
 30
0.0
 11
-10.60660171779821
 21
9.545941546018396
 31
0.0
  0
LINE
  5
22B
330
41A
100
AcDbEntity
  8
grill
100
AcDbLine
 10
-16.61700935788387
 20
3.535533905932741
 30
0.0
 11
-14.14213562373095
 21
6.010407640085663
 31
0.0
  0
LINE
  5
22A
330
41A
100
AcDbEntity
  8
grill
100
AcDbLine
 10
-20.1525432638166
 20
0.0000000000000114
 30
0.0
 11
-17.67766952966369
 21
2.474873734152915
 31
0.0
  0
LINE
  5
21B
330
41A
100
AcDbEntity
  8
grill
100
AcDbLine
 10
-9.54594154601839
 20
10.60660171779822
 30
0.0
 11
-7.071067811865474
 21
13.08147545195114
 31
0.0
  0
LINE
  5
270
330
41A
100
AcDbEntity
  8
grill
100
AcDbLine
 10
-7.07106781186547
 20
22.27386360737625
 30
0.0
 11
-6.14493675921559
 21
23.19999466002614
 31
0.0
  0
LINE
  5
267
330
41A
100
AcDbEntity
  8
grill
100
AcDbLine
 10
-10.60660171779821
 20
18.73832970144352
 30
0.0
 11
-8.131727983645291
 21
21.21320343559643
 31
0.0
  0
LINE
  5
254
330
41A
100
AcDbEntity
  8
grill
100
AcDbLine
 10
-14.14213562373095
 20
15.20279579551078
 30
0.0
 11
-11.66726188957804
 21
17.67766952966369
 31
0.0
  0
LINE
  5
24A
330
41A
100
AcDbEntity
  8
grill
100
AcDbLine
 10
-17.67766952966369
 20
11.66726188957804
 30
0.0
 11
-15.20279579551077
 21
14.14213562373096
 31
0.0
  0
LINE
  5
232
330
41A
100
AcDbEntity
  8
grill
100
AcDbLine
 10
-23.19999466002613
 20
6.144936759215604
 30
0.0
 11
-22.27386360737625
 21
7.071067811865483
 31
0.0
  0
LINE
  5
23A
330
41A
100
AcDbEntity
  8
grill
100
AcDbLine
 10
-21.21320343559643
 20
8.131727983645305
 30
0.0
 11
-18.73832970144351
 21
10.60660171779822
 31
0.0
  0
LINE
  5
275
330
41A
100
AcDbEntity
  8
grill
100
AcDbLine
 10
-6.010407640085652
 20
21.21320343559643
 30
0.0
 11
-3.476779637528799
 21
23.74683143815328
 31
0.0
  0
LINE
  5
261
330
41A
100
AcDbEntity
  8
grill
100
AcDbLine
 10
-23.68807716974934
 20
3.535533905932748
 30
0.0
 11
-21.21320343559643
 21
6.010407640085655
 31
0.0
  0
LINE
  5
26D
330
41A
100
AcDbEntity
  8
grill
100
AcDbLine
 10
-9.54594154601839
 20
17.67766952966369
 30
0.0
 11
-7.071067811865476
 21
20.15254326381661
 31
0.0
  0
LINE
  5
258
330
41A
100
AcDbEntity
  8
grill
100
AcDbLine
 10
-13.08147545195113
 20
14.14213562373095
 30
0.0
 11
-10.60660171779821
 21
16.61700935788388
 31
0.0
  0
LINE
  5
240
330
41A
100
AcDbEntity
  8
grill
100
AcDbLine
 10
-20.1525432638166
 20
7.071067811865481
 30
0.0
 11
-17.67766952966369
 21
9.5459415460184
 31
0.0
  0
LINE
  5
24E
330
41A
100
AcDbEntity
  8
grill
100
AcDbLine
 10
-16.61700935788387
 20
10.60660171779822
 30
0.0
 11
-14.14213562373095
 21
13.08147545195113
 31
0.0
  0
LINE
  5
2FA
330
41A
100
AcDbEntity
  8
grill
100
AcDbLine
 10
14.14213562373096
 20
8.13172798364529
 30
0.0
 11
16.61700935788387
 21
10.60660171779822
 31
0.0
  0
LINE
  5
2FE
330
41A
100
AcDbEntity
  8
grill
100
AcDbLine
 10
10.60660171779822
 20
4.596194077712562
 30
0.0
 11
13.08147545195113
 21
7.071067811865476
 31
0.0
  0
LINE
  5
2D7
330
41A
100
AcDbEntity
  8
grill
100
AcDbLine
 10
17.67766952966369
 20
11.66726188957803
 30
0.0
 11
19.70756143805591
 21
13.69715379797026
 31
0.0
  0
LINE
  5
2C4
330
41A
100
AcDbEntity
  8
grill
100
AcDbLine
 10
-10.60660171779822
 20
-16.61700935788385
 30
0.0
 11
-8.131727983645293
 21
-14.14213562373095
 31
0.0
  0
LINE
  5
2CB
330
41A
100
AcDbEntity
  8
grill
100
AcDbLine
 10
-13.69715379797027
 20
-19.70756143805591
 30
0.0
 11
-11.66726188957804
 21
-17.67766952966368
 31
0.0
  0
LINE
  5
2B4
330
41A
100
AcDbEntity
  8
grill
100
AcDbLine
 10
-3.53553390593274
 20
-9.545941546018389
 30
0.0
 11
-1.060660171779821
 21
-7.07106781186547
 31
0.0
  0
LINE
  5
2BC
330
41A
100
AcDbEntity
  8
grill
100
AcDbLine
 10
-7.071067811865491
 20
-13.08147545195112
 30
0.0
 11
-4.596194077712565
 21
-10.60660171779821
 31
0.0
  0
LINE
  5
2AC
330
41A
100
AcDbEntity
  8
grill
100
AcDbLine
 10
-0.0000000000000011
 20
-6.010407640085649
 30
0.0
 11
2.474873734152911
 21
-3.535533905932736
 31
0.0
  0
LINE
  5
312
330
41A
100
AcDbEntity
  8
grill
100
AcDbLine
 10
7.071067811865476
 20
1.060660171779825
 30
0.0
 11
9.545941546018396
 21
3.535533905932737
 31
0.0
  0
LINE
  5
311
330
41A
100
AcDbEntity
  8
grill
100
AcDbLine
 10
3.535533905932736
 20
-2.474873734152913
 30
0.0
 11
6.010407640085654
 21
0.0000000000000039
 31
0.0
  0
LINE
  5
2F4
330
41A
100
AcDbEntity
  8
grill
100
AcDbLine
 10
15.20279579551077
 20
7.071067811865478
 30
0.0
 11
17.67766952966369
 21
9.545941546018394
 31
0.0
  0
LINE
  5
2DB
330
41A
100
AcDbEntity
  8
grill
100
AcDbLine
 10
18.73832970144351
 20
10.60660171779822
 30
0.0
 11
20.54217274105408
 21
12.41044475740876
 31
0.0
  0
LINE
  5
2C0
330
41A
100
AcDbEntity
  8
grill
100
AcDbLine
 10
-6.010407640085655
 20
-14.14213562373094
 30
0.0
 11
-3.535533905932734
 21
-11.66726188957803
 31
0.0
  0
LINE
  5
2C8
330
41A
100
AcDbEntity
  8
grill
100
AcDbLine
 10
-9.5459415460184
 20
-17.67766952966368
 30
0.0
 11
-7.071067811865469
 21
-15.20279579551077
 31
0.0
  0
LINE
  5
2CC
330
41A
100
AcDbEntity
  8
grill
100
AcDbLine
 10
-12.41044475740879
 20
-20.54217274105406
 30
0.0
 11
-10.60660171779822
 21
-18.7383297014435
 31
0.0
  0
LINE
  5
2B0
330
41A
100
AcDbEntity
  8
grill
100
AcDbLine
 10
1.060660171779819
 20
-7.071067811865471
 30
0.0
 11
3.53553390593274
 21
-4.596194077712552
 31
0.0
  0
LINE
  5
2B8
330
41A
100
AcDbEntity
  8
grill
100
AcDbLine
 10
-2.47487373415292
 20
-10.6066017177982
 30
0.0
 11
-0.0000000000000015
 21
-8.131727983645291
 31
0.0
  0
LINE
  5
316
330
41A
100
AcDbEntity
  8
grill
100
AcDbLine
 10
8.131727983645296
 20
0.0000000000000052
 30
0.0
 11
10.60660171779822
 21
2.474873734152918
 31
0.0
  0
LINE
  5
315
330
41A
100
AcDbEntity
  8
grill
100
AcDbLine
 10
4.596194077712561
 20
-3.535533905932731
 30
0.0
 11
7.071067811865475
 21
-1.060660171779816
 31
0.0
  0
LINE
  5
302
330
41A
100
AcDbEntity
  8
grill
100
AcDbLine
 10
11.66726188957804
 20
3.535533905932743
 30
0.0
 11
14.14213562373095
 21
6.010407640085652
 31
0.0
  0
LINE
  5
2E2
330
41A
100
AcDbEntity
  8
grill
100
AcDbLine
 10
21.21320343559643
 20
8.131727983645298
 30
0.0
 11
22.20019972184247
 21
9.118724269891343
 31
0.0
  0
LINE
  5
2EE
330
41A
100
AcDbEntity
  8
grill
100
AcDbLine
 10
17.67766952966369
 20
4.596194077712552
 30
0.0
 11
20.1525432638166
 21
7.071067811865464
 31
0.0
  0
LINE
  5
3D3
330
41A
100
AcDbEntity
  8
grill
100
AcDbLine
 10
-0.0000000000000024
 20
-13.08147545195112
 30
0.0
 11
2.474873734152907
 21
-10.60660171779821
 31
0.0
  0
LINE
  5
3D1
330
41A
100
AcDbEntity
  8
grill
100
AcDbLine
 10
3.535533905932735
 20
-9.545941546018389
 30
0.0
 11
6.010407640085654
 21
-7.071067811865471
 31
0.0
  0
LINE
  5
3D7
330
41A
100
AcDbEntity
  8
grill
100
AcDbLine
 10
-3.53553390593274
 20
-16.61700935788386
 30
0.0
 11
-1.060660171779831
 21
-14.14213562373094
 31
0.0
  0
LINE
  5
3DB
330
41A
100
AcDbEntity
  8
grill
100
AcDbLine
 10
-7.071067811865491
 20
-20.1525432638166
 30
0.0
 11
-4.596194077712573
 21
-17.67766952966368
 31
0.0
  0
LINE
  5
3DA
330
41A
100
AcDbEntity
  8
grill
100
AcDbLine
 10
-9.118724269891377
 20
-22.20019972184246
 30
0.0
 11
-8.131727983645304
 21
-21.21320343559642
 31
0.0
  0
LINE
  5
3CB
330
41A
100
AcDbEntity
  8
grill
100
AcDbLine
 10
7.071067811865479
 20
-6.010407640085643
 30
0.0
 11
9.545941546018392
 21
-3.535533905932732
 31
0.0
  0
LINE
  5
318
330
41A
100
AcDbEntity
  8
grill
100
AcDbLine
 10
10.60660171779821
 20
-2.474873734152912
 30
0.0
 11
13.08147545195113
 21
-0.0000000000000032
 31
0.0
  0
LINE
  5
304
330
41A
100
AcDbEntity
  8
grill
100
AcDbLine
 10
14.14213562373095
 20
1.060660171779825
 30
0.0
 11
16.61700935788387
 21
3.535533905932735
 31
0.0
  0
LINE
  5
2F2
330
41A
100
AcDbEntity
  8
grill
100
AcDbLine
 10
18.73832970144351
 20
3.535533905932734
 30
0.0
 11
21.21320343559643
 21
6.010407640085647
 31
0.0
  0
LINE
  5
3D5
330
41A
100
AcDbEntity
  8
grill
100
AcDbLine
 10
1.060660171779813
 20
-14.14213562373094
 30
0.0
 11
3.535533905932732
 21
-11.66726188957803
 31
0.0
  0
LINE
  5
3D9
330
41A
100
AcDbEntity
  8
grill
100
AcDbLine
 10
-2.474873734152932
 20
-17.67766952966368
 30
0.0
 11
-0.0000000000000028
 21
-15.20279579551077
 31
0.0
  0
LINE
  5
3DE
330
41A
100
AcDbEntity
  8
grill
100
AcDbLine
 10
-7.571563250286889
 20
-22.77435904579764
 30
0.0
 11
-7.071067811865483
 21
-22.27386360737624
 31
0.0
  0
LINE
  5
3DD
330
41A
100
AcDbEntity
  8
grill
100
AcDbLine
 10
-6.010407640085656
 20
-21.21320343559642
 30
0.0
 11
-3.535533905932741
 21
-18.73832970144351
 31
0.0
  0
LINE
  5
3CF
330
41A
100
AcDbEntity
  8
grill
100
AcDbLine
 10
4.59619407771256
 20
-10.60660171779821
 30
0.0
 11
7.071067811865476
 21
-8.13172798364529
 31
0.0
  0
LINE
  5
3CD
330
41A
100
AcDbEntity
  8
grill
100
AcDbLine
 10
8.131727983645295
 20
-7.071067811865473
 30
0.0
 11
10.60660171779821
 21
-4.596194077712556
 31
0.0
  0
LINE
  5
31E
330
41A
100
AcDbEntity
  8
grill
100
AcDbLine
 10
11.66726188957804
 20
-3.535533905932727
 30
0.0
 11
14.14213562373095
 21
-1.060660171779819
 31
0.0
  0
LINE
  5
30A
330
41A
100
AcDbEntity
  8
grill
100
AcDbLine
 10
15.20279579551077
 20
-0.0000000000000037
 30
0.0
 11
17.67766952966369
 21
2.474873734152909
 31
0.0
  0
LINE
  5
30D
330
41A
100
AcDbEntity
  8
grill
100
AcDbLine
 10
22.27386360737624
 20
7.071067811865473
 30
0.0
 11
22.77435904579764
 21
7.571563250286877
 31
0.0
  0
LINE
  5
3E1
330
41A
100
AcDbEntity
  8
grill
100
AcDbLine
 10
-3.535533905932737
 20
-23.68807716974934
 30
0.0
 11
-1.060660171779819
 21
-21.21320343559642
 31
0.0
  0
LINE
  5
3A0
330
41A
100
AcDbEntity
  8
grill
100
AcDbLine
 10
-0.0000000000000037
 20
-20.1525432638166
 30
0.0
 11
2.47487373415291
 21
-17.67766952966369
 31
0.0
  0
LINE
  5
3A6
330
41A
100
AcDbEntity
  8
grill
100
AcDbLine
 10
3.535533905932735
 20
-16.61700935788386
 30
0.0
 11
6.010407640085649
 21
-14.14213562373095
 31
0.0
  0
LINE
  5
3AF
330
41A
100
AcDbEntity
  8
grill
100
AcDbLine
 10
10.60660171779821
 20
-9.545941546018385
 30
0.0
 11
13.08147545195112
 21
-7.071067811865479
 31
0.0
  0
LINE
  5
3AE
330
41A
100
AcDbEntity
  8
grill
100
AcDbLine
 10
7.071067811865473
 20
-13.08147545195112
 30
0.0
 11
9.545941546018389
 21
-10.60660171779821
 31
0.0
  0
LINE
  5
331
330
41A
100
AcDbEntity
  8
grill
100
AcDbLine
 10
17.67766952966369
 20
-2.474873734152917
 30
0.0
 11
20.1525432638166
 21
-0.0000000000000049
 31
0.0
  0
LINE
  5
33F
330
41A
100
AcDbEntity
  8
grill
100
AcDbLine
 10
21.21320343559642
 20
1.060660171779829
 30
0.0
 11
23.68807716974935
 21
3.535533905932728
 31
0.0
  0
LINE
  5
329
330
41A
100
AcDbEntity
  8
grill
100
AcDbLine
 10
14.14213562373095
 20
-6.010407640085656
 30
0.0
 11
16.61700935788387
 21
-3.535533905932743
 31
0.0
  0
LINE
  5
3B3
330
41A
100
AcDbEntity
  8
grill
100
AcDbLine
 10
11.66726188957803
 20
-10.60660171779821
 30
0.0
 11
14.14213562373094
 21
-8.131727983645305
 31
0.0
  0
LINE
  5
3B2
330
41A
100
AcDbEntity
  8
grill
100
AcDbLine
 10
8.1317279836453
 20
-14.14213562373095
 30
0.0
 11
10.60660171779821
 21
-11.66726188957803
 31
0.0
  0
LINE
  5
3AA
330
41A
100
AcDbEntity
  8
grill
100
AcDbLine
 10
4.596194077712551
 20
-17.67766952966369
 30
0.0
 11
7.071067811865478
 21
-15.20279579551077
 31
0.0
  0
LINE
  5
395
330
41A
100
AcDbEntity
  8
grill
100
AcDbLine
 10
1.060660171779811
 20
-21.21320343559642
 30
0.0
 11
3.535533905932734
 21
-18.7383297014435
 31
0.0
  0
LINE
  5
394
330
41A
100
AcDbEntity
  8
grill
100
AcDbLine
 10
-1.668096505534793
 20
-23.94196011291103
 30
0.0
 11
-0.0000000000000041
 21
-22.27386360737624
 31
0.0
  0
LINE
  5
335
330
41A
100
AcDbEntity
  8
grill
100
AcDbLine
 10
18.73832970144351
 20
-3.535533905932743
 30
0.0
 11
21.21320343559643
 21
-1.060660171779821
 31
0.0
  0
LINE
  5
33D
330
41A
100
AcDbEntity
  8
grill
100
AcDbLine
 10
22.27386360737625
 20
-0.0000000000000055
 30
0.0
 11
23.94196011291103
 21
1.668096505534761
 31
0.0
  0
LINE
  5
32D
330
41A
100
AcDbEntity
  8
grill
100
AcDbLine
 10
15.20279579551076
 20
-7.071067811865484
 30
0.0
 11
17.67766952966368
 21
-4.596194077712558
 31
0.0
  0
LINE
  5
3E3
330
41A
100
AcDbEntity
  8
grill
100
AcDbLine
 10
3.535533905932728
 20
-23.68807716974934
 30
0.0
 11
6.010407640085647
 21
-21.21320343559643
 31
0.0
  0
LINE
  5
381
330
41A
100
AcDbEntity
  8
grill
100
AcDbLine
 10
10.6066017177982
 20
-16.61700935788387
 30
0.0
 11
13.08147545195113
 21
-14.14213562373095
 31
0.0
  0
LINE
  5
38B
330
41A
100
AcDbEntity
  8
grill
100
AcDbLine
 10
14.14213562373095
 20
-13.08147545195113
 30
0.0
 11
16.61700935788387
 21
-10.60660171779821
 31
0.0
  0
LINE
  5
38C
330
41A
100
AcDbEntity
  8
grill
100
AcDbLine
 10
17.67766952966368
 20
-9.545941546018401
 30
0.0
 11
20.1525432638166
 21
-7.071067811865474
 31
0.0
  0
LINE
  5
37D
330
41A
100
AcDbEntity
  8
grill
100
AcDbLine
 10
7.071067811865466
 20
-20.1525432638166
 30
0.0
 11
9.545941546018392
 21
-17.67766952966368
 31
0.0
  0
LINE
  5
352
330
41A
100
AcDbEntity
  8
grill
100
AcDbLine
 10
21.21320343559642
 20
-6.010407640085657
 30
0.0
 11
23.68807716974934
 21
-3.53553390593274
 31
0.0
  0
LINE
  5
383
330
41A
100
AcDbEntity
  8
grill
100
AcDbLine
 10
11.66726188957803
 20
-17.67766952966369
 30
0.0
 11
14.14213562373095
 21
-15.20279579551077
 31
0.0
  0
LINE
  5
38E
330
41A
100
AcDbEntity
  8
grill
100
AcDbLine
 10
18.73832970144351
 20
-10.60660171779821
 30
0.0
 11
21.21320343559642
 21
-8.131727983645305
 31
0.0
  0
LINE
  5
38D
330
41A
100
AcDbEntity
  8
grill
100
AcDbLine
 10
15.20279579551076
 20
-14.14213562373095
 30
0.0
 11
17.67766952966368
 21
-11.66726188957804
 31
0.0
  0
LINE
  5
379
330
41A
100
AcDbEntity
  8
grill
100
AcDbLine
 10
8.131727983645277
 20
-21.21320343559643
 30
0.0
 11
10.60660171779822
 21
-18.7383297014435
 31
0.0
  0
LINE
  5
36D
330
41A
100
AcDbEntity
  8
grill
100
AcDbLine
 10
6.144936759215596
 20
-23.19999466002612
 30
0.0
 11
7.071067811865475
 21
-22.27386360737624
 31
0.0
  0
LINE
  5
34A
330
41A
100
AcDbEntity
  8
grill
100
AcDbLine
 10
22.27386360737624
 20
-7.071067811865484
 30
0.0
 11
23.19999466002612
 21
-6.144936759215604
 31
0.0
  0
LINE
  5
1FA
330
41A
100
AcDbEntity
  8
grill
100
AcDbLine
 10
3.535533905932738
 20
4.596194077712564
 30
0.0
 11
1.060660171779822
 21
7.071067811865479
 31
0.0
  0
LINE
  5
260
330
41A
100
AcDbEntity
  8
grill
100
AcDbLine
 10
-10.60660171779821
 20
18.73832970144352
 30
0.0
 11
-12.41044475740876
 21
20.54217274105408
 31
0.0
  0
LINE
  5
256
330
41A
100
AcDbEntity
  8
grill
100
AcDbLine
 10
-7.071067811865476
 20
15.20279579551078
 30
0.0
 11
-9.545941546018392
 21
17.6776695296637
 31
0.0
  0
LINE
  5
204
330
41A
100
AcDbEntity
  8
grill
100
AcDbLine
 10
-0.0000000000000031
 20
8.131727983645304
 30
0.0
 11
-2.474873734152919
 21
10.60660171779822
 31
0.0
  0
LINE
  5
20E
330
41A
100
AcDbEntity
  8
grill
100
AcDbLine
 10
-3.535533905932735
 20
11.66726188957804
 30
0.0
 11
-6.010407640085655
 21
14.14213562373096
 31
0.0
  0
LINE
  5
38A
330
41A
100
AcDbEntity
  8
grill
100
AcDbLine
 10
17.67766952966369
 20
-9.545941546018403
 30
0.0
 11
15.20279579551077
 21
-7.07106781186547
 31
0.0
  0
LINE
  5
389
330
41A
100
AcDbEntity
  8
grill
100
AcDbLine
 10
20.66405666452048
 20
-12.53232868087518
 30
0.0
 11
18.7383297014435
 21
-10.60660171779821
 31
0.0
  0
LINE
  5
324
330
41A
100
AcDbEntity
  8
grill
100
AcDbLine
 10
14.14213562373095
 20
-6.010407640085657
 30
0.0
 11
11.66726188957803
 21
-3.535533905932736
 31
0.0
  0
LINE
  5
314
330
41A
100
AcDbEntity
  8
grill
100
AcDbLine
 10
7.071067811865476
 20
1.060660171779825
 30
0.0
 11
4.596194077712561
 21
3.53553390593274
 31
0.0
  0
LINE
  5
31C
330
41A
100
AcDbEntity
  8
grill
100
AcDbLine
 10
10.60660171779821
 20
-2.474873734152912
 30
0.0
 11
8.131727983645296
 21
0.0000000000000052
 31
0.0
  0
LINE
  5
1FE
330
41A
100
AcDbEntity
  8
grill
100
AcDbLine
 10
2.474873734152916
 20
3.535533905932743
 30
0.0
 11
0.0000000000000004
 21
6.010407640085659
 31
0.0
  0
LINE
  5
252
330
41A
100
AcDbEntity
  8
grill
100
AcDbLine
 10
-8.131727983645293
 20
14.14213562373096
 30
0.0
 11
-10.60660171779821
 21
16.61700935788388
 31
0.0
  0
LINE
  5
25F
330
41A
100
AcDbEntity
  8
grill
100
AcDbLine
 10
-11.66726188957804
 20
17.6776695296637
 30
0.0
 11
-13.69715379797026
 21
19.70756143805592
 31
0.0
  0
LINE
  5
212
330
41A
100
AcDbEntity
  8
grill
100
AcDbLine
 10
-4.59619407771256
 20
10.60660171779822
 30
0.0
 11
-7.071067811865473
 21
13.08147545195114
 31
0.0
  0
LINE
  5
202
330
41A
100
AcDbEntity
  8
grill
100
AcDbLine
 10
-1.060660171779821
 20
7.071067811865479
 30
0.0
 11
-3.535533905932738
 21
9.545941546018398
 31
0.0
  0
LINE
  5
387
330
41A
100
AcDbEntity
  8
grill
100
AcDbLine
 10
19.70756143805592
 20
-13.69715379797025
 30
0.0
 11
17.67766952966368
 21
-11.66726188957804
 31
0.0
  0
LINE
  5
388
330
41A
100
AcDbEntity
  8
grill
100
AcDbLine
 10
16.61700935788387
 20
-10.60660171779821
 30
0.0
 11
14.14213562373095
 21
-8.131727983645291
 31
0.0
  0
LINE
  5
322
330
41A
100
AcDbEntity
  8
grill
100
AcDbLine
 10
13.08147545195112
 20
-7.071067811865479
 30
0.0
 11
10.60660171779821
 21
-4.596194077712556
 31
0.0
  0
LINE
  5
310
330
41A
100
AcDbEntity
  8
grill
100
AcDbLine
 10
6.010407640085654
 20
0.0000000000000039
 30
0.0
 11
3.53553390593274
 21
2.474873734152918
 31
0.0
  0
LINE
  5
31A
330
41A
100
AcDbEntity
  8
grill
100
AcDbLine
 10
9.545941546018392
 20
-3.535533905932732
 30
0.0
 11
7.071067811865475
 21
-1.060660171779816
 31
0.0
  0
LINE
  5
173
330
41A
100
AcDbEntity
  8
grill
100
AcDbLine
 10
3.535533905932739
 20
11.66726188957804
 30
0.0
 11
1.060660171779821
 21
14.14213562373096
 31
0.0
  0
LINE
  5
16D
330
41A
100
AcDbEntity
  8
grill
100
AcDbLine
 10
7.071067811865489
 20
8.131727983645288
 30
0.0
 11
4.59619407771256
 21
10.60660171779822
 31
0.0
  0
LINE
  5
2FC
330
41A
100
AcDbEntity
  8
grill
100
AcDbLine
 10
10.60660171779822
 20
4.596194077712562
 30
0.0
 11
8.131727983645291
 21
7.071067811865486
 31
0.0
  0
LINE
  5
273
330
41A
100
AcDbEntity
  8
grill
100
AcDbLine
 10
-7.07106781186547
 20
22.27386360737625
 30
0.0
 11
-7.571563250286875
 21
22.77435904579765
 31
0.0
  0
LINE
  5
27A
330
41A
100
AcDbEntity
  8
grill
100
AcDbLine
 10
-3.535533905932734
 20
18.73832970144352
 30
0.0
 11
-6.010407640085652
 21
21.21320343559643
 31
0.0
  0
LINE
  5
279
330
41A
100
AcDbEntity
  8
grill
100
AcDbLine
 10
0.0000000000000009
 20
15.20279579551078
 30
0.0
 11
-2.474873734152917
 21
17.6776695296637
 31
0.0
  0
LINE
  5
34B
330
41A
100
AcDbEntity
  8
grill
100
AcDbLine
 10
22.77435904579765
 20
-7.571563250286869
 30
0.0
 11
22.27386360737624
 21
-7.071067811865484
 31
0.0
  0
LINE
  5
34C
330
41A
100
AcDbEntity
  8
grill
100
AcDbLine
 10
21.21320343559643
 20
-6.010407640085658
 30
0.0
 11
18.7383297014435
 21
-3.535533905932742
 31
0.0
  0
LINE
  5
32C
330
41A
100
AcDbEntity
  8
grill
100
AcDbLine
 10
17.67766952966369
 20
-2.474873734152917
 30
0.0
 11
15.20279579551077
 21
-0.0000000000000037
 31
0.0
  0
LINE
  5
308
330
41A
100
AcDbEntity
  8
grill
100
AcDbLine
 10
14.14213562373095
 20
1.060660171779825
 30
0.0
 11
11.66726188957804
 21
3.535533905932743
 31
0.0
  0
LINE
  5
177
330
41A
100
AcDbEntity
  8
grill
100
AcDbLine
 10
2.474873734152917
 20
10.60660171779822
 30
0.0
 11
0.0000000000000008
 21
13.08147545195114
 31
0.0
  0
LINE
  5
16B
330
41A
100
AcDbEntity
  8
grill
100
AcDbLine
 10
6.010407640085659
 20
7.071067811865475
 30
0.0
 11
3.535533905932738
 21
9.545941546018396
 31
0.0
  0
LINE
  5
27E
330
41A
100
AcDbEntity
  8
grill
100
AcDbLine
 10
-4.59619407771256
 20
17.67766952966369
 30
0.0
 11
-7.07106781186547
 21
20.15254326381661
 31
0.0
  0
LINE
  5
27D
330
41A
100
AcDbEntity
  8
grill
100
AcDbLine
 10
-1.060660171779822
 20
14.14213562373096
 30
0.0
 11
-3.535533905932739
 21
16.61700935788387
 31
0.0
  0
LINE
  5
26A
330
41A
100
AcDbEntity
  8
grill
100
AcDbLine
 10
-8.131727983645296
 20
21.21320343559643
 30
0.0
 11
-9.11872426989134
 21
22.20019972184247
 31
0.0
  0
LINE
  5
353
330
41A
100
AcDbEntity
  8
grill
100
AcDbLine
 10
22.20019972184247
 20
-9.118724269891356
 30
0.0
 11
21.21320343559643
 21
-8.131727983645286
 31
0.0
  0
LINE
  5
34E
330
41A
100
AcDbEntity
  8
grill
100
AcDbLine
 10
20.1525432638166
 20
-7.071067811865475
 30
0.0
 11
17.67766952966368
 21
-4.596194077712558
 31
0.0
  0
LINE
  5
328
330
41A
100
AcDbEntity
  8
grill
100
AcDbLine
 10
16.61700935788387
 20
-3.535533905932743
 30
0.0
 11
14.14213562373095
 21
-1.060660171779819
 31
0.0
  0
LINE
  5
300
330
41A
100
AcDbEntity
  8
grill
100
AcDbLine
 10
9.545941546018394
 20
3.535533905932736
 30
0.0
 11
7.071067811865476
 21
6.010407640085657
 31
0.0
  0
LINE
  5
306
330
41A
100
AcDbEntity
  8
grill
100
AcDbLine
 10
13.08147545195113
 20
0.0000000000000084
 30
0.0
 11
10.60660171779822
 21
2.474873734152918
 31
0.0
  0
LINE
  5
17D
330
41A
100
AcDbEntity
  8
grill
100
AcDbLine
 10
7.071067811865477
 20
15.20279579551078
 30
0.0
 11
4.596194077712558
 21
17.6776695296637
 31
0.0
  0
LINE
  5
161
330
41A
100
AcDbEntity
  8
grill
100
AcDbLine
 10
10.60660171779823
 20
11.66726188957803
 30
0.0
 11
8.131727983645295
 21
14.14213562373096
 31
0.0
  0
LINE
  5
2F7
330
41A
100
AcDbEntity
  8
grill
100
AcDbLine
 10
17.67766952966369
 20
4.596194077712566
 30
0.0
 11
15.20279579551078
 21
7.071067811865466
 31
0.0
  0
LINE
  5
2F8
330
41A
100
AcDbEntity
  8
grill
100
AcDbLine
 10
14.14213562373096
 20
8.13172798364529
 30
0.0
 11
11.66726188957803
 21
10.60660171779822
 31
0.0
  0
LINE
  5
282
330
41A
100
AcDbEntity
  8
grill
100
AcDbLine
 10
0.0000000000000014
 20
22.27386360737625
 30
0.0
 11
-1.668096505534777
 21
23.94196011291103
 31
0.0
  0
LINE
  5
281
330
41A
100
AcDbEntity
  8
grill
100
AcDbLine
 10
3.53553390593274
 20
18.73832970144352
 30
0.0
 11
1.060660171779822
 21
21.21320343559643
 31
0.0
  0
LINE
  5
340
330
41A
100
AcDbEntity
  8
grill
100
AcDbLine
 10
23.94196011291103
 20
-1.668096505534773
 30
0.0
 11
22.27386360737625
 21
-0.0000000000000055
 31
0.0
  0
LINE
  5
334
330
41A
100
AcDbEntity
  8
grill
100
AcDbLine
 10
21.21320343559642
 20
1.060660171779829
 30
0.0
 11
18.73832970144351
 21
3.535533905932734
 31
0.0
  0
LINE
  5
179
330
41A
100
AcDbEntity
  8
grill
100
AcDbLine
 10
6.010407640085651
 20
14.14213562373096
 30
0.0
 11
3.535533905932737
 21
16.61700935788387
 31
0.0
  0
LINE
  5
163
330
41A
100
AcDbEntity
  8
grill
100
AcDbLine
 10
9.545941546018405
 20
10.6066017177982
 30
0.0
 11
7.071067811865473
 21
13.08147545195114
 31
0.0
  0
LINE
  5
2F6
330
41A
100
AcDbEntity
  8
grill
100
AcDbLine
 10
13.08147545195113
 20
7.071067811865476
 30
0.0
 11
10.60660171779821
 21
9.545941546018403
 31
0.0
  0
LINE
  5
2F5
330
41A
100
AcDbEntity
  8
grill
100
AcDbLine
 10
16.61700935788387
 20
3.535533905932735
 30
0.0
 11
14.14213562373095
 21
6.010407640085651
 31
0.0
  0
LINE
  5
286
330
41A
100
AcDbEntity
  8
grill
100
AcDbLine
 10
-1.060660171779815
 20
21.21320343559643
 30
0.0
 11
-3.57908446011653
 21
23.73162772393314
 31
0.0
  0
LINE
  5
285
330
41A
100
AcDbEntity
  8
grill
100
AcDbLine
 10
2.474873734152919
 20
17.67766952966369
 30
0.0
 11
0.0000000000000012
 21
20.15254326381661
 31
0.0
  0
LINE
  5
351
330
41A
100
AcDbEntity
  8
grill
100
AcDbLine
 10
23.68807716974934
 20
-3.53553390593274
 30
0.0
 11
21.21320343559643
 21
-1.060660171779821
 31
0.0
  0
LINE
  5
330
330
41A
100
AcDbEntity
  8
grill
100
AcDbLine
 10
20.1525432638166
 20
-0.0000000000000049
 30
0.0
 11
17.67766952966369
 21
2.474873734152909
 31
0.0
  0
LINE
  5
183
330
41A
100
AcDbEntity
  8
grill
100
AcDbLine
 10
9.545941546018392
 20
17.67766952966369
 30
0.0
 11
7.071067811865481
 21
20.1525432638166
 31
0.0
  0
LINE
  5
15B
330
41A
100
AcDbEntity
  8
grill
100
AcDbLine
 10
13.08147545195117
 20
14.14213562373092
 30
0.0
 11
10.60660171779821
 21
16.61700935788387
 31
0.0
  0
LINE
  5
2EA
330
41A
100
AcDbEntity
  8
grill
100
AcDbLine
 10
20.1525432638166
 20
7.071067811865483
 30
0.0
 11
17.67766952966369
 21
9.545941546018394
 31
0.0
  0
LINE
  5
2D0
330
41A
100
AcDbEntity
  8
grill
100
AcDbLine
 10
16.61700935788387
 20
10.60660171779822
 30
0.0
 11
14.14213562373092
 21
13.08147545195117
 31
0.0
  0
LINE
  5
29C
330
41A
100
AcDbEntity
  8
grill
100
AcDbLine
 10
6.010407640085655
 20
21.21320343559643
 30
0.0
 11
3.535533905932742
 21
23.68807716974935
 31
0.0
  0
LINE
  5
33E
330
41A
100
AcDbEntity
  8
grill
100
AcDbLine
 10
23.68807716974935
 20
3.535533905932728
 30
0.0
 11
21.21320343559643
 21
6.010407640085647
 31
0.0
  0
LINE
  5
185
330
41A
100
AcDbEntity
  8
grill
100
AcDbLine
 10
10.60660171779822
 20
18.73832970144351
 30
0.0
 11
8.131727983645298
 21
21.21320343559643
 31
0.0
  0
LINE
  5
15D
330
41A
100
AcDbEntity
  8
grill
100
AcDbLine
 10
14.14213562373093
 20
15.2027957955108
 30
0.0
 11
11.66726188957803
 21
17.6776695296637
 31
0.0
  0
LINE
  5
2E0
330
41A
100
AcDbEntity
  8
grill
100
AcDbLine
 10
21.21320343559643
 20
8.131727983645296
 30
0.0
 11
18.73832970144352
 21
10.6066017177982
 31
0.0
  0
LINE
  5
2E6
330
41A
100
AcDbEntity
  8
grill
100
AcDbLine
 10
23.19999466002612
 20
6.144936759215595
 30
0.0
 11
22.27386360737625
 21
7.071067811865476
 31
0.0
  0
LINE
  5
2CE
330
41A
100
AcDbEntity
  8
grill
100
AcDbLine
 10
17.67766952966369
 20
11.66726188957803
 30
0.0
 11
15.2027957955108
 21
14.14213562373092
 31
0.0
  0
LINE
  5
291
330
41A
100
AcDbEntity
  8
grill
100
AcDbLine
 10
7.071067811865474
 20
22.27386360737626
 30
0.0
 11
6.144936759215603
 21
23.19999466002613
 31
0.0
  0
LINE
  5
1F6
330
41A
100
AcDbEntity
  8
grill
100
AcDbLine
 10
-22.27386360737625
 20
0.0000000000000126
 30
0.0
 11
-23.94196011291103
 21
1.668096505534792
 31
0.0
  0
LINE
  5
1EB
330
41A
100
AcDbEntity
  8
grill
100
AcDbLine
 10
-18.73832970144351
 20
-3.535533905932736
 30
0.0
 11
-21.21320343559643
 21
-1.060660171779813
 31
0.0
  0
LINE
  5
1D4
330
41A
100
AcDbEntity
  8
grill
100
AcDbLine
 10
-15.20279579551077
 20
-7.071067811865471
 30
0.0
 11
-17.67766952966368
 21
-4.59619407771256
 31
0.0
  0
LINE
  5
198
330
41A
100
AcDbEntity
  8
grill
100
AcDbLine
 10
-11.66726188957802
 20
-10.60660171779822
 30
0.0
 11
-14.14213562373095
 21
-8.131727983645288
 31
0.0
  0
LINE
  5
2BE
330
41A
100
AcDbEntity
  8
grill
100
AcDbLine
 10
-8.131727983645293
 20
-14.14213562373095
 30
0.0
 11
-10.60660171779822
 21
-11.66726188957802
 31
0.0
  0
LINE
  5
3BB
330
41A
100
AcDbEntity
  8
grill
100
AcDbLine
 10
-4.596194077712573
 20
-17.67766952966368
 30
0.0
 11
-7.071067811865469
 21
-15.20279579551077
 31
0.0
  0
LINE
  5
3BA
330
41A
100
AcDbEntity
  8
grill
100
AcDbLine
 10
-1.060660171779819
 20
-21.21320343559642
 30
0.0
 11
-3.535533905932741
 21
-18.73832970144351
 31
0.0
  0
LINE
  5
396
330
41A
100
AcDbEntity
  8
grill
100
AcDbLine
 10
1.668096505534784
 20
-23.94196011291102
 30
0.0
 11
-0.0000000000000041
 21
-22.27386360737624
 31
0.0
  0
LINE
  5
1F1
330
41A
100
AcDbEntity
  8
grill
100
AcDbLine
 10
-17.67766952966369
 20
-2.474873734152911
 30
0.0
 11
-20.1525432638166
 21
0.0000000000000025
 31
0.0
  0
LINE
  5
1D0
330
41A
100
AcDbEntity
  8
grill
100
AcDbLine
 10
-14.14213562373095
 20
-6.010407640085651
 30
0.0
 11
-16.61700935788387
 21
-3.535533905932736
 31
0.0
  0
LINE
  5
19C
330
41A
100
AcDbEntity
  8
grill
100
AcDbLine
 10
-10.6066017177982
 20
-9.5459415460184
 30
0.0
 11
-13.08147545195112
 21
-7.071067811865475
 31
0.0
  0
LINE
  5
2BA
330
41A
100
AcDbEntity
  8
grill
100
AcDbLine
 10
-7.07106781186549
 20
-13.08147545195112
 30
0.0
 11
-9.545941546018403
 21
-10.6066017177982
 31
0.0
  0
LINE
  5
263
330
41A
100
AcDbEntity
  8
grill
100
AcDbLine
 10
-21.21320343559643
 20
1.060660171779837
 30
0.0
 11
-23.68807716974934
 21
3.535533905932748
 31
0.0
  0
LINE
  5
3E4
330
41A
100
AcDbEntity
  8
grill
100
AcDbLine
 10
3.535533905932728
 20
-23.68807716974934
 30
0.0
 11
1.060660171779811
 21
-21.21320343559642
 31
0.0
  0
LINE
  5
3BD
330
41A
100
AcDbEntity
  8
grill
100
AcDbLine
 10
-3.535533905932741
 20
-16.61700935788386
 30
0.0
 11
-6.010407640085667
 21
-14.14213562373094
 31
0.0
  0
LINE
  5
3BC
330
41A
100
AcDbEntity
  8
grill
100
AcDbLine
 10
-0.0000000000000037
 20
-20.1525432638166
 30
0.0
 11
-2.474873734152932
 21
-17.67766952966368
 31
0.0
  0
LINE
  5
1D8
330
41A
100
AcDbEntity
  8
grill
100
AcDbLine
 10
-17.67766952966368
 20
-9.545941546018392
 30
0.0
 11
-20.1525432638166
 21
-7.071067811865467
 31
0.0
  0
LINE
  5
194
330
41A
100
AcDbEntity
  8
grill
100
AcDbLine
 10
-14.14213562373091
 20
-13.08147545195116
 30
0.0
 11
-16.61700935788386
 21
-10.60660171779821
 31
0.0
  0
LINE
  5
2C2
330
41A
100
AcDbEntity
  8
grill
100
AcDbLine
 10
-10.60660171779821
 20
-16.61700935788387
 30
0.0
 11
-13.08147545195109
 21
-14.14213562373098
 31
0.0
  0
LINE
  5
2A0
330
41A
100
AcDbEntity
  8
grill
100
AcDbLine
 10
-21.21320343559642
 20
-6.010407640085647
 30
0.0
 11
-23.68807716974934
 21
-3.53553390593273
 31
0.0
  0
LINE
  5
3E2
330
41A
100
AcDbEntity
  8
grill
100
AcDbLine
 10
-3.535533905932737
 20
-23.68807716974934
 30
0.0
 11
-6.010407640085655
 21
-21.21320343559642
 31
0.0
  0
LINE
  5
3B9
330
41A
100
AcDbEntity
  8
grill
100
AcDbLine
 10
-7.071067811865491
 20
-20.1525432638166
 30
0.0
 11
-9.5459415460184
 21
-17.67766952966368
 31
0.0
  0
LINE
  5
1E4
330
41A
100
AcDbEntity
  8
grill
100
AcDbLine
 10
-22.27386360737624
 20
-7.071067811865476
 30
0.0
 11
-23.19999466002614
 21
-6.14493675921558
 31
0.0
  0
LINE
  5
1DC
330
41A
100
AcDbEntity
  8
grill
100
AcDbLine
 10
-18.7383297014435
 20
-10.60660171779821
 30
0.0
 11
-21.21320343559643
 21
-8.131727983645288
 31
0.0
  0
LINE
  5
18C
330
41A
100
AcDbEntity
  8
grill
100
AcDbLine
 10
-15.20279579551079
 20
-14.14213562373092
 30
0.0
 11
-17.67766952966369
 21
-11.66726188957802
 31
0.0
  0
LINE
  5
2C6
330
41A
100
AcDbEntity
  8
grill
100
AcDbLine
 10
-11.66726188957804
 20
-17.67766952966368
 30
0.0
 11
-14.14213562373093
 21
-15.20279579551079
 31
0.0
  0
LINE
  5
3B7
330
41A
100
AcDbEntity
  8
grill
100
AcDbLine
 10
-8.131727983645304
 20
-21.21320343559642
 30
0.0
 11
-10.60660171779822
 21
-18.7383297014435
 31
0.0
  0
LINE
  5
3B6
330
41A
100
AcDbEntity
  8
grill
100
AcDbLine
 10
-6.144936759215584
 20
-23.19999466002613
 30
0.0
 11
-7.071067811865483
 21
-22.27386360737624
 31
0.0
  0
LWPOLYLINE
  5
3F6
330
41A
100
AcDbEntity
  8
grill
100
AcDbPolyline
 90
        4
 70
   128
 43
0.0
 10
-7.141428428542769
 20
25.00000000000001
 10
-40.0
 20
25.0
 10
-40.00000000000001
 20
-25.0
 10
-7.141428428542829
 20
-25.00000000000001
  0
LWPOLYLINE
  5
3F5
330
41A
100
AcDbEntity
  8
grill
100
AcDbPolyline
 90
        4
 70
   128
 43
0.0
 10
7.141428428542797
 20
-25.00000000000002
 10
39.99999999999999
 20
-25.00000000000003
 10
40.00000000000003
 20
24.99999999999998
 10
7.141428428542801
 20
25.00000000000001
  0
ARC
  5
3F0
330
41A
100
AcDbEntity
  8
grill
100
AcDbCircle
 10
0.0000000000000028
 20
0.0000000000000028
 30
0.0
 40
26.0
100
AcDbArc
 50
254.0576313943714
 51
285.9423686056285
  0
ARC
  5
3EF
330
41A
100
AcDbEntity
  8
grill
100
AcDbCircle
 10
0.0000000000000028
 20
0.0000000000000028
 30
0.0
 40
26.0
100
AcDbArc
 50
74.05763139437153
 51
105.9423686056284
  0
CIRCLE
  5
3F8
330
41A
100
AcDbEntity
  8
grill
100
AcDbCircle
 10
-37.00000000000001
 20
22.0
 30
0.0
 40
1.599999999999999
  0
CIRCLE
  5
3F9
330
41A
100
AcDbEntity
  8
grill
100
AcDbCircle
 10
-37.00000000000002
 20
-21.99999999999997
 30
0.0
 40
1.600000000000003
  0
CIRCLE
  5
3FA
330
41A
100
AcDbEntity
  8
grill
100
AcDbCircle
 10
36.99999999999999
 20
-22.0
 30
0.0
 40
1.599999999999999
  0
CIRCLE
  5
3FB
330
41A
100
AcDbEntity
  8
grill
100
AcDbCircle
 10
36.99999999999999
 20
22.00000000000001
 30
0.0
 40
1.600000000000003
  0
VIEWPORT
  5
4DA
330
416
100
AcDbEntity
 67
     1
  8
0
100
AcDbViewport
 10
128.5
 20
97.5
 30
0.0
 40
314.226
 41
222.18
 68
     1
 69
     1
 12
128.5
 22
97.5
 13
0.0
 23
0.0
 14
10.0
 24
10.0
 15
10.0
 25
10.0
 16
0.0
 26
0.0
 36
1.0
 17
0.0
 27
0.0
 37
0.0
 42
50.0
 43
0.0
 44
0.0
 45
222.18
 50
0.0
 51
0.0
 72
   100
 90
   557152
  1

281
     0
 71
     1
 74
     0
110
0.0
120
0.0
130
0.0
111
1.0
121
0.0
131
0.0
112
0.0
122
1.0
132
0.0
 79
     0
146
0.0
170
     0
 61
     5
292
     1
282
     1
141
0.0
142
0.0
 63
   256
361
4DB
  0
ENDSEC
  0
SECTION
  2
OBJECTS
  0
DICTIONARY
  5
408
330
0
100
AcDbDictionary
281
     1
  3
ACAD_DETAILVIEWSTYLE
350
4E3
  3
ACAD_GROUP
350
409
  3
ACAD_LAYOUT
350
415
  3
ACAD_MATERIAL
350
43E
  3
ACAD_MLEADERSTYLE
350
466
  3
ACAD_MLINESTYLE
350
412
  3
ACAD_PLOTSETTINGS
350
414
  3
ACAD_PLOTSTYLENAME
350
40A
  3
ACAD_SCALELIST
350
442
  3
ACAD_SECTIONVIEWSTYLE
350
4E4
  3
ACAD_TABLESTYLE
350
464
  3
ACAD_VISUALSTYLE
350
425
  3
ACDB_RECOMPOSE_DATA
350
4E0
  3
AcDbVariableDictionary
350
4DC
  3
QCAD_OBJECTS
350
46A
  0
SUN
  5
468
330
424
100
AcDbSun
 90
        1
290
     0
 63
     7
421
 16777215
 40
1.0
291
     1
 91
  2455826
 92
 54000000
292
     0
 70
     2
 71
   256
280
     1
  0
SUN
  5
4DB
330
4DA
100
AcDbSun
 90
        1
290
     0
 63
     7
421
 16777215
 40
1.0
291
     1
 91
  2455826
 92
 54000000
292
     0
 70
     2
 71
   256
280
     1
  0
DICTIONARY
  5
4E3
102
{ACAD_REACTORS
330
408
102
}
330
408
100
AcDbDictionary
281
     1
  0
DICTIONARY
  5
409
102
{ACAD_REACTORS
330
408
102
}
330
408
100
AcDbDictionary
281
     1
  0
DICTIONARY
  5
415
102
{ACAD_REACTORS
330
408
102
}
330
408
100
AcDbDictionary
281
     1
  3
Layout1
350
419
  3
Model
350
41D
  0
DICTIONARY
  5
43E
102
{ACAD_REACTORS
330
408
102
}
330
408
100
AcDbDictionary
281
     1
  3
ByBlock
350
440
  3
ByLayer
350
43F
  3
Global
350
441
  0
DICTIONARY
  5
466
102
{ACAD_REACTORS
330
408
102
}
330
408
100
AcDbDictionary
281
     1
  3
Standard
350
467
  0
DICTIONARY
  5
412
102
{ACAD_REACTORS
330
408
102
}
330
408
100
AcDbDictionary
281
     1
  3
Standard
350
413
  0
DICTIONARY
  5
414
102
{ACAD_REACTORS
330
408
102
}
330
408
100
AcDbDictionary
281
     1
  0
ACDBDICTIONARYWDFLT
  5
40A
102
{ACAD_REACTORS
330
408
102
}
330
408
100
AcDbDictionary
281
     1
  3
Normal
350
40B
100
AcDbDictionaryWithDefault
340
40B
  0
DICTIONARY
  5
442
102
{ACAD_REACTORS
330
408
102
}
330
408
100
AcDbDictionary
281
     1
  3
A0
350
443
  3
A1
350
444
  3
A2
350
445
  3
A3
350
446
  3
A4
350
447
  3
A5
350
448
  3
A6
350
449
  3
A7
350
44A
  3
A8
350
44B
  3
A9
350
44C
  3
B0
350
44D
  3
B1
350
44E
  3
B2
350
44F
  3
B3
350
450
  3
B4
350
451
  3
B5
350
452
  3
B6
350
453
  3
B7
350
454
  3
B8
350
455
  3
B9
350
456
  3
C0
350
457
  3
C1
350
458
  3
C2
350
459
  3
C3
350
45A
  3
C4
350
45B
  3
C5
350
45C
  3
C6
350
45D
  3
C7
350
45E
  3
C8
350
45F
  3
C9
350
460
  3
D0
350
461
  3
D1
350
462
  3
D2
350
463
  0
DICTIONARY
  5
4E4
102
{ACAD_REACTORS
330
408
102
}
330
408
100
AcDbDictionary
281
     1
  0
DICTIONARY
  5
464
102
{ACAD_REACTORS
330
408
102
}
330
408
100
AcDbDictionary
281
     1
  3
Standard
350
465
  0
DICTIONARY
  5
425
102
{ACAD_REACTORS
330
408
102
}
330
408
100
AcDbDictionary
281
     1
  3
2dWireframe
350
42A
  3
Basic
350
42D
  3
Brighten
350
431
  3
ColorChange
350
435
  3
Conceptual
350
42F
  3
Dim
350
430
  3
EdgeColorOff
350
438
  3
Facepattern
350
434
  3
Flat
350
426
  3
FlatWithEdges
350
427
  3
Gouraud
350
428
  3
GouraudWithEdges
350
429
  3
Hidden
350
42C
  3
JitterOff
350
436
  3
Linepattern
350
433
  3
OverhangOff
350
437
  3
Realistic
350
42E
  3
Shaded
350
43D
  3
Shaded with edges
350
43C
  3
Shades of Gray
350
439
  3
Sketchy
350
43A
  3
Thicken
350
432
  3
Wireframe
350
42B
  3
X-Ray
350
43B
  0
XRECORD
  5
4E0
102
{ACAD_REACTORS
330
408
102
}
330
408
100
AcDbXrecord
280
     1
 90
        1
330
465
  0
DICTIONARY
  5
4DC
102
{ACAD_REACTORS
330
408
102
}
330
408
100
AcDbDictionary
281
     1
  3
CANNOSCALE
350
4DD
  3
CMLEADERSTYLE
350
4E2
  3
CTABLESTYLE
350
4E1
  0
DICTIONARY
  5
46A
102
{ACAD_REACTORS
330
408
102
}
330
408
100
AcDbDictionary
281
     1
  3
ColorSettings/BackgroundColor
350
46C
  3
ColorSettings/ColorMode
350
46D
  3
Grid/DisplayGrid00
350
46E
  3
Grid/DisplayGrid01
350
46F
  3
Grid/DisplayGrid02
350
470
  3
Grid/DisplayGrid03
350
471
  3
Grid/GridSpacingX00
350
472
  3
Grid/GridSpacingX01
350
473
  3
Grid/GridSpacingX02
350
474
  3
Grid/GridSpacingX03
350
475
  3
Grid/GridSpacingY00
350
476
  3
Grid/GridSpacingY01
350
477
  3
Grid/GridSpacingY02
350
478
  3
Grid/GridSpacingY03
350
479
  3
Grid/IsometricGrid00
350
47A
  3
Grid/IsometricGrid01
350
47B
  3
Grid/IsometricGrid02
350
47C
  3
Grid/IsometricGrid03
350
47D
  3
Grid/IsometricProjection00
350
47E
  3
Grid/IsometricProjection01
350
47F
  3
Grid/IsometricProjection02
350
480
  3
Grid/IsometricProjection03
350
481
  3
Grid/MetaGridSpacingX00
350
482
  3
Grid/MetaGridSpacingX01
350
483
  3
Grid/MetaGridSpacingX02
350
484
  3
Grid/MetaGridSpacingX03
350
485
  3
Grid/MetaGridSpacingY00
350
486
  3
Grid/MetaGridSpacingY01
350
487
  3
Grid/MetaGridSpacingY02
350
488
  3
Grid/MetaGridSpacingY03
350
489
  3
MultiPageSettings/Columns
350
48A
  3
MultiPageSettings/GlueMarginsBottom
350
48B
  3
MultiPageSettings/GlueMarginsLeft
350
48C
  3
MultiPageSettings/GlueMarginsRight
350
48D
  3
MultiPageSettings/GlueMarginsTop
350
48E
  3
MultiPageSettings/PrintCropMarks
350
48F
  3
MultiPageSettings/Rows
350
490
  3
PageSettings/OffsetX
350
491
  3
PageSettings/OffsetY
350
492
  3
PageSettings/PageOrientation
350
493
  3
PageSettings/PaperHeight
350
494
  3
PageSettings/PaperWidth
350
495
  3
PageSettings/Scale
350
496
  3
PageSettings/ShowPaperBorders
350
497
  3
QCADVersion
350
46B
  3
UnitSettings/PaperUnit
350
498
  3
ViewportCenter
350
499
  3
ViewportHeight
350
49A
  3
ViewportWidth
350
49B
  0
LAYOUT
  5
419
102
{ACAD_REACTORS
330
415
102
}
330
415
100
AcDbPlotSettings
  1

  2
none_device
  4
ISO_A4_(210.00_x_297.00_MM)
  6

 40
7.5
 41
20.0
 42
7.5
 43
20.0
 44
210.0
 45
297.0
 46
0.0
 47
0.0
 48
0.0
 49
0.0
140
0.0
141
0.0
142
1.0
143
1.0
 70
   688
 72
     1
 73
     1
 74
     5
  7

 75
    16
 76
     0
 77
     2
 78
   300
147
1.0
148
0.0
149
0.0
100
AcDbLayout
  1
Layout1
 70
     1
 71
     0
 10
-20.0
 20
-7.5
 11
277.0
 21
202.5
 12
0.0
 22
0.0
 32
0.0
 14
0.0
 24
0.0
 34
0.0
 15
0.0
 25
0.0
 35
0.0
146
0.0
 13
0.0
 23
0.0
 33
0.0
 16
1.0
 26
0.0
 36
0.0
 17
0.0
 27
1.0
 37
0.0
 76
     0
330
416
331
4DA
  0
LAYOUT
  5
41D
102
{ACAD_REACTORS
330
415
102
}
330
415
100
AcDbPlotSettings
  1

  2
none_device
  4
Letter_(8.50_x_11.00_Inches)
  6

 40
6.35
 41
6.35
 42
6.35000508
 43
6.35000508
 44
215.9
 45
279.4
 46
0.0
 47
0.0
 48
0.0
 49
0.0
140
0.0
141
0.0
142
1.0
143
1.0
 70
  1712
 72
     0
 73
     0
 74
     0
  7

 75
     0
 76
     0
 77
     2
 78
   300
147
1.0
148
0.0
149
0.0
100
AcDbLayout
  1
Model
 70
     1
 71
     0
 10
0.0
 20
0.0
 11
12.0
 21
9.0
 12
0.0
 22
0.0
 32
0.0
 14
1.000000000000000E+20
 24
1.000000000000000E+20
 34
1.000000000000000E+20
 15
-1.000000000000000E+20
 25
-1.000000000000000E+20
 35
-1.000000000000000E+20
146
0.0
 13
0.0
 23
0.0
 33
0.0
 16
1.0
 26
0.0
 36
0.0
 17
0.0
 27
1.0
 37
0.0
 76
     0
330
41A
331
424
  0
MATERIAL
  5
440
102
{ACAD_REACTORS
330
43E
102
}
330
43E
100
AcDbMaterial
  1
ByBlock
 72
     1
 94
      127
  0
MATERIAL
  5
43F
102
{ACAD_REACTORS
330
43E
102
}
330
43E
100
AcDbMaterial
  1
ByLayer
 72
     1
 94
      127
  0
MATERIAL
  5
441
102
{ACAD_REACTORS
330
43E
102
}
330
43E
100
AcDbMaterial
  1
Global
 72
     1
 94
      127
  0
MLEADERSTYLE
  5
467
102
{ACAD_REACTORS
330
466
102
}
330
466
100
AcDbMLeaderStyle
179
     2
170
     2
171
     1
172
     0
 90
        2
 40
0.0
 41
0.0
173
     1
 91
-1056964608
340
40F
 92
       -2
290
     1
 42
0.09
291
     1
 43
0.36
  3
Standard
341
0
 44
0.18
300

342
40D
174
     1
178
     6
175
     1
176
     0
 93
-1056964608
 45
0.18
292
     0
297
     0
 46
0.18
343
0
 94
-1056964608
 47
1.0
 49
1.0
140
1.0
293
     1
141
0.0
294
     1
177
     0
142
1.0
295
     0
296
     0
143
0.125
271
     0
272
     9
273
     9
298
     0
  0
MLINESTYLE
  5
413
102
{ACAD_REACTORS
330
412
102
}
330
412
100
AcDbMlineStyle
  2
Standard
 70
     0
  3

 62
   256
 51
90.0
 52
90.0
 71
     2
 49
0.5
 62
   256
  6
BYLAYER
 49
-0.5
 62
   256
  6
BYLAYER
  0
ACDBPLACEHOLDER
  5
40B
102
{ACAD_REACTORS
330
40A
102
}
330
40A
  0
SCALE
  5
443
102
{ACAD_REACTORS
330
442
102
}
330
442
100
AcDbScale
 70
     0
300
1:1
140
1.0
141
1.0
290
     1
  0
SCALE
  5
444
102
{ACAD_REACTORS
330
442
102
}
330
442
100
AcDbScale
 70
     0
300
1:2
140
1.0
141
2.0
290
     0
  0
SCALE
  5
445
102
{ACAD_REACTORS
330
442
102
}
330
442
100
AcDbScale
 70
     0
300
1:4
140
1.0
141
4.0
290
     0
  0
SCALE
  5
446
102
{ACAD_REACTORS
330
442
102
}
330
442
100
AcDbScale
 70
     0
300
1:5
140
1.0
141
5.0
290
     0
  0
SCALE
  5
447
102
{ACAD_REACTORS
330
442
102
}
330
442
100
AcDbScale
 70
     0
300
1:8
140
1.0
141
8.0
290
     0
  0
SCALE
  5
448
102
{ACAD_REACTORS
330
442
102
}
330
442
100
AcDbScale
 70
     0
300
1:10
140
1.0
141
10.0
290
     0
  0
SCALE
  5
449
102
{ACAD_REACTORS
330
442
102
}
330
442
100
AcDbScale
 70
     0
300
1:16
140
1.0
141
16.0
290
     0
  0
SCALE
  5
44A
102
{ACAD_REACTORS
330
442
102
}
330
442
100
AcDbScale
 70
     0
300
1:20
140
1.0
141
20.0
290
     0
  0
SCALE
  5
44B
102
{ACAD_REACTORS
330
442
102
}
330
442
100
AcDbScale
 70
     0
300
1:30
140
1.0
141
30.0
290
     0
  0
SCALE
  5
44C
102
{ACAD_REACTORS
330
442
102
}
330
442
100
AcDbScale
 70
     0
300
1:40
140
1.0
141
40.0
290
     0
  0
SCALE
  5
44D
102
{ACAD_REACTORS
330
442
102
}
330
442
100
AcDbScale
 70
     0
300
1:50
140
1.0
141
50.0
290
     0
  0
SCALE
  5
44E
102
{ACAD_REACTORS
330
442
102
}
330
442
100
AcDbScale
 70
     0
300
1:100
140
1.0
141
100.0
290
     0
  0
SCALE
  5
44F
102
{ACAD_REACTORS
330
442
102
}
330
442
100
AcDbScale
 70
     0
300
2:1
140
2.0
141
1.0
290
     0
  0
SCALE
  5
450
102
{ACAD_REACTORS
330
442
102
}
330
442
100
AcDbScale
 70
     0
300
4:1
140
4.0
141
1.0
290
     0
  0
SCALE
  5
451
102
{ACAD_REACTORS
330
442
102
}
330
442
100
AcDbScale
 70
     0
300
8:1
140
8.0
141
1.0
290
     0
  0
SCALE
  5
452
102
{ACAD_REACTORS
330
442
102
}
330
442
100
AcDbScale
 70
     0
300
10:1
140
10.0
141
1.0
290
     0
  0
SCALE
  5
453
102
{ACAD_REACTORS
330
442
102
}
330
442
100
AcDbScale
 70
     0
300
100:1
140
100.0
141
1.0
290
     0
  0
SCALE
  5
454
102
{ACAD_REACTORS
330
442
102
}
330
442
100
AcDbScale
 70
     0
300
1/128" = 1'-0"
140
0.0078125
141
12.0
290
     0
  0
SCALE
  5
455
102
{ACAD_REACTORS
330
442
102
}
330
442
100
AcDbScale
 70
     0
300
1/64" = 1'-0"
140
0.015625
141
12.0
290
     0
  0
SCALE
  5
456
102
{ACAD_REACTORS
330
442
102
}
330
442
100
AcDbScale
 70
     0
300
1/32" = 1'-0"
140
0.03125
141
12.0
290
     0
  0
SCALE
  5
457
102
{ACAD_REACTORS
330
442
102
}
330
442
100
AcDbScale
 70
     0
300
1/16" = 1'-0"
140
0.0625
141
12.0
290
     0
  0
SCALE
  5
458
102
{ACAD_REACTORS
330
442
102
}
330
442
100
AcDbScale
 70
     0
300
3/32" = 1'-0"
140
0.09375
141
12.0
290
     0
  0
SCALE
  5
459
102
{ACAD_REACTORS
330
442
102
}
330
442
100
AcDbScale
 70
     0
300
1/8" = 1'-0"
140
0.125
141
12.0
290
     0
  0
SCALE
  5
45A
102
{ACAD_REACTORS
330
442
102
}
330
442
100
AcDbScale
 70
     0
300
3/16" = 1'-0"
140
0.1875
141
12.0
290
     0
  0
SCALE
  5
45B
102
{ACAD_REACTORS
330
442
102
}
330
442
100
AcDbScale
 70
     0
300
1/4" = 1'-0"
140
0.25
141
12.0
290
     0
  0
SCALE
  5
45C
102
{ACAD_REACTORS
330
442
102
}
330
442
100
AcDbScale
 70
     0
300
3/8" = 1'-0"
140
0.375
141
12.0
290
     0
  0
SCALE
  5
45D
102
{ACAD_REACTORS
330
442
102
}
330
442
100
AcDbScale
 70
     0
300
1/2" = 1'-0"
140
0.5
141
12.0
290
     0
  0
SCALE
  5
45E
102
{ACAD_REACTORS
330
442
102
}
330
442
100
AcDbScale
 70
     0
300
3/4" = 1'-0"
140
0.75
141
12.0
290
     0
  0
SCALE
  5
45F
102
{ACAD_REACTORS
330
442
102
}
330
442
100
AcDbScale
 70
     0
300
1" = 1'-0"
140
1.0
141
12.0
290
     0
  0
SCALE
  5
460
102
{ACAD_REACTORS
330
442
102
}
330
442
100
AcDbScale
 70
     0
300
1-1/2" = 1'-0"
140
1.5
141
12.0
290
     0
  0
SCALE
  5
461
102
{ACAD_REACTORS
330
442
102
}
330
442
100
AcDbScale
 70
     0
300
3" = 1'-0"
140
3.0
141
12.0
290
     0
  0
SCALE
  5
462
102
{ACAD_REACTORS
330
442
102
}
330
442
100
AcDbScale
 70
     0
300
6" = 1'-0"
140
6.0
141
12.0
290
     0
  0
SCALE
  5
463
102
{ACAD_REACTORS
330
442
102
}
330
442
100
AcDbScale
 70
     0
300
1'-0" = 1'-0"
140
12.0
141
12.0
290
     0
  0
TABLESTYLE
  5
465
102
{ACAD_REACTORS
330
464
102
}
102
{ACAD_XDICTIONARY
360
4DE
102
}
330
464
100
AcDbTableStyle
  3
Standard
 70
     0
 71
     0
 40
0.06
 41
0.06
280
     0
281
     0
  7
Standard
140
0.18
170
     2
 62
     0
 63
   257
283
     0
 90
        4
 91
        0
  1

274
    -2
284
     1
 64
     0
275
    -2
285
     1
 65
     0
276
    -2
286
     1
 66
     0
277
    -2
287
     1
 67
     0
278
    -2
288
     1
 68
     0
279
    -2
289
     1
 69
     0
  7
Standard
140
0.25
170
     5
 62
     0
 63
   257
283
     0
 90
        4
 91
        0
  1

274
    -2
284
     1
 64
     0
275
    -2
285
     1
 65
     0
276
    -2
286
     1
 66
     0
277
    -2
287
     1
 67
     0
278
    -2
288
     1
 68
     0
279
    -2
289
     1
 69
     0
  7
Standard
140
0.18
170
     5
 62
     0
 63
   257
283
     0
 90
        4
 91
        0
  1

274
    -2
284
     1
 64
     0
275
    -2
285
     1
 65
     0
276
    -2
286
     1
 66
     0
277
    -2
287
     1
 67
     0
278
    -2
288
     1
 68
     0
279
    -2
289
     1
 69
     0
  0
VISUALSTYLE
  5
42A
102
{ACAD_REACTORS
330
425
102
}
330
425
100
AcDbVisualStyle
  2
2dWireframe
 70
     4
177
     3
291
     0
 70
    58
 90
        0
176
     1
 90
        2
176
     1
 90
        0
176
     1
 90
        0
176
     1
 40
0.6
176
     1
 40
30.0
176
     1
 62
     7
420
 16777215
176
     1
 90
        1
176
     1
 90
        4
176
     1
 62
     7
176
     1
 62
   257
176
     1
 90
        1
176
     1
 90
        1
176
     1
 40
1.0
176
     1
 90
        0
176
     1
 62
   257
176
     1
 40
1.0
176
     1
 90
        1
176
     1
 90
        6
176
     1
 90
        2
176
     1
 62
     7
176
     1
 90
        5
176
     1
 90
        0
176
     1
 90
        0
176
     1
290
     0
176
     1
 90
        1
176
     1
 40
0.0
176
     1
 90
        0
176
     1
290
     1
176
     1
290
     1
176
     1
290
     0
176
     1
290
     0
176
     1
290
     0
176
     1
290
     0
176
     1
290
     0
176
     1
290
     0
176
     1
290
     0
176
     1
 90
       50
176
     1
 40
0.0
176
     1
 40
1.0
176
     1
 90
        0
176
     1
 62
    18
420
        0
176
     1
 90
       50
176
     1
 90
        3
176
     1
 62
     5
420
      255
176
     1
290
     0
176
     1
 90
       50
176
     1
 90
       50
176
     1
 90
       50
176
     1
290
     0
176
     1
 90
       50
176
     1
 62
   256
176
     0
 40
1.0
176
     0
 90
        2
176
     1
  1
strokes_ogs.tif
176
     1
290
     0
176
     1
 40
1.0
176
     1
 40
1.0
176
     1
  0
VISUALSTYLE
  5
42D
102
{ACAD_REACTORS
330
425
102
}
330
425
100
AcDbVisualStyle
  2
Basic
 70
     7
177
     3
291
     1
 70
    58
 90
        1
176
     1
 90
        0
176
     1
 90
        1
176
     1
 90
        0
176
     1
 40
0.6
176
     1
 40
30.0
176
     1
 62
     7
420
 16777215
176
     1
 90
        0
176
     1
 90
        4
176
     1
 62
     7
176
     1
 62
   257
176
     1
 90
        1
176
     1
 90
        1
176
     1
 40
1.0
176
     1
 90
        8
176
     1
 62
     7
176
     1
 40
1.0
176
     1
 90
        1
176
     1
 90
        6
176
     1
 90
        2
176
     1
 62
     7
176
     1
 90
        5
176
     1
 90
        0
176
     1
 90
        0
176
     1
290
     0
176
     1
 90
        1
176
     1
 40
0.0
176
     1
 90
        0
176
     1
290
     0
176
     1
290
     1
176
     1
290
     1
176
     1
290
     0
176
     1
290
     0
176
     1
290
     0
176
     1
290
     0
176
     1
290
     0
176
     1
290
     0
176
     1
 90
       50
176
     1
 40
0.0
176
     1
 40
1.0
176
     1
 90
        0
176
     1
 62
    18
420
        0
176
     1
 90
       50
176
     1
 90
        3
176
     1
 62
     5
420
      255
176
     1
290
     0
176
     1
 90
       50
176
     1
 90
       50
176
     1
 90
       50
176
     1
290
     0
176
     1
 90
       50
176
     1
 62
   256
176
     0
 40
1.0
176
     0
 90
        2
176
     1
  1
strokes_ogs.tif
176
     1
290
     0
176
     1
 40
1.0
176
     1
 40
1.0
176
     1
  0
VISUALSTYLE
  5
431
102
{ACAD_REACTORS
330
425
102
}
330
425
100
AcDbVisualStyle
  2
Brighten
 70
    12
177
     3
291
     1
 70
    58
 90
        2
176
     1
 90
        2
176
     1
 90
        0
176
     1
 90
        0
176
     1
 40
0.6
176
     1
 40
30.0
176
     1
 62
     7
420
 16777215
176
     1
 90
        1
176
     1
 90
        4
176
     1
 62
     7
176
     1
 62
   257
176
     1
 90
        1
176
     1
 90
        1
176
     1
 40
1.0
176
     1
 90
        8
176
     1
 62
     7
176
     1
 40
1.0
176
     1
 90
        1
176
     1
 90
        6
176
     1
 90
        2
176
     1
 62
     7
176
     1
 90
        5
176
     1
 90
        0
176
     1
 90
        0
176
     1
290
     0
176
     1
 90
        1
176
     1
 40
50.0
176
     1
 90
        0
176
     1
290
     0
176
     1
290
     1
176
     1
290
     1
176
     1
290
     0
176
     1
290
     0
176
     1
290
     0
176
     1
290
     0
176
     1
290
     0
176
     1
290
     0
176
     1
 90
       50
176
     1
 40
0.0
176
     1
 40
1.0
176
     1
 90
        0
176
     1
 62
    18
420
        0
176
     1
 90
       50
176
     1
 90
        3
176
     1
 62
     5
420
      255
176
     1
290
     0
176
     1
 90
       50
176
     1
 90
       50
176
     1
 90
       50
176
     1
290
     0
176
     1
 90
       50
176
     1
 62
   256
176
     0
 40
1.0
176
     0
 90
        2
176
     1
  1
strokes_ogs.tif
176
     1
290
     0
176
     1
 40
1.0
176
     1
 40
1.0
176
     1
  0
VISUALSTYLE
  5
435
102
{ACAD_REACTORS
330
425
102
}
330
425
100
AcDbVisualStyle
  2
ColorChange
 70
    16
177
     3
291
     1
 70
    58
 90
        2
176
     1
 90
        2
176
     1
 90
        3
176
     1
 90
        0
176
     1
 40
0.6
176
     1
 40
30.0
176
     1
 62
     8
420
  8421504
176
     1
 90
        1
176
     1
 90
        4
176
     1
 62
     7
176
     1
 62
   257
176
     1
 90
        1
176
     1
 90
        1
176
     1
 40
1.0
176
     1
 90
        8
176
     1
 62
     8
420
  8421504
176
     1
 40
1.0
176
     1
 90
        1
176
     1
 90
        6
176
     1
 90
        2
176
     1
 62
     7
176
     1
 90
        5
176
     1
 90
        0
176
     1
 90
        0
176
     1
290
     0
176
     1
 90
        1
176
     1
 40
0.0
176
     1
 90
        0
176
     1
290
     0
176
     1
290
     1
176
     1
290
     1
176
     1
290
     0
176
     1
290
     0
176
     1
290
     0
176
     1
290
     0
176
     1
290
     0
176
     1
290
     0
176
     1
 90
       50
176
     1
 40
0.0
176
     1
 40
1.0
176
     1
 90
        0
176
     1
 62
    18
420
        0
176
     1
 90
       50
176
     1
 90
        3
176
     1
 62
     5
420
      255
176
     1
290
     0
176
     1
 90
       50
176
     1
 90
       50
176
     1
 90
       50
176
     1
290
     0
176
     1
 90
       50
176
     1
 62
   256
176
     0
 40
1.0
176
     0
 90
        2
176
     1
  1
strokes_ogs.tif
176
     1
290
     0
176
     1
 40
1.0
176
     1
 40
1.0
176
     1
  0
VISUALSTYLE
  5
42F
102
{ACAD_REACTORS
330
425
102
}
330
425
100
AcDbVisualStyle
  2
Conceptual
 70
     9
177
     3
291
     0
 70
    58
 90
        3
176
     1
 90
        2
176
     1
 90
        0
176
     1
 90
        0
176
     1
 40
0.6
176
     1
 40
30.0
176
     1
 62
     7
420
 16777215
176
     1
 90
        2
176
     1
 90
        2
176
     1
 62
     7
176
     1
 62
   257
176
     1
 90
        1
176
     1
 90
        1
176
     1
 40
179.0
176
     1
 90
        8
176
     1
 62
     7
176
     1
 40
1.0
176
     1
 90
        1
176
     1
 90
        6
176
     1
 90
        2
176
     1
 62
     7
176
     1
 90
        3
176
     1
 90
        0
176
     1
 90
        0
176
     1
290
     0
176
     1
 90
        1
176
     1
 40
0.0
176
     1
 90
        0
176
     1
290
     0
176
     1
290
     1
176
     1
290
     1
176
     1
290
     0
176
     1
290
     0
176
     1
290
     0
176
     1
290
     0
176
     1
290
     0
176
     1
290
     0
176
     1
 90
       50
176
     1
 40
0.0
176
     1
 40
1.0
176
     1
 90
        0
176
     1
 62
    18
420
        0
176
     1
 90
       50
176
     1
 90
        3
176
     1
 62
     5
420
      255
176
     1
290
     0
176
     1
 90
       50
176
     1
 90
       50
176
     1
 90
       50
176
     1
290
     0
176
     1
 90
       50
176
     1
 62
   256
176
     0
 40
1.0
176
     0
 90
        2
176
     1
  1
strokes_ogs.tif
176
     1
290
     0
176
     1
 40
1.0
176
     1
 40
1.0
176
     1
  0
VISUALSTYLE
  5
430
102
{ACAD_REACTORS
330
425
102
}
330
425
100
AcDbVisualStyle
  2
Dim
 70
    11
177
     3
291
     1
 70
    58
 90
        2
176
     1
 90
        2
176
     1
 90
        0
176
     1
 90
        0
176
     1
 40
0.6
176
     1
 40
30.0
176
     1
 62
     7
420
 16777215
176
     1
 90
        1
176
     1
 90
        4
176
     1
 62
     7
176
     1
 62
   257
176
     1
 90
        1
176
     1
 90
        1
176
     1
 40
1.0
176
     1
 90
        8
176
     1
 62
     7
176
     1
 40
1.0
176
     1
 90
        1
176
     1
 90
        6
176
     1
 90
        2
176
     1
 62
     7
176
     1
 90
        5
176
     1
 90
        0
176
     1
 90
        0
176
     1
290
     0
176
     1
 90
        1
176
     1
 40
-50.0
176
     1
 90
        0
176
     1
290
     0
176
     1
290
     1
176
     1
290
     1
176
     1
290
     0
176
     1
290
     0
176
     1
290
     0
176
     1
290
     0
176
     1
290
     0
176
     1
290
     0
176
     1
 90
       50
176
     1
 40
0.0
176
     1
 40
1.0
176
     1
 90
        0
176
     1
 62
    18
420
        0
176
     1
 90
       50
176
     1
 90
        3
176
     1
 62
     5
420
      255
176
     1
290
     0
176
     1
 90
       50
176
     1
 90
       50
176
     1
 90
       50
176
     1
290
     0
176
     1
 90
       50
176
     1
 62
   256
176
     0
 40
1.0
176
     0
 90
        2
176
     1
  1
strokes_ogs.tif
176
     1
290
     0
176
     1
 40
1.0
176
     1
 40
1.0
176
     1
  0
VISUALSTYLE
  5
438
102
{ACAD_REACTORS
330
425
102
}
330
425
100
AcDbVisualStyle
  2
EdgeColorOff
 70
    22
177
     3
291
     1
 70
    58
 90
        2
176
     0
 90
        2
176
     0
 90
        0
176
     0
 90
        0
176
     0
 40
0.6
176
     0
 40
30.0
176
     0
 62
     7
420
 16777215
176
     0
 90
        1
176
     0
 90
        4
176
     0
 62
     7
176
     0
 62
   257
176
     0
 90
        1
176
     0
 90
        1
176
     0
 40
1.0
176
     0
 90
        8
176
     2
 62
     7
176
     0
 40
1.0
176
     0
 90
        1
176
     0
 90
        6
176
     0
 90
        2
176
     0
 62
     7
176
     0
 90
        5
176
     0
 90
        0
176
     0
 90
        0
176
     0
290
     0
176
     0
 90
        1
176
     0
 40
0.0
176
     0
 90
        0
176
     0
290
     0
176
     0
290
     1
176
     0
290
     1
176
     0
290
     0
176
     0
290
     0
176
     0
290
     0
176
     0
290
     0
176
     0
290
     0
176
     0
290
     0
176
     0
 90
       50
176
     0
 40
0.0
176
     0
 40
1.0
176
     0
 90
        0
176
     0
 62
    18
420
        0
176
     0
 90
       50
176
     0
 90
        3
176
     0
 62
     5
420
      255
176
     0
290
     0
176
     0
 90
       50
176
     0
 90
       50
176
     0
 90
       50
176
     0
290
     0
176
     0
 90
       50
176
     0
 62
   256
176
     0
 40
1.0
176
     0
 90
        2
176
     0
  1
strokes_ogs.tif
176
     0
290
     0
176
     0
 40
1.0
176
     0
 40
1.0
176
     0
  0
VISUALSTYLE
  5
434
102
{ACAD_REACTORS
330
425
102
}
330
425
100
AcDbVisualStyle
  2
Facepattern
 70
    15
177
     3
291
     1
 70
    58
 90
        2
176
     1
 90
        2
176
     1
 90
        0
176
     1
 90
        0
176
     1
 40
0.6
176
     1
 40
30.0
176
     1
 62
     7
420
 16777215
176
     1
 90
        1
176
     1
 90
        4
176
     1
 62
     7
176
     1
 62
   257
176
     1
 90
        1
176
     1
 90
        1
176
     1
 40
1.0
176
     1
 90
        8
176
     1
 62
     7
176
     1
 40
1.0
176
     1
 90
        1
176
     1
 90
        6
176
     1
 90
        2
176
     1
 62
     7
176
     1
 90
        5
176
     1
 90
        0
176
     1
 90
        0
176
     1
290
     0
176
     1
 90
        1
176
     1
 40
0.0
176
     1
 90
        0
176
     1
290
     0
176
     1
290
     1
176
     1
290
     1
176
     1
290
     0
176
     1
290
     0
176
     1
290
     0
176
     1
290
     0
176
     1
290
     0
176
     1
290
     0
176
     1
 90
       50
176
     1
 40
0.0
176
     1
 40
1.0
176
     1
 90
        0
176
     1
 62
    18
420
        0
176
     1
 90
       50
176
     1
 90
        3
176
     1
 62
     5
420
      255
176
     1
290
     0
176
     1
 90
       50
176
     1
 90
       50
176
     1
 90
       50
176
     1
290
     0
176
     1
 90
       50
176
     1
 62
   256
176
     0
 40
1.0
176
     0
 90
        2
176
     1
  1
strokes_ogs.tif
176
     1
290
     0
176
     1
 40
1.0
176
     1
 40
1.0
176
     1
  0
VISUALSTYLE
  5
426
102
{ACAD_REACTORS
330
425
102
}
330
425
100
AcDbVisualStyle
  2
Flat
 70
     0
177
     3
291
     1
 70
    58
 90
        2
176
     1
 90
        1
176
     1
 90
        1
176
     1
 90
        2
176
     1
 40
0.6
176
     1
 40
30.0
176
     1
 62
     7
420
 16777215
176
     1
 90
        0
176
     1
 90
        0
176
     1
 62
     7
176
     1
 62
   257
176
     1
 90
        1
176
     1
 90
        1
176
     1
 40
1.0
176
     1
 90
        8
176
     1
 62
     7
176
     1
 40
1.0
176
     1
 90
        1
176
     1
 90
        6
176
     1
 90
        2
176
     1
 62
     7
176
     1
 90
        5
176
     1
 90
        0
176
     1
 90
        0
176
     1
290
     0
176
     1
 90
       13
176
     1
 40
0.0
176
     1
 90
        0
176
     1
290
     0
176
     1
290
     1
176
     1
290
     1
176
     1
290
     0
176
     1
290
     0
176
     1
290
     0
176
     1
290
     0
176
     1
290
     0
176
     1
290
     0
176
     1
 90
       50
176
     1
 40
0.0
176
     1
 40
1.0
176
     1
 90
        0
176
     1
 62
    18
420
        0
176
     1
 90
       50
176
     1
 90
        3
176
     1
 62
     5
420
      255
176
     1
290
     0
176
     1
 90
       50
176
     1
 90
       50
176
     1
 90
       50
176
     1
290
     0
176
     1
 90
       50
176
     1
 62
   256
176
     0
 40
1.0
176
     0
 90
        2
176
     1
  1
strokes_ogs.tif
176
     1
290
     0
176
     1
 40
1.0
176
     1
 40
1.0
176
     1
  0
VISUALSTYLE
  5
427
102
{ACAD_REACTORS
330
425
102
}
330
425
100
AcDbVisualStyle
  2
FlatWithEdges
 70
     1
177
     3
291
     1
 70
    58
 90
        2
176
     1
 90
        1
176
     1
 90
        1
176
     1
 90
        2
176
     1
 40
0.6
176
     1
 40
30.0
176
     1
 62
     7
420
 16777215
176
     1
 90
        1
176
     1
 90
        0
176
     1
 62
     7
176
     1
 62
   257
176
     1
 90
        1
176
     1
 90
        1
176
     1
 40
1.0
176
     1
 90
        0
176
     1
 62
   257
176
     1
 40
1.0
176
     1
 90
        1
176
     1
 90
        6
176
     1
 90
        2
176
     1
 62
     7
176
     1
 90
        5
176
     1
 90
        0
176
     1
 90
        0
176
     1
290
     0
176
     1
 90
       13
176
     1
 40
0.0
176
     1
 90
        0
176
     1
290
     0
176
     1
290
     1
176
     1
290
     1
176
     1
290
     0
176
     1
290
     0
176
     1
290
     0
176
     1
290
     0
176
     1
290
     0
176
     1
290
     0
176
     1
 90
       50
176
     1
 40
0.0
176
     1
 40
1.0
176
     1
 90
        0
176
     1
 62
    18
420
        0
176
     1
 90
       50
176
     1
 90
        3
176
     1
 62
     5
420
      255
176
     1
290
     0
176
     1
 90
       50
176
     1
 90
       50
176
     1
 90
       50
176
     1
290
     0
176
     1
 90
       50
176
     1
 62
   256
176
     0
 40
1.0
176
     0
 90
        2
176
     1
  1
strokes_ogs.tif
176
     1
290
     0
176
     1
 40
1.0
176
     1
 40
1.0
176
     1
  0
VISUALSTYLE
  5
428
102
{ACAD_REACTORS
330
425
102
}
330
425
100
AcDbVisualStyle
  2
Gouraud
 70
     2
177
     3
291
     1
 70
    58
 90
        2
176
     1
 90
        2
176
     1
 90
        1
176
     1
 90
        2
176
     1
 40
0.6
176
     1
 40
30.0
176
     1
 62
     7
420
 16777215
176
     1
 90
        0
176
     1
 90
        0
176
     1
 62
     7
176
     1
 62
   257
176
     1
 90
        1
176
     1
 90
        1
176
     1
 40
1.0
176
     1
 90
        0
176
     1
 62
     7
176
     1
 40
1.0
176
     1
 90
        1
176
     1
 90
        6
176
     1
 90
        2
176
     1
 62
     7
176
     1
 90
        5
176
     1
 90
        0
176
     1
 90
        0
176
     1
290
     0
176
     1
 90
       13
176
     1
 40
0.0
176
     1
 90
        0
176
     1
290
     0
176
     1
290
     1
176
     1
290
     1
176
     1
290
     0
176
     1
290
     0
176
     1
290
     0
176
     1
290
     0
176
     1
290
     0
176
     1
290
     0
176
     1
 90
       50
176
     1
 40
0.0
176
     1
 40
1.0
176
     1
 90
        0
176
     1
 62
    18
420
        0
176
     1
 90
       50
176
     1
 90
        3
176
     1
 62
     5
420
      255
176
     1
290
     0
176
     1
 90
       50
176
     1
 90
       50
176
     1
 90
       50
176
     1
290
     0
176
     1
 90
       50
176
     1
 62
   256
176
     0
 40
1.0
176
     0
 90
        2
176
     1
  1
strokes_ogs.tif
176
     1
290
     0
176
     1
 40
1.0
176
     1
 40
1.0
176
     1
  0
VISUALSTYLE
  5
429
102
{ACAD_REACTORS
330
425
102
}
330
425
100
AcDbVisualStyle
  2
GouraudWithEdges
 70
     3
177
     3
291
     1
 70
    58
 90
        2
176
     1
 90
        2
176
     1
 90
        1
176
     1
 90
        2
176
     1
 40
0.6
176
     1
 40
30.0
176
     1
 62
     7
420
 16777215
176
     1
 90
        1
176
     1
 90
        0
176
     1
 62
     7
176
     1
 62
   257
176
     1
 90
        1
176
     1
 90
        1
176
     1
 40
1.0
176
     1
 90
        0
176
     1
 62
   257
176
     1
 40
1.0
176
     1
 90
        1
176
     1
 90
        6
176
     1
 90
        2
176
     1
 62
     7
176
     1
 90
        5
176
     1
 90
        0
176
     1
 90
        0
176
     1
290
     0
176
     1
 90
       13
176
     1
 40
0.0
176
     1
 90
        0
176
     1
290
     0
176
     1
290
     1
176
     1
290
     1
176
     1
290
     0
176
     1
290
     0
176
     1
290
     0
176
     1
290
     0
176
     1
290
     0
176
     1
290
     0
176
     1
 90
       50
176
     1
 40
0.0
176
     1
 40
1.0
176
     1
 90
        0
176
     1
 62
    18
420
        0
176
     1
 90
       50
176
     1
 90
        3
176
     1
 62
     5
420
      255
176
     1
290
     0
176
     1
 90
       50
176
     1
 90
       50
176
     1
 90
       50
176
     1
290
     0
176
     1
 90
       50
176
     1
 62
   256
176
     0
 40
1.0
176
     0
 90
        2
176
     1
  1
strokes_ogs.tif
176
     1
290
     0
176
     1
 40
1.0
176
     1
 40
1.0
176
     1
  0
VISUALSTYLE
  5
42C
102
{ACAD_REACTORS
330
425
102
}
330
425
100
AcDbVisualStyle
  2
Hidden
 70
     6
177
     3
291
     0
 70
    58
 90
        1
176
     1
 90
        2
176
     1
 90
        2
176
     1
 90
        0
176
     1
 40
0.6
176
     1
 40
30.0
176
     1
 62
     7
420
 16777215
176
     1
 90
        2
176
     1
 90
        2
176
     1
 62
     7
176
     1
 62
   257
176
     1
 90
        2
176
     1
 90
        1
176
     1
 40
40.0
176
     1
 90
        0
176
     1
 62
   257
176
     1
 40
1.0
176
     1
 90
        1
176
     1
 90
        6
176
     1
 90
        2
176
     1
 62
     7
176
     1
 90
        3
176
     1
 90
        0
176
     1
 90
        0
176
     1
290
     0
176
     1
 90
        1
176
     1
 40
0.0
176
     1
 90
        0
176
     1
290
     0
176
     1
290
     1
176
     1
290
     1
176
     1
290
     0
176
     1
290
     0
176
     1
290
     0
176
     1
290
     0
176
     1
290
     0
176
     1
290
     0
176
     1
 90
       50
176
     1
 40
0.0
176
     1
 40
1.0
176
     1
 90
        0
176
     1
 62
    18
420
        0
176
     1
 90
       50
176
     1
 90
        3
176
     1
 62
     5
420
      255
176
     1
290
     0
176
     1
 90
       50
176
     1
 90
       50
176
     1
 90
       50
176
     1
290
     0
176
     1
 90
       50
176
     1
 62
   256
176
     0
 40
1.0
176
     0
 90
        2
176
     1
  1
strokes_ogs.tif
176
     1
290
     0
176
     1
 40
1.0
176
     1
 40
1.0
176
     1
  0
VISUALSTYLE
  5
436
102
{ACAD_REACTORS
330
425
102
}
330
425
100
AcDbVisualStyle
  2
JitterOff
 70
    20
177
     3
291
     1
 70
    58
 90
        2
176
     0
 90
        2
176
     0
 90
        0
176
     0
 90
        0
176
     0
 40
0.6
176
     0
 40
30.0
176
     0
 62
     7
420
 16777215
176
     0
 90
        1
176
     0
 90
        4
176
     0
 62
     7
176
     0
 62
   257
176
     0
 90
        1
176
     0
 90
        1
176
     0
 40
1.0
176
     0
 90
       10
176
     2
 62
     7
176
     0
 40
1.0
176
     0
 90
        1
176
     0
 90
        6
176
     0
 90
        2
176
     0
 62
     7
176
     0
 90
        5
176
     0
 90
        0
176
     0
 90
        0
176
     0
290
     0
176
     0
 90
        1
176
     0
 40
0.0
176
     0
 90
        0
176
     0
290
     0
176
     0
290
     1
176
     0
290
     1
176
     0
290
     0
176
     0
290
     0
176
     0
290
     0
176
     0
290
     0
176
     0
290
     0
176
     0
290
     0
176
     0
 90
       50
176
     0
 40
0.0
176
     0
 40
1.0
176
     0
 90
        0
176
     0
 62
    18
420
        0
176
     0
 90
       50
176
     0
 90
        3
176
     0
 62
     5
420
      255
176
     0
290
     0
176
     0
 90
       50
176
     0
 90
       50
176
     0
 90
       50
176
     0
290
     0
176
     0
 90
       50
176
     0
 62
   256
176
     0
 40
1.0
176
     0
 90
        2
176
     0
  1
strokes_ogs.tif
176
     0
290
     0
176
     0
 40
1.0
176
     0
 40
1.0
176
     0
  0
VISUALSTYLE
  5
433
102
{ACAD_REACTORS
330
425
102
}
330
425
100
AcDbVisualStyle
  2
Linepattern
 70
    14
177
     3
291
     1
 70
    58
 90
        2
176
     1
 90
        2
176
     1
 90
        0
176
     1
 90
        0
176
     1
 40
0.6
176
     1
 40
30.0
176
     1
 62
     7
420
 16777215
176
     1
 90
        1
176
     1
 90
        4
176
     1
 62
     7
176
     1
 62
   257
176
     1
 90
        7
176
     1
 90
        7
176
     1
 40
1.0
176
     1
 90
        8
176
     1
 62
     7
176
     1
 40
1.0
176
     1
 90
        1
176
     1
 90
        6
176
     1
 90
        2
176
     1
 62
     7
176
     1
 90
        5
176
     1
 90
        0
176
     1
 90
        0
176
     1
290
     0
176
     1
 90
        1
176
     1
 40
0.0
176
     1
 90
        0
176
     1
290
     0
176
     1
290
     1
176
     1
290
     1
176
     1
290
     0
176
     1
290
     0
176
     1
290
     0
176
     1
290
     0
176
     1
290
     0
176
     1
290
     0
176
     1
 90
       50
176
     1
 40
0.0
176
     1
 40
1.0
176
     1
 90
        0
176
     1
 62
    18
420
        0
176
     1
 90
       50
176
     1
 90
        3
176
     1
 62
     5
420
      255
176
     1
290
     0
176
     1
 90
       50
176
     1
 90
       50
176
     1
 90
       50
176
     1
290
     0
176
     1
 90
       50
176
     1
 62
   256
176
     0
 40
1.0
176
     0
 90
        2
176
     1
  1
strokes_ogs.tif
176
     1
290
     0
176
     1
 40
1.0
176
     1
 40
1.0
176
     1
  0
VISUALSTYLE
  5
437
102
{ACAD_REACTORS
330
425
102
}
330
425
100
AcDbVisualStyle
  2
OverhangOff
 70
    21
177
     3
291
     1
 70
    58
 90
        2
176
     0
 90
        2
176
     0
 90
        0
176
     0
 90
        0
176
     0
 40
0.6
176
     0
 40
30.0
176
     0
 62
     7
420
 16777215
176
     0
 90
        1
176
     0
 90
        4
176
     0
 62
     7
176
     0
 62
   257
176
     0
 90
        1
176
     0
 90
        1
176
     0
 40
1.0
176
     0
 90
        9
176
     2
 62
     7
176
     0
 40
1.0
176
     0
 90
        1
176
     0
 90
        6
176
     0
 90
        2
176
     0
 62
     7
176
     0
 90
        5
176
     0
 90
        0
176
     0
 90
        0
176
     0
290
     0
176
     0
 90
        1
176
     0
 40
0.0
176
     0
 90
        0
176
     0
290
     0
176
     0
290
     1
176
     0
290
     1
176
     0
290
     0
176
     0
290
     0
176
     0
290
     0
176
     0
290
     0
176
     0
290
     0
176
     0
290
     0
176
     0
 90
       50
176
     0
 40
0.0
176
     0
 40
1.0
176
     0
 90
        0
176
     0
 62
    18
420
        0
176
     0
 90
       50
176
     0
 90
        3
176
     0
 62
     5
420
      255
176
     0
290
     0
176
     0
 90
       50
176
     0
 90
       50
176
     0
 90
       50
176
     0
290
     0
176
     0
 90
       50
176
     0
 62
   256
176
     0
 40
1.0
176
     0
 90
        2
176
     0
  1
strokes_ogs.tif
176
     0
290
     0
176
     0
 40
1.0
176
     0
 40
1.0
176
     0
  0
VISUALSTYLE
  5
42E
102
{ACAD_REACTORS
330
425
102
}
330
425
100
AcDbVisualStyle
  2
Realistic
 70
     8
177
     3
291
     0
 70
    58
 90
        2
176
     1
 90
        3
176
     1
 90
        0
176
     1
 90
        2
176
     1
 40
0.6
176
     1
 40
30.0
176
     1
 62
     7
420
 16777215
176
     1
 90
        0
176
     1
 90
        0
176
     1
 62
     7
176
     1
 62
   257
176
     1
 90
        1
176
     1
 90
        1
176
     1
 40
1.0
176
     1
 90
        8
176
     1
 62
   257
176
     1
 40
1.0
176
     1
 90
        1
176
     1
 90
        6
176
     1
 90
        2
176
     1
 62
     7
176
     1
 90
        3
176
     1
 90
        0
176
     1
 90
        0
176
     1
290
     0
176
     1
 90
       13
176
     1
 40
0.0
176
     1
 90
        0
176
     1
290
     0
176
     1
290
     1
176
     1
290
     1
176
     1
290
     0
176
     1
290
     0
176
     1
290
     0
176
     1
290
     0
176
     1
290
     0
176
     1
290
     0
176
     1
 90
       50
176
     1
 40
0.0
176
     1
 40
1.0
176
     1
 90
        0
176
     1
 62
    18
420
        0
176
     1
 90
       50
176
     1
 90
        3
176
     1
 62
     5
420
      255
176
     1
290
     0
176
     1
 90
       50
176
     1
 90
       50
176
     1
 90
       50
176
     1
290
     0
176
     1
 90
       50
176
     1
 62
   256
176
     0
 40
1.0
176
     0
 90
        2
176
     1
  1
strokes_ogs.tif
176
     1
290
     0
176
     1
 40
1.0
176
     1
 40
1.0
176
     1
  0
VISUALSTYLE
  5
43D
102
{ACAD_REACTORS
330
425
102
}
330
425
100
AcDbVisualStyle
  2
Shaded
 70
    27
177
     3
291
     0
 70
    58
 90
        2
176
     1
 90
        2
176
     1
 90
        1
176
     1
 90
        2
176
     1
 40
0.6
176
     1
 40
30.0
176
     1
 62
     7
420
 16777215
176
     1
 90
        0
176
     1
 90
        4
176
     1
 62
     7
176
     1
 62
   257
176
     1
 90
        1
176
     1
 90
        1
176
     1
 40
1.0
176
     1
 90
        8
176
     1
 62
   257
176
     1
 40
1.0
176
     1
 90
        1
176
     1
 90
        6
176
     1
 90
        2
176
     1
 62
     8
420
  7895160
176
     1
 90
        3
176
     1
 90
        0
176
     1
 90
        0
176
     1
290
     0
176
     1
 90
        5
176
     1
 40
0.0
176
     1
 90
        0
176
     1
290
     0
176
     1
290
     1
176
     1
290
     1
176
     1
290
     0
176
     1
290
     0
176
     1
290
     0
176
     1
290
     0
176
     1
290
     0
176
     1
290
     0
176
     1
 90
       50
176
     1
 40
0.0
176
     1
 40
1.0
176
     1
 90
        0
176
     1
 62
    18
420
        0
176
     1
 90
       50
176
     1
 90
        3
176
     1
 62
     5
420
      255
176
     1
290
     0
176
     1
 90
       50
176
     1
 90
       50
176
     1
 90
       50
176
     1
290
     0
176
     1
 90
       50
176
     1
 62
   256
176
     0
 40
1.0
176
     0
 90
        2
176
     1
  1
strokes_ogs.tif
176
     1
290
     0
176
     1
 40
1.0
176
     1
 40
1.0
176
     1
  0
VISUALSTYLE
  5
43C
102
{ACAD_REACTORS
330
425
102
}
330
425
100
AcDbVisualStyle
  2
Shaded with edges
 70
    26
177
     3
291
     0
 70
    58
 90
        2
176
     1
 90
        2
176
     1
 90
        1
176
     1
 90
        2
176
     1
 40
0.6
176
     1
 40
30.0
176
     1
 62
     7
420
 16777215
176
     1
 90
        1
176
     1
 90
       10
176
     1
 62
     7
176
     1
 62
   257
176
     1
 90
        2
176
     1
 90
        1
176
     1
 40
1.0
176
     1
 90
        8
176
     1
 62
   257
176
     1
 40
1.0
176
     1
 90
        1
176
     1
 90
        6
176
     1
 90
        2
176
     1
 62
     7
176
     1
 90
        3
176
     1
 90
        0
176
     1
 90
        0
176
     1
290
     0
176
     1
 90
        5
176
     1
 40
0.0
176
     1
 90
        0
176
     1
290
     0
176
     1
290
     1
176
     1
290
     1
176
     1
290
     0
176
     1
290
     0
176
     1
290
     0
176
     1
290
     0
176
     1
290
     0
176
     1
290
     0
176
     1
 90
       50
176
     1
 40
0.0
176
     1
 40
1.0
176
     1
 90
        0
176
     1
 62
    18
420
        0
176
     1
 90
       50
176
     1
 90
        3
176
     1
 62
     5
420
      255
176
     1
290
     0
176
     1
 90
       50
176
     1
 90
       50
176
     1
 90
       50
176
     1
290
     0
176
     1
 90
       50
176
     1
 62
   256
176
     0
 40
1.0
176
     0
 90
        2
176
     1
  1
strokes_ogs.tif
176
     1
290
     0
176
     1
 40
1.0
176
     1
 40
1.0
176
     1
  0
VISUALSTYLE
  5
439
102
{ACAD_REACTORS
330
425
102
}
330
425
100
AcDbVisualStyle
  2
Shades of Gray
 70
    23
177
     3
291
     0
 70
    58
 90
        2
176
     1
 90
        2
176
     1
 90
        3
176
     1
 90
        0
176
     1
 40
0.6
176
     1
 40
30.0
176
     1
 62
     7
420
 16777215
176
     1
 90
        2
176
     1
 90
        2
176
     1
 62
     7
176
     1
 62
     7
176
     1
 90
        1
176
     1
 90
        1
176
     1
 40
40.0
176
     1
 90
        8
176
     1
 62
     7
176
     1
 40
1.0
176
     1
 90
        1
176
     1
 90
        6
176
     1
 90
        2
176
     1
 62
     7
176
     1
 90
        3
176
     1
 90
        0
176
     1
 90
        0
176
     1
290
     0
176
     1
 90
        1
176
     1
 40
0.0
176
     1
 90
        0
176
     1
290
     0
176
     1
290
     1
176
     1
290
     1
176
     1
290
     0
176
     1
290
     0
176
     1
290
     0
176
     1
290
     0
176
     1
290
     0
176
     1
290
     0
176
     1
 90
       50
176
     1
 40
0.0
176
     1
 40
1.0
176
     1
 90
        0
176
     1
 62
    18
420
        0
176
     1
 90
       50
176
     1
 90
        3
176
     1
 62
     5
420
      255
176
     1
290
     0
176
     1
 90
       50
176
     1
 90
       50
176
     1
 90
       50
176
     1
290
     0
176
     1
 90
       50
176
     1
 62
   256
176
     0
 40
1.0
176
     0
 90
        2
176
     1
  1
strokes_ogs.tif
176
     1
290
     0
176
     1
 40
1.0
176
     1
 40
1.0
176
     1
  0
VISUALSTYLE
  5
43A
102
{ACAD_REACTORS
330
425
102
}
330
425
100
AcDbVisualStyle
  2
Sketchy
 70
    24
177
     3
291
     0
 70
    58
 90
        1
176
     1
 90
        2
176
     1
 90
        2
176
     1
 90
        0
176
     1
 40
0.6
176
     1
 40
30.0
176
     1
 62
     7
420
 16777215
176
     1
 90
        2
176
     1
 90
        2
176
     1
 62
     7
176
     1
 62
     7
176
     1
 90
        1
176
     1
 90
        1
176
     1
 40
40.0
176
     1
 90
       11
176
     1
 62
     7
176
     1
 40
1.0
176
     1
 90
        1
176
     1
 90
        6
176
     1
 90
        2
176
     1
 62
     7
176
     1
 90
        6
176
     1
 90
        0
176
     1
 90
        0
176
     1
290
     0
176
     1
 90
        1
176
     1
 40
0.0
176
     1
 90
        0
176
     1
290
     0
176
     1
290
     1
176
     1
290
     1
176
     1
290
     0
176
     1
290
     0
176
     1
290
     0
176
     1
290
     0
176
     1
290
     0
176
     1
290
     0
176
     1
 90
       50
176
     1
 40
0.0
176
     1
 40
1.0
176
     1
 90
        0
176
     1
 62
    18
420
        0
176
     1
 90
       50
176
     1
 90
        3
176
     1
 62
     5
420
      255
176
     1
290
     0
176
     1
 90
       50
176
     1
 90
       50
176
     1
 90
       50
176
     1
290
     0
176
     1
 90
       50
176
     1
 62
   256
176
     0
 40
1.0
176
     0
 90
        2
176
     1
  1
strokes_ogs.tif
176
     1
290
     0
176
     1
 40
1.0
176
     1
 40
1.0
176
     1
  0
VISUALSTYLE
  5
432
102
{ACAD_REACTORS
330
425
102
}
330
425
100
AcDbVisualStyle
  2
Thicken
 70
    13
177
     3
291
     1
 70
    58
 90
        2
176
     1
 90
        2
176
     1
 90
        0
176
     1
 90
        0
176
     1
 40
0.6
176
     1
 40
30.0
176
     1
 62
     7
420
 16777215
176
     1
 90
        1
176
     1
 90
        4
176
     1
 62
     7
176
     1
 62
   257
176
     1
 90
        1
176
     1
 90
        1
176
     1
 40
1.0
176
     1
 90
       12
176
     1
 62
     7
176
     1
 40
1.0
176
     1
 90
        1
176
     1
 90
        6
176
     1
 90
        2
176
     1
 62
     7
176
     1
 90
        5
176
     1
 90
        0
176
     1
 90
        0
176
     1
290
     0
176
     1
 90
        1
176
     1
 40
0.0
176
     1
 90
        0
176
     1
290
     0
176
     1
290
     1
176
     1
290
     1
176
     1
290
     0
176
     1
290
     0
176
     1
290
     0
176
     1
290
     0
176
     1
290
     0
176
     1
290
     0
176
     1
 90
       50
176
     1
 40
0.0
176
     1
 40
1.0
176
     1
 90
        0
176
     1
 62
    18
420
        0
176
     1
 90
       50
176
     1
 90
        3
176
     1
 62
     5
420
      255
176
     1
290
     0
176
     1
 90
       50
176
     1
 90
       50
176
     1
 90
       50
176
     1
290
     0
176
     1
 90
       50
176
     1
 62
   256
176
     0
 40
1.0
176
     0
 90
        2
176
     1
  1
strokes_ogs.tif
176
     1
290
     0
176
     1
 40
1.0
176
     1
 40
1.0
176
     1
  0
VISUALSTYLE
  5
42B
102
{ACAD_REACTORS
330
425
102
}
330
425
100
AcDbVisualStyle
  2
Wireframe
 70
     5
177
     3
291
     0
 70
    58
 90
        0
176
     1
 90
        2
176
     1
 90
        0
176
     1
 90
        0
176
     1
 40
0.6
176
     1
 40
30.0
176
     1
 62
     7
420
 16777215
176
     1
 90
        1
176
     1
 90
        4
176
     1
 62
     7
176
     1
 62
   257
176
     1
 90
        1
176
     1
 90
        1
176
     1
 40
1.0
176
     1
 90
        0
176
     1
 62
   257
176
     1
 40
1.0
176
     1
 90
        1
176
     1
 90
        6
176
     1
 90
        2
176
     1
 62
     7
176
     1
 90
        3
176
     1
 90
        0
176
     1
 90
        0
176
     1
290
     0
176
     1
 90
        1
176
     1
 40
0.0
176
     1
 90
        0
176
     1
290
     0
176
     1
290
     1
176
     1
290
     1
176
     1
290
     0
176
     1
290
     0
176
     1
290
     0
176
     1
290
     0
176
     1
290
     0
176
     1
290
     0
176
     1
 90
       50
176
     1
 40
0.0
176
     1
 40
1.0
176
     1
 90
        0
176
     1
 62
    18
420
        0
176
     1
 90
       50
176
     1
 90
        3
176
     1
 62
     5
420
      255
176
     1
290
     0
176
     1
 90
       50
176
     1
 90
       50
176
     1
 90
       50
176
     1
290
     0
176
     1
 90
       50
176
     1
 62
   256
176
     0
 40
1.0
176
     0
 90
        2
176
     1
  1
strokes_ogs.tif
176
     1
290
     0
176
     1
 40
1.0
176
     1
 40
1.0
176
     1
  0
VISUALSTYLE
  5
43B
102
{ACAD_REACTORS
330
425
102
}
330
425
100
AcDbVisualStyle
  2
X-Ray
 70
    25
177
     3
291
     0
 70
    58
 90
        2
176
     1
 90
        2
176
     1
 90
        1
176
     1
 90
        1
176
     1
 40
0.5
176
     1
 40
30.0
176
     1
 62
     7
420
 16777215
176
     1
 90
        1
176
     1
 90
        0
176
     1
 62
     7
176
     1
 62
   257
176
     1
 90
        1
176
     1
 90
        1
176
     1
 40
1.0
176
     1
 90
        8
176
     1
 62
     7
176
     1
 40
1.0
176
     1
 90
        1
176
     1
 90
        6
176
     1
 90
        2
176
     1
 62
     7
176
     1
 90
        3
176
     1
 90
        0
176
     1
 90
        0
176
     1
290
     0
176
     1
 90
       13
176
     1
 40
0.0
176
     1
 90
        0
176
     1
290
     0
176
     1
290
     1
176
     1
290
     1
176
     1
290
     0
176
     1
290
     0
176
     1
290
     0
176
     1
290
     0
176
     1
290
     0
176
     1
290
     0
176
     1
 90
       50
176
     1
 40
0.0
176
     1
 40
1.0
176
     1
 90
        0
176
     1
 62
    18
420
        0
176
     1
 90
       50
176
     1
 90
        3
176
     1
 62
     5
420
      255
176
     1
290
     0
176
     1
 90
       50
176
     1
 90
       50
176
     1
 90
       50
176
     1
290
     0
176
     1
 90
       50
176
     1
 62
   256
176
     0
 40
1.0
176
     0
 90
        2
176
     1
  1
strokes_ogs.tif
176
     1
290
     0
176
     1
 40
1.0
176
     1
 40
1.0
176
     1
  0
DICTIONARYVAR
  5
4DD
102
{ACAD_REACTORS
330
4DC
102
}
330
4DC
100
DictionaryVariables
280
     0
  1
1:1
  0
DICTIONARYVAR
  5
4E2
102
{ACAD_REACTORS
330
4DC
102
}
330
4DC
100
DictionaryVariables
280
     0
  1
Standard
  0
DICTIONARYVAR
  5
4E1
102
{ACAD_REACTORS
330
4DC
102
}
330
4DC
100
DictionaryVariables
280
     0
  1
Standard
  0
XRECORD
  5
46C
102
{ACAD_REACTORS
330
46A
102
}
330
46A
100
AcDbXrecord
280
     1
1000
#ffffff
  0
XRECORD
  5
46D
102
{ACAD_REACTORS
330
46A
102
}
330
46A
100
AcDbXrecord
280
     1
1000
FullColor
  0
XRECORD
  5
46E
102
{ACAD_REACTORS
330
46A
102
}
330
46A
100
AcDbXrecord
280
     1
290
     1
  0
XRECORD
  5
46F
102
{ACAD_REACTORS
330
46A
102
}
330
46A
100
AcDbXrecord
280
     1
290
     1
  0
XRECORD
  5
470
102
{ACAD_REACTORS
330
46A
102
}
330
46A
100
AcDbXrecord
280
     1
290
     1
  0
XRECORD
  5
471
102
{ACAD_REACTORS
330
46A
102
}
330
46A
100
AcDbXrecord
280
     1
290
     1
  0
XRECORD
  5
472
102
{ACAD_REACTORS
330
46A
102
}
330
46A
100
AcDbXrecord
280
     1
1000
auto
  0
XRECORD
  5
473
102
{ACAD_REACTORS
330
46A
102
}
330
46A
100
AcDbXrecord
280
     1
1000
auto
  0
XRECORD
  5
474
102
{ACAD_REACTORS
330
46A
102
}
330
46A
100
AcDbXrecord
280
     1
1000
auto
  0
XRECORD
  5
475
102
{ACAD_REACTORS
330
46A
102
}
330
46A
100
AcDbXrecord
280
     1
1000
auto
  0
XRECORD
  5
476
102
{ACAD_REACTORS
330
46A
102
}
330
46A
100
AcDbXrecord
280
     1
1000
auto
  0
XRECORD
  5
477
102
{ACAD_REACTORS
330
46A
102
}
330
46A
100
AcDbXrecord
280
     1
1000
auto
  0
XRECORD
  5
478
102
{ACAD_REACTORS
330
46A
102
}
330
46A
100
AcDbXrecord
280
     1
1000
auto
  0
XRECORD
  5
479
102
{ACAD_REACTORS
330
46A
102
}
330
46A
100
AcDbXrecord
280
     1
1000
auto
  0
XRECORD
  5
47A
102
{ACAD_REACTORS
330
46A
102
}
330
46A
100
AcDbXrecord
280
     1
290
     0
  0
XRECORD
  5
47B
102
{ACAD_REACTORS
330
46A
102
}
330
46A
100
AcDbXrecord
280
     1
290
     0
  0
XRECORD
  5
47C
102
{ACAD_REACTORS
330
46A
102
}
330
46A
100
AcDbXrecord
280
     1
290
     0
  0
XRECORD
  5
47D
102
{ACAD_REACTORS
330
46A
102
}
330
46A
100
AcDbXrecord
280
     1
290
     0
  0
XRECORD
  5
47E
102
{ACAD_REACTORS
330
46A
102
}
330
46A
100
AcDbXrecord
280
     1
 90
        0
  0
XRECORD
  5
47F
102
{ACAD_REACTORS
330
46A
102
}
330
46A
100
AcDbXrecord
280
     1
 90
        0
  0
XRECORD
  5
480
102
{ACAD_REACTORS
330
46A
102
}
330
46A
100
AcDbXrecord
280
     1
 90
        0
  0
XRECORD
  5
481
102
{ACAD_REACTORS
330
46A
102
}
330
46A
100
AcDbXrecord
280
     1
 90
        0
  0
XRECORD
  5
482
102
{ACAD_REACTORS
330
46A
102
}
330
46A
100
AcDbXrecord
280
     1
1000
auto
  0
XRECORD
  5
483
102
{ACAD_REACTORS
330
46A
102
}
330
46A
100
AcDbXrecord
280
     1
1000
auto
  0
XRECORD
  5
484
102
{ACAD_REACTORS
330
46A
102
}
330
46A
100
AcDbXrecord
280
     1
1000
auto
  0
XRECORD
  5
485
102
{ACAD_REACTORS
330
46A
102
}
330
46A
100
AcDbXrecord
280
     1
1000
auto
  0
XRECORD
  5
486
102
{ACAD_REACTORS
330
46A
102
}
330
46A
100
AcDbXrecord
280
     1
1000
auto
  0
XRECORD
  5
487
102
{ACAD_REACTORS
330
46A
102
}
330
46A
100
AcDbXrecord
280
     1
1000
auto
  0
XRECORD
  5
488
102
{ACAD_REACTORS
330
46A
102
}
330
46A
100
AcDbXrecord
280
     1
1000
auto
  0
XRECORD
  5
489
102
{ACAD_REACTORS
330
46A
102
}
330
46A
100
AcDbXrecord
280
     1
1000
auto
  0
XRECORD
  5
48A
102
{ACAD_REACTORS
330
46A
102
}
330
46A
100
AcDbXrecord
280
     1
 90
        1
  0
XRECORD
  5
48B
102
{ACAD_REACTORS
330
46A
102
}
330
46A
100
AcDbXrecord
280
     1
 40
10.0
  0
XRECORD
  5
48C
102
{ACAD_REACTORS
330
46A
102
}
330
46A
100
AcDbXrecord
280
     1
 40
10.0
  0
XRECORD
  5
48D
102
{ACAD_REACTORS
330
46A
102
}
330
46A
100
AcDbXrecord
280
     1
 40
10.0
  0
XRECORD
  5
48E
102
{ACAD_REACTORS
330
46A
102
}
330
46A
100
AcDbXrecord
280
     1
 40
10.0
  0
XRECORD
  5
48F
102
{ACAD_REACTORS
330
46A
102
}
330
46A
100
AcDbXrecord
280
     1
290
     0
  0
XRECORD
  5
490
102
{ACAD_REACTORS
330
46A
102
}
330
46A
100
AcDbXrecord
280
     1
 90
        1
  0
XRECORD
  5
491
102
{ACAD_REACTORS
330
46A
102
}
330
46A
100
AcDbXrecord
280
     1
 40
-107.95
  0
XRECORD
  5
492
102
{ACAD_REACTORS
330
46A
102
}
330
46A
100
AcDbXrecord
280
     1
 40
-139.7
  0
XRECORD
  5
493
102
{ACAD_REACTORS
330
46A
102
}
330
46A
100
AcDbXrecord
280
     1
1000
Portrait
  0
XRECORD
  5
494
102
{ACAD_REACTORS
330
46A
102
}
330
46A
100
AcDbXrecord
280
     1
 40
279.4
  0
XRECORD
  5
495
102
{ACAD_REACTORS
330
46A
102
}
330
46A
100
AcDbXrecord
280
     1
 40
215.9
  0
XRECORD
  5
496
102
{ACAD_REACTORS
330
46A
102
}
330
46A
100
AcDbXrecord
280
     1
1000
1:1
  0
XRECORD
  5
497
102
{ACAD_REACTORS
330
46A
102
}
330
46A
100
AcDbXrecord
280
     1
290
     1
  0
XRECORD
  5
46B
102
{ACAD_REACTORS
330
46A
102
}
330
46A
100
AcDbXrecord
280
     1
1000
3.16.2
  0
XRECORD
  5
498
102
{ACAD_REACTORS
330
46A
102
}
330
46A
100
AcDbXrecord
280
     1
 90
        4
  0
XRECORD
  5
499
102
{ACAD_REACTORS
330
46A
102
}
330
46A
100
AcDbXrecord
280
     1
  0
XRECORD
  5
49A
102
{ACAD_REACTORS
330
46A
102
}
330
46A
100
AcDbXrecord
280
     1
 40
91.78832572702619
  0
XRECORD
  5
49B
102
{ACAD_REACTORS
330
46A
102
}
330
46A
100
AcDbXrecord
280
     1
 40
171.8333664785881
  0
DICTIONARY
  5
4DE
330
465
100
AcDbDictionary
280
     1
281
     1
  3
ACAD_ROUNDTRIP_2008_TABLESTYLE_CELLSTYLEMAP
360
4DF
  0
CELLSTYLEMAP
  5
4DF
102
{ACAD_REACTORS
330
4DE
102
}
330
4DE
100
AcDbCellStyleMap
 90
        3
300
CELLSTYLE
  1
TABLEFORMAT_BEGIN
 90
        5
170
     1
 91
        0
 92
    32768
 62
   257
 93
        1
300
CONTENTFORMAT
  1
CONTENTFORMAT_BEGIN
 90
        0
 91
        0
 92
        4
 93
        0
300

 40
0.0
140
1.0
 94
        5
 62
     0
340
40D
144
0.25
309
CONTENTFORMAT_END
171
     1
301
MARGIN
  1
CELLMARGIN_BEGIN
 40
0.06
 40
0.06
 40
0.06
 40
0.06
 40
0.06
 40
0.06
309
CELLMARGIN_END
 94
        6
 95
        1
302
GRIDFORMAT
  1
GRIDFORMAT_BEGIN
 90
        0
 91
        1
 62
     0
 92
       -2
340
40F
 93
        0
 40
0.045
309
GRIDFORMAT_END
 95
        2
302
GRIDFORMAT
  1
GRIDFORMAT_BEGIN
 90
        0
 91
        1
 62
     0
 92
       -2
340
40F
 93
        0
 40
0.045
309
GRIDFORMAT_END
 95
        4
302
GRIDFORMAT
  1
GRIDFORMAT_BEGIN
 90
        0
 91
        1
 62
     0
 92
       -2
340
40F
 93
        0
 40
0.045
309
GRIDFORMAT_END
 95
        8
302
GRIDFORMAT
  1
GRIDFORMAT_BEGIN
 90
        0
 91
        1
 62
     0
 92
       -2
340
40F
 93
        0
 40
0.045
309
GRIDFORMAT_END
 95
       16
302
GRIDFORMAT
  1
GRIDFORMAT_BEGIN
 90
        0
 91
        1
 62
     0
 92
       -2
340
40F
 93
        0
 40
0.045
309
GRIDFORMAT_END
 95
       32
302
GRIDFORMAT
  1
GRIDFORMAT_BEGIN
 90
        0
 91
        1
 62
     0
 92
       -2
340
40F
 93
        0
 40
0.045
309
GRIDFORMAT_END
309
TABLEFORMAT_END
  1
CELLSTYLE_BEGIN
 90
        1
 91
        1
300
_TITLE
309
CELLSTYLE_END
300
CELLSTYLE
  1
TABLEFORMAT_BEGIN
 90
        5
170
     1
 91
        0
 92
        0
 62
   257
 93
        1
300
CONTENTFORMAT
  1
CONTENTFORMAT_BEGIN
 90
        0
 91
        0
 92
        4
 93
        0
300

 40
0.0
140
1.0
 94
        5
 62
     0
340
40D
144
0.18
309
CONTENTFORMAT_END
171
     1
301
MARGIN
  1
CELLMARGIN_BEGIN
 40
0.06
 40
0.06
 40
0.06
 40
0.06
 40
0.06
 40
0.06
309
CELLMARGIN_END
 94
        6
 95
        1
302
GRIDFORMAT
  1
GRIDFORMAT_BEGIN
 90
        0
 91
        1
 62
     0
 92
       -2
340
40F
 93
        0
 40
0.045
309
GRIDFORMAT_END
 95
        2
302
GRIDFORMAT
  1
GRIDFORMAT_BEGIN
 90
        0
 91
        1
 62
     0
 92
       -2
340
40F
 93
        0
 40
0.045
309
GRIDFORMAT_END
 95
        4
302
GRIDFORMAT
  1
GRIDFORMAT_BEGIN
 90
        0
 91
        1
 62
     0
 92
       -2
340
40F
 93
        0
 40
0.045
309
GRIDFORMAT_END
 95
        8
302
GRIDFORMAT
  1
GRIDFORMAT_BEGIN
 90
        0
 91
        1
 62
     0
 92
       -2
340
40F
 93
        0
 40
0.045
309
GRIDFORMAT_END
 95
       16
302
GRIDFORMAT
  1
GRIDFORMAT_BEGIN
 90
        0
 91
        1
 62
     0
 92
       -2
340
40F
 93
        0
 40
0.045
309
GRIDFORMAT_END
 95
       32
302
GRIDFORMAT
  1
GRIDFORMAT_BEGIN
 90
        0
 91
        1
 62
     0
 92
       -2
340
40F
 93
        0
 40
0.045
309
GRIDFORMAT_END
309
TABLEFORMAT_END
  1
CELLSTYLE_BEGIN
 90
        2
 91
        1
300
_HEADER
309
CELLSTYLE_END
300
CELLSTYLE
  1
TABLEFORMAT_BEGIN
 90
        5
170
     1
 91
        0
 92
        0
 62
   257
 93
        1
300
CONTENTFORMAT
  1
CONTENTFORMAT_BEGIN
 90
        0
 91
        0
 92
        4
 93
        0
300

 40
0.0
140
1.0
 94
        2
 62
     0
340
40D
144
0.18
309
CONTENTFORMAT_END
171
     1
301
MARGIN
  1
CELLMARGIN_BEGIN
 40
0.06
 40
0.06
 40
0.06
 40
0.06
 40
0.06
 40
0.06
309
CELLMARGIN_END
 94
        6
 95
        1
302
GRIDFORMAT
  1
GRIDFORMAT_BEGIN
 90
        0
 91
        1
 62
     0
 92
       -2
340
40F
 93
        0
 40
0.045
309
GRIDFORMAT_END
 95
        2
302
GRIDFORMAT
  1
GRIDFORMAT_BEGIN
 90
        0
 91
        1
 62
     0
 92
       -2
340
40F
 93
        0
 40
0.045
309
GRIDFORMAT_END
 95
        4
302
GRIDFORMAT
  1
GRIDFORMAT_BEGIN
 90
        0
 91
        1
 62
     0
 92
       -2
340
40F
 93
        0
 40
0.045
309
GRIDFORMAT_END
 95
        8
302
GRIDFORMAT
  1
GRIDFORMAT_BEGIN
 90
        0
 91
        1
 62
     0
 92
       -2
340
40F
 93
        0
 40
0.045
309
GRIDFORMAT_END
 95
       16
302
GRIDFORMAT
  1
GRIDFORMAT_BEGIN
 90
        0
 91
        1
 62
     0
 92
       -2
340
40F
 93
        0
 40
0.045
309
GRIDFORMAT_END
 95
       32
302
GRIDFORMAT
  1
GRIDFORMAT_BEGIN
 90
        0
 91
        1
 62
     0
 92
       -2
340
40F
 93
        0
 40
0.045
309
GRIDFORMAT_END
309
TABLEFORMAT_END
  1
CELLSTYLE_BEGIN
 90
        3
 91
        2
300
_DATA
309
CELLSTYLE_END
  0
ENDSEC
  0
EOF
