%
M48
M72
T01C0.0236
T02C0.0240
T03C0.0320
T04C0.0520
%
T01
X16340Y12830
X16340Y16600
T02
X14220Y16720
X11930Y12760
X9640Y13690
X9300Y15880
T03
X12600Y15600
X15600Y16600
X15600Y18600
X12600Y19600
X5600Y20100
X4600Y16600
X1600Y16100
X1600Y14100
X4600Y12600
X7100Y8600
X9100Y8600
X1600Y20100
T04
X3100Y2170
X7670Y3100
X3100Y11030
X16530Y3100
M30
