#define happy_2_7_width 264
#define happy_2_7_height 176
static char happy_2_7_bits[] = {
  0x00, 0x00, 0x00, 0x00, 0x00, 0x00, 0x00, 0x00, 0x00, 0x00, 0x00, 0x00, 
  0x00, 0x00, 0x00, 0x00, 0x00, 0x00, 0x00, 0x00, 0x00, 0x00, 0x00, 0x00, 
  0x00, 0x00, 0x00, 0x00, 0x00, 0x00, 0x00, 0x00, 0x00, 0x00, 0x00, 0x00, 
  0x00, 0x00, 0x00, 0x00, 0x00, 0x00, 0x00, 0x00, 0x00, 0x00, 0x00, 0x00, 
  0x00, 0x00, 0x00, 0x00, 0x00, 0x00, 0x00, 0x00, 0x00, 0x00, 0x00, 0x00, 
  0x00, 0x00, 0x00, 0x00, 0x00, 0x00, 0x00, 0x00, 0x00, 0x00, 0x00, 0x00, 
  0x00, 0x00, 0x00, 0x00, 0x00, 0x00, 0x00, 0x00, 0x00, 0x00, 0x00, 0x00, 
  0x00, 0x00, 0x00, 0x00, 0x00, 0x00, 0x00, 0x00, 0x00, 0x00, 0x00, 0x00, 
  0x00, 0x00, 0x00, 0x00, 0x00, 0x00, 0x00, 0x00, 0x00, 0x00, 0x00, 0x00, 
  0x00, 0x00, 0x00, 0x00, 0x00, 0x00, 0x00, 0x00, 0x00, 0x00, 0x00, 0x00, 
  0x00, 0x00, 0x00, 0x00, 0x00, 0x00, 0x00, 0x00, 0x00, 0x00, 0x00, 0x00, 
  0x00, 0x00, 0x00, 0x00, 0x00, 0x00, 0x00, 0x00, 0x00, 0x00, 0x00, 0x00, 
  0x00, 0x00, 0x00, 0x00, 0x00, 0x00, 0x00, 0x00, 0x00, 0x00, 0x00, 0x00, 
  0x00, 0x00, 0x00, 0x00, 0x00, 0x00, 0x00, 0x00, 0x00, 0x00, 0x00, 0x00, 
  0x00, 0x00, 0x00, 0x00, 0x00, 0x00, 0x00, 0x00, 0x00, 0x00, 0x00, 0x00, 
  0x00, 0x00, 0x00, 0x00, 0x00, 0x00, 0x00, 0x00, 0x00, 0x00, 0x00, 0x00, 
  0x00, 0x00, 0x00, 0x00, 0x00, 0x00, 0x00, 0x00, 0x00, 0x00, 0x00, 0x00, 
  0x00, 0x00, 0x00, 0x00, 0x00, 0x00, 0x00, 0x00, 0x00, 0x00, 0x00, 0x00, 
  0x00, 0x00, 0x00, 0x00, 0x00, 0x00, 0x00, 0x00, 0x00, 0x00, 0x00, 0x00, 
  0x00, 0x00, 0x00, 0x00, 0x00, 0x00, 0x00, 0x00, 0x00, 0x00, 0x00, 0x00, 
  0x00, 0x00, 0x00, 0x00, 0x00, 0x00, 0x00, 0x00, 0x00, 0x00, 0x00, 0x00, 
  0x00, 0x00, 0x00, 0x00, 0x00, 0x00, 0x00, 0x00, 0x00, 0x00, 0x00, 0x00, 
  0x00, 0x00, 0x00, 0x00, 0x00, 0x00, 0x00, 0x00, 0x00, 0x00, 0x00, 0x00, 
  0x00, 0x00, 0x00, 0x00, 0x00, 0x00, 0x00, 0x00, 0x00, 0x00, 0x00, 0x00, 
  0x00, 0x00, 0x00, 0x00, 0x00, 0x00, 0x00, 0x00, 0x00, 0x00, 0x00, 0x00, 
  0x00, 0x00, 0x00, 0x00, 0x00, 0x00, 0x00, 0x00, 0x00, 0x00, 0x00, 0x00, 
  0x00, 0x00, 0x00, 0x00, 0x00, 0x00, 0x00, 0x00, 0x00, 0x00, 0x00, 0x00, 
  0x00, 0x00, 0x00, 0x00, 0x00, 0x00, 0x00, 0x00, 0x00, 0x00, 0x00, 0x00, 
  0x00, 0x00, 0x00, 0x00, 0x00, 0x00, 0x00, 0x00, 0x00, 0x00, 0x00, 0x00, 
  0x00, 0x00, 0x00, 0x00, 0x00, 0x00, 0x00, 0x00, 0x00, 0x00, 0x00, 0x00, 
  0x00, 0x00, 0x00, 0x00, 0x00, 0x00, 0x00, 0x00, 0x00, 0x00, 0x00, 0x00, 
  0x00, 0x00, 0x00, 0x00, 0x00, 0x00, 0x00, 0x00, 0x00, 0x00, 0x00, 0x00, 
  0x00, 0x00, 0x00, 0x00, 0x00, 0x00, 0x00, 0x00, 0x00, 0x00, 0x00, 0x00, 
  0x00, 0x00, 0x00, 0x00, 0x00, 0x00, 0x00, 0x00, 0x00, 0x00, 0x00, 0x00, 
  0x00, 0x00, 0x00, 0x00, 0x00, 0x00, 0x00, 0x00, 0x00, 0x00, 0x00, 0x00, 
  0x00, 0x00, 0x00, 0x00, 0x00, 0x00, 0x00, 0x00, 0x00, 0x00, 0x00, 0x00, 
  0x00, 0x00, 0x00, 0x00, 0x00, 0x00, 0x00, 0x00, 0x00, 0x00, 0x00, 0x00, 
  0x00, 0x00, 0x00, 0x00, 0x00, 0x00, 0x00, 0x00, 0x00, 0x00, 0x00, 0x00, 
  0x00, 0x00, 0x00, 0x00, 0x00, 0x00, 0x00, 0x00, 0x00, 0x00, 0x00, 0x00, 
  0x00, 0x00, 0x00, 0x00, 0x00, 0x00, 0x00, 0x00, 0x00, 0x00, 0x00, 0x00, 
  0x00, 0x00, 0x00, 0x00, 0x00, 0x00, 0x00, 0x00, 0x00, 0x00, 0x00, 0x00, 
  0x00, 0x00, 0x00, 0x00, 0x00, 0x00, 0x00, 0x00, 0x00, 0xFF, 0x03, 0x00, 
  0x00, 0x00, 0x00, 0x00, 0x00, 0x00, 0x00, 0x00, 0x00, 0x00, 0x00, 0x00, 
  0x00, 0x00, 0x00, 0x00, 0x00, 0x00, 0x00, 0x00, 0x00, 0x00, 0x00, 0x00, 
  0x00, 0x00, 0x00, 0x00, 0x00, 0x80, 0xCB, 0x1E, 0x00, 0x00, 0x00, 0x00, 
  0x00, 0x00, 0x00, 0x00, 0x00, 0x00, 0x00, 0x00, 0x00, 0x00, 0x00, 0x00, 
  0x00, 0x00, 0x00, 0x00, 0x00, 0x00, 0x00, 0x00, 0x00, 0x00, 0x00, 0x00, 
  0x00, 0x00, 0x40, 0x10, 0x78, 0x00, 0x00, 0x00, 0x00, 0x00, 0x00, 0x00, 
  0x00, 0x00, 0x00, 0x00, 0x00, 0x00, 0x00, 0x00, 0x00, 0x00, 0x00, 0x00, 
  0x00, 0x00, 0x00, 0x00, 0x00, 0x00, 0x00, 0x00, 0x00, 0x00, 0x00, 0xC0, 
  0xA6, 0x83, 0x00, 0x00, 0x00, 0x00, 0x00, 0x00, 0x00, 0x00, 0x00, 0x00, 
  0x00, 0x00, 0x00, 0x00, 0x00, 0x00, 0x00, 0x00, 0x00, 0x00, 0x00, 0x00, 
  0x00, 0x00, 0x00, 0x00, 0x00, 0x00, 0x00, 0x00, 0x20, 0xE4, 0xB4, 0x01, 
  0x00, 0x00, 0x00, 0x00, 0x00, 0x00, 0x00, 0x00, 0x00, 0x00, 0x00, 0x00, 
  0x00, 0x00, 0x00, 0x00, 0x00, 0x00, 0x00, 0x00, 0x00, 0x00, 0x00, 0x00, 
  0x00, 0x00, 0x00, 0x00, 0x00, 0xA0, 0x11, 0x47, 0x03, 0x00, 0x00, 0x00, 
  0x00, 0x00, 0x00, 0x00, 0x00, 0x00, 0x00, 0x00, 0x00, 0x00, 0x00, 0x00, 
  0x00, 0x00, 0x00, 0x00, 0x00, 0x00, 0x00, 0x00, 0x00, 0x00, 0x00, 0x00, 
  0x00, 0x00, 0x60, 0x65, 0x62, 0x06, 0x00, 0x00, 0x00, 0x00, 0x00, 0x00, 
  0x00, 0x00, 0x00, 0x00, 0x00, 0x00, 0x00, 0x00, 0x00, 0x00, 0x00, 0x00, 
  0x00, 0x00, 0x00, 0x00, 0x00, 0x00, 0x00, 0x00, 0x00, 0x00, 0x00, 0xB0, 
  0x44, 0x0D, 0x0C, 0x00, 0x00, 0x00, 0x00, 0x00, 0x00, 0x00, 0x00, 0x00, 
  0x00, 0x00, 0x00, 0x00, 0x00, 0x00, 0x00, 0x00, 0x00, 0x00, 0x00, 0x00, 
  0x00, 0x00, 0x00, 0x00, 0x00, 0x00, 0x00, 0x00, 0x30, 0x99, 0xB5, 0x09, 
  0x00, 0x00, 0x00, 0x00, 0x00, 0x00, 0x00, 0x00, 0x00, 0x00, 0x00, 0x00, 
  0x00, 0x00, 0x00, 0x00, 0x00, 0x00, 0x00, 0x00, 0x00, 0x00, 0x00, 0x00, 
  0x00, 0x00, 0x00, 0x00, 0x00, 0xB0, 0x88, 0x36, 0x12, 0x00, 0x00, 0x00, 
  0x00, 0x00, 0x00, 0x00, 0x00, 0x00, 0x00, 0x00, 0x00, 0x00, 0x00, 0x00, 
  0x00, 0x00, 0x00, 0x00, 0x00, 0x00, 0x00, 0x00, 0x00, 0x00, 0x00, 0x00, 
  0x00, 0x00, 0x88, 0x33, 0x86, 0x36, 0x00, 0x00, 0x00, 0x00, 0x00, 0x00, 
  0x00, 0x00, 0x00, 0x00, 0x00, 0x00, 0x00, 0x00, 0x00, 0x00, 0x00, 0x00, 
  0x00, 0x00, 0x00, 0x00, 0x00, 0x00, 0x00, 0x00, 0x00, 0x00, 0x00, 0x38, 
  0xAA, 0x5F, 0x40, 0x00, 0x00, 0x00, 0x00, 0x00, 0x00, 0x00, 0x00, 0x00, 
  0x00, 0x00, 0x00, 0x00, 0x00, 0x00, 0x00, 0x00, 0x00, 0x00, 0x00, 0x00, 
  0x00, 0x00, 0x00, 0x00, 0x00, 0x00, 0x00, 0x00, 0x48, 0x88, 0x41, 0xED, 
  0x00, 0x00, 0x00, 0x00, 0x00, 0x00, 0x00, 0x00, 0x00, 0x00, 0x00, 0x00, 
  0x00, 0x00, 0x00, 0x00, 0x00, 0x00, 0x00, 0x00, 0x00, 0x00, 0x00, 0x00, 
  0x00, 0x00, 0x00, 0x00, 0x00, 0x64, 0x25, 0xB9, 0x42, 0x01, 0x00, 0x00, 
  0x00, 0x00, 0x00, 0x00, 0x00, 0x00, 0x00, 0x00, 0x00, 0x00, 0x00, 0x00, 
  0x00, 0x00, 0x00, 0x00, 0x00, 0x00, 0x00, 0x00, 0x00, 0x00, 0x00, 0x00, 
  0x00, 0x00, 0x9C, 0xE0, 0x03, 0x36, 0x02, 0x00, 0x00, 0x00, 0x00, 0x00, 
  0x00, 0x00, 0x00, 0x00, 0x00, 0x00, 0x00, 0x00, 0x00, 0x00, 0x00, 0x00, 
  0x00, 0x00, 0x00, 0x00, 0x00, 0x00, 0x00, 0x00, 0x00, 0x00, 0x00, 0x04, 
  0x82, 0x68, 0x80, 0x05, 0x00, 0x00, 0x00, 0x00, 0x00, 0x00, 0x00, 0x00, 
  0x00, 0x00, 0x00, 0x00, 0x00, 0x00, 0x00, 0x00, 0x00, 0x00, 0x00, 0x00, 
  0x00, 0x00, 0x00, 0x00, 0x00, 0x00, 0x00, 0x00, 0x98, 0xE4, 0x4A, 0xAD, 
  0x0C, 0x00, 0x00, 0x00, 0x00, 0x00, 0x00, 0x00, 0x00, 0x00, 0x00, 0x00, 
  0x00, 0x00, 0x00, 0x00, 0x00, 0x00, 0x00, 0x00, 0x00, 0x00, 0x00, 0x00, 
  0x00, 0x00, 0x00, 0x00, 0x00, 0x70, 0x50, 0x36, 0x91, 0x18, 0x00, 0x00, 
  0x00, 0x00, 0x00, 0x00, 0x00, 0x00, 0x00, 0x00, 0x00, 0x20, 0x00, 0x00, 
  0x00, 0x00, 0x00, 0x00, 0x00, 0x00, 0x00, 0x00, 0x00, 0x00, 0x00, 0x00, 
  0x00, 0x00, 0xEC, 0xA1, 0x81, 0x66, 0x36, 0x00, 0x00, 0x00, 0x00, 0x00, 
  0x00, 0x00, 0x00, 0x00, 0x00, 0x00, 0x70, 0x00, 0x00, 0x00, 0x00, 0x00, 
  0x00, 0x00, 0x00, 0x00, 0x00, 0x00, 0x00, 0x00, 0x00, 0x00, 0x00, 0x2A, 
  0xA7, 0x58, 0x40, 0x52, 0x00, 0x00, 0x00, 0x00, 0x00, 0x00, 0x00, 0x00, 
  0x00, 0x00, 0x00, 0xF8, 0x00, 0x00, 0x00, 0x00, 0x00, 0x00, 0x00, 0x00, 
  0x00, 0x00, 0x00, 0x00, 0x00, 0x00, 0x00, 0x00, 0x95, 0x3C, 0x46, 0x9D, 
  0xC9, 0x00, 0x00, 0x00, 0x00, 0x00, 0x00, 0x00, 0x00, 0x00, 0x00, 0x00, 
  0xE4, 0x01, 0x00, 0x00, 0x00, 0x00, 0x00, 0x00, 0x00, 0x00, 0x00, 0x00, 
  0x00, 0x00, 0x00, 0x00, 0x80, 0x95, 0x6A, 0x32, 0x42, 0x88, 0x03, 0x00, 
  0x00, 0x00, 0x00, 0x00, 0x00, 0x00, 0x00, 0x00, 0x00, 0xC6, 0x03, 0x00, 
  0x00, 0x00, 0x00, 0x00, 0x00, 0x00, 0x00, 0x00, 0x00, 0x00, 0x00, 0x00, 
  0x00, 0x80, 0x00, 0x08, 0x84, 0x36, 0xAA, 0x06, 0x00, 0x00, 0x00, 0x00, 
  0x00, 0x00, 0x00, 0x00, 0x00, 0x00, 0xA1, 0x07, 0x00, 0x00, 0x00, 0x00, 
  0x00, 0x00, 0x00, 0x00, 0x00, 0x00, 0x00, 0x00, 0x00, 0x00, 0x80, 0xF1, 
  0xFF, 0x68, 0xA0, 0x32, 0x09, 0x00, 0x00, 0x00, 0x00, 0x00, 0x00, 0x00, 
  0x00, 0x00, 0x80, 0xA8, 0x0D, 0x00, 0x00, 0x00, 0x00, 0x00, 0x00, 0x00, 
  0x00, 0x00, 0x00, 0x00, 0x00, 0x00, 0x00, 0x00, 0x0F, 0x00, 0x41, 0x8D, 
  0x89, 0x16, 0x00, 0x00, 0x00, 0x00, 0x00, 0x00, 0x00, 0x00, 0x00, 0x00, 
  0x89, 0x1F, 0x00, 0x00, 0x00, 0x00, 0x00, 0x00, 0x00, 0x00, 0x00, 0x00, 
  0x00, 0x00, 0x00, 0x00, 0x00, 0x00, 0x00, 0x3E, 0x52, 0x66, 0x12, 0x00, 
  0x00, 0x00, 0x00, 0x00, 0x00, 0x00, 0x00, 0x00, 0x00, 0x42, 0x3F, 0x00, 
  0x00, 0x00, 0x00, 0x00, 0x00, 0x00, 0x00, 0x00, 0x00, 0x00, 0x00, 0x00, 
  0x00, 0x00, 0x00, 0x00, 0xA0, 0x19, 0x91, 0x19, 0x00, 0x00, 0x00, 0x00, 
  0x00, 0x00, 0x00, 0x00, 0x00, 0x00, 0x64, 0x74, 0x00, 0x00, 0x00, 0x00, 
  0x00, 0x00, 0x00, 0x00, 0x00, 0x00, 0x00, 0x00, 0x00, 0x00, 0x00, 0x00, 
  0x00, 0xC0, 0xC9, 0x08, 0x19, 0x00, 0x00, 0x00, 0x00, 0x00, 0x00, 0x00, 
  0x00, 0x00, 0x00, 0x24, 0xFA, 0x00, 0x00, 0x00, 0x00, 0x00, 0x00, 0x00, 
  0x00, 0x00, 0x00, 0x00, 0x00, 0x00, 0x00, 0x00, 0x00, 0x00, 0x80, 0x24, 
  0x66, 0x0A, 0x00, 0x00, 0x00, 0x00, 0x00, 0x00, 0x00, 0x00, 0x00, 0x00, 
  0x88, 0xDA, 0x01, 0x00, 0x00, 0x00, 0x00, 0x00, 0x00, 0x00, 0x00, 0x00, 
  0x00, 0x00, 0x00, 0x00, 0x00, 0x00, 0x00, 0x00, 0x43, 0x42, 0x06, 0x00, 
  0x00, 0x00, 0x00, 0x00, 0x00, 0xE0, 0x03, 0x00, 0x00, 0x10, 0xE2, 0x03, 
  0x00, 0x00, 0x00, 0x00, 0x00, 0x00, 0x00, 0x00, 0x00, 0x00, 0x00, 0x00, 
  0x00, 0x00, 0x00, 0x00, 0x00, 0x3A, 0x99, 0x02, 0x00, 0x00, 0x00, 0x00, 
  0x00, 0x00, 0x98, 0x1E, 0x00, 0x00, 0x20, 0xAA, 0x07, 0x00, 0x00, 0x00, 
  0x00, 0x00, 0x00, 0x00, 0x00, 0x00, 0x00, 0x00, 0x00, 0x00, 0x00, 0x00, 
  0x00, 0x00, 0x8C, 0x95, 0x01, 0x00, 0x00, 0x00, 0x00, 0x00, 0x00, 0x9C, 
  0x61, 0x00, 0x00, 0x20, 0xD8, 0x0F, 0x00, 0x00, 0x00, 0x00, 0x00, 0x00, 
  0x00, 0x00, 0x00, 0x00, 0x00, 0x00, 0x00, 0x00, 0x00, 0x00, 0x00, 0xA8, 
  0xA4, 0x00, 0x00, 0x00, 0x00, 0x00, 0x00, 0x00, 0x4A, 0xEC, 0x01, 0x00, 
  0x40, 0xA2, 0x1E, 0x00, 0x00, 0x00, 0x00, 0x00, 0x00, 0x00, 0x00, 0x00, 
  0x00, 0x00, 0x00, 0x00, 0x00, 0x00, 0x00, 0x00, 0x50, 0x43, 0x00, 0x00, 
  0x00, 0x00, 0x00, 0x00, 0x00, 0xAE, 0x46, 0x06, 0x00, 0x80, 0x24, 0x3F, 
  0x00, 0x00, 0x00, 0x00, 0x00, 0x00, 0x00, 0x00, 0x00, 0x00, 0x00, 0x00, 
  0x00, 0x00, 0x00, 0x00, 0x00, 0x20, 0x38, 0x00, 0x00, 0x00, 0x00, 0x00, 
  0x00, 0x00, 0x81, 0x98, 0x1D, 0x00, 0x00, 0x91, 0x76, 0x00, 0x00, 0x00, 
  0x00, 0x00, 0x00, 0x00, 0x00, 0x00, 0x00, 0x00, 0x00, 0x00, 0x00, 0x00, 
  0x00, 0x00, 0xC0, 0x15, 0x00, 0x00, 0x00, 0x00, 0x00, 0x00, 0x00, 0x37, 
  0x91, 0x2A, 0x00, 0x00, 0x52, 0xFA, 0x00, 0x00, 0x00, 0x00, 0x00, 0x00, 
  0x00, 0x00, 0x00, 0x00, 0x00, 0x00, 0x00, 0x00, 0x00, 0x00, 0x00, 0x80, 
  0x0C, 0x00, 0x00, 0x00, 0x00, 0x00, 0x00, 0x00, 0x49, 0x26, 0x32, 0x00, 
  0x00, 0x42, 0xDA, 0x01, 0x00, 0x00, 0x00, 0x00, 0x00, 0x00, 0x00, 0x00, 
  0x00, 0x00, 0x00, 0x00, 0x00, 0x00, 0x00, 0x00, 0x80, 0x06, 0x00, 0x00, 
  0x00, 0x00, 0x00, 0x00, 0x80, 0x81, 0x26, 0x3C, 0x00, 0x00, 0x44, 0xBA, 
  0x03, 0x00, 0x00, 0x00, 0x00, 0x00, 0x00, 0x00, 0x00, 0x00, 0x00, 0x00, 
  0x00, 0x00, 0x00, 0x00, 0x00, 0x00, 0x03, 0x00, 0x00, 0x00, 0x00, 0x00, 
  0x00, 0x80, 0x36, 0x91, 0x21, 0x00, 0x00, 0x48, 0xE9, 0x07, 0x00, 0x00, 
  0x00, 0x00, 0x00, 0x00, 0x00, 0x00, 0x00, 0x00, 0x00, 0x00, 0x00, 0x00, 
  0x00, 0x00, 0x00, 0x00, 0x00, 0x00, 0x00, 0x00, 0x00, 0x00, 0xFC, 0xA0, 
  0x98, 0x26, 0x00, 0x00, 0x10, 0xE9, 0x0D, 0x00, 0x00, 0x00, 0x00, 0x00, 
  0x00, 0x00, 0x00, 0x00, 0x00, 0x00, 0x00, 0x00, 0x00, 0x00, 0x00, 0x00, 
  0x00, 0x00, 0x00, 0x00, 0x00, 0x00, 0xE0, 0xD3, 0x8D, 0x46, 0x32, 0x00, 
  0x00, 0x10, 0xE2, 0x1F, 0x00, 0x00, 0x00, 0x00, 0x00, 0x00, 0x00, 0x00, 
  0x00, 0x00, 0x00, 0x00, 0x00, 0x00, 0x00, 0x00, 0x00, 0x00, 0x00, 0x00, 
  0x00, 0x00, 0xC0, 0x3F, 0xD3, 0x2B, 0x13, 0x29, 0x00, 0x00, 0x20, 0xC4, 
  0x36, 0x00, 0x00, 0x00, 0x00, 0x00, 0x00, 0x00, 0x00, 0x00, 0x00, 0x00, 
  0x00, 0x00, 0x00, 0x00, 0x00, 0x00, 0x00, 0x00, 0x00, 0x00, 0x00, 0xA0, 
  0xCD, 0x88, 0x60, 0x68, 0x32, 0x00, 0x00, 0x40, 0x16, 0x7F, 0x00, 0x00, 
  0x00, 0x00, 0x00, 0x00, 0x00, 0x00, 0x00, 0x00, 0x00, 0x00, 0x00, 0x00, 
  0x00, 0x00, 0x00, 0x00, 0x00, 0x00, 0x00, 0x00, 0x30, 0x10, 0xE6, 0x16, 
  0x45, 0x36, 0x00, 0x00, 0x80, 0x60, 0xBE, 0x00, 0x00, 0x00, 0x00, 0x00, 
  0x00, 0x00, 0x00, 0x00, 0x00, 0x00, 0x00, 0x00, 0x00, 0x00, 0x00, 0x00, 
  0x00, 0x00, 0x00, 0x00, 0x00, 0x7C, 0x56, 0x94, 0xC4, 0x94, 0x29, 0x00, 
  0x00, 0x00, 0x29, 0xEE, 0x01, 0x00, 0x00, 0x00, 0x00, 0x00, 0x00, 0x00, 
  0x00, 0x00, 0x00, 0x00, 0x07, 0x00, 0x00, 0x00, 0x00, 0x00, 0x00, 0x00, 
  0x00, 0x00, 0x5E, 0xC3, 0x11, 0x67, 0x11, 0x28, 0x00, 0x00, 0x00, 0xA1, 
  0xFF, 0x03, 0x00, 0x00, 0x00, 0x00, 0x00, 0x00, 0x00, 0x00, 0x00, 0x00, 
  0x80, 0x0F, 0x00, 0x00, 0x00, 0x00, 0xC3, 0x30, 0x60, 0x00, 0x00, 0x3F, 
  0x18, 0x55, 0x11, 0x55, 0x36, 0x00, 0x00, 0x00, 0x82, 0xB8, 0x07, 0x00, 
  0x00, 0x00, 0x00, 0x00, 0x00, 0x00, 0x00, 0x00, 0x00, 0xC0, 0x1F, 0x00, 
  0x00, 0x00, 0x80, 0x24, 0x49, 0x90, 0x00, 0x80, 0xBF, 0x65, 0x4C, 0xC9, 
  0xCC, 0x22, 0x00, 0x00, 0x00, 0x24, 0xF2, 0x0F, 0x00, 0x00, 0x00, 0x00, 
  0x00, 0x00, 0x00, 0x00, 0x00, 0x00, 0xE0, 0x1F, 0x00, 0x00, 0x00, 0x80, 
  0x3C, 0xCF, 0x9F, 0xFF, 0xFF, 0x9E, 0x24, 0x91, 0x27, 0x11, 0x29, 0x00, 
  0x00, 0x00, 0x88, 0xC9, 0x1E, 0x00, 0x00, 0x00, 0x00, 0x00, 0x00, 0x00, 
  0x00, 0x00, 0x00, 0xE0, 0x3F, 0xFE, 0xFF, 0xFF, 0xFF, 0x38, 0x0A, 0x91, 
  0x12, 0x99, 0x3F, 0x8D, 0x22, 0x97, 0x66, 0x32, 0x00, 0x00, 0x00, 0x08, 
  0xD4, 0x37, 0x00, 0x00, 0x00, 0x00, 0x00, 0x00, 0x00, 0x00, 0x00, 0x00, 
  0xF0, 0xBF, 0x01, 0x00, 0x00, 0x80, 0x3C, 0x4F, 0x15, 0x56, 0xC2, 0x9F, 
  0xA0, 0xCC, 0x22, 0x81, 0x2C, 0x00, 0x00, 0x00, 0x10, 0x86, 0x7F, 0x00, 
  0x00, 0x00, 0x00, 0x00, 0x00, 0x00, 0x00, 0x00, 0x00, 0xF0, 0x7F, 0x00, 
  0x00, 0x00, 0x80, 0x38, 0x8C, 0x1C, 0xC1, 0xE6, 0xB7, 0x36, 0x51, 0x6E, 
  0x18, 0x25, 0x00, 0x00, 0x00, 0x20, 0x60, 0xFE, 0x00, 0x00, 0x00, 0x00, 
  0x00, 0x00, 0x00, 0x00, 0x00, 0x00, 0xF8, 0x3F, 0x00, 0x00, 0x00, 0x80, 
  0x18, 0x2F, 0x81, 0x1C, 0x98, 0x7D, 0x81, 0x16, 0x89, 0x66, 0x31, 0x00, 
  0x00, 0x00, 0x40, 0x2A, 0xE7, 0x01, 0x00, 0x00, 0x00, 0x00, 0x00, 0x00, 
  0x00, 0x00, 0x00, 0xF8, 0x5F, 0x00, 0x00, 0x00, 0x80, 0x3C, 0x96, 0x36, 
  0x62, 0x89, 0x3B, 0x99, 0xD4, 0x28, 0x42, 0x24, 0x00, 0x00, 0x00, 0x40, 
  0x88, 0xBE, 0x03, 0x00, 0x00, 0x00, 0x00, 0x00, 0x00, 0x00, 0x00, 0x00, 
  0xF8, 0x7F, 0x00, 0x00, 0x00, 0x80, 0x88, 0x8A, 0x41, 0x1A, 0xE6, 0xFE, 
  0x24, 0x09, 0x66, 0x99, 0x35, 0x00, 0x00, 0x00, 0x80, 0x68, 0xFC, 0x07, 
  0x00, 0x00, 0x00, 0x00, 0x00, 0x00, 0x00, 0x00, 0x00, 0xFC, 0x7F, 0x00, 
  0x00, 0x00, 0x80, 0x15, 0x06, 0x18, 0x81, 0xA4, 0x7F, 0x66, 0x69, 0x00, 
  0x95, 0x38, 0x00, 0x00, 0x00, 0x00, 0x21, 0xF9, 0x0D, 0x00, 0x00, 0x00, 
  0x00, 0x00, 0x00, 0x00, 0x00, 0x00, 0xFC, 0x77, 0xF8, 0xFB, 0xFE, 0xFF, 
  0x28, 0x63, 0x86, 0x6C, 0x99, 0xFB, 0x89, 0x22, 0xDB, 0x24, 0x23, 0x00, 
  0x00, 0x00, 0x00, 0x92, 0x65, 0x1F, 0x00, 0x00, 0x00, 0x00, 0x00, 0x00, 
  0x00, 0x00, 0x00, 0xFC, 0x7F, 0x00, 0x00, 0x00, 0x80, 0xA5, 0x14, 0x36, 
  0x64, 0x91, 0xDF, 0x13, 0x26, 0x12, 0x25, 0x1A, 0x00, 0x00, 0x00, 0x00, 
  0x44, 0xE8, 0x3B, 0x00, 0x00, 0x00, 0x00, 0x00, 0x00, 0x00, 0x00, 0x00, 
  0xFE, 0x7F, 0x00, 0x00, 0x00, 0x80, 0x14, 0xCF, 0x81, 0x19, 0x4C, 0xFB, 
  0x68, 0x90, 0x5A, 0x91, 0x0A, 0x00, 0x00, 0x00, 0x00, 0x04, 0x9A, 0x7F, 
  0x00, 0x00, 0x00, 0x00, 0x00, 0x00, 0x00, 0x00, 0x00, 0xFE, 0x6B, 0x00, 
  0x00, 0x00, 0x80, 0xA8, 0x42, 0x88, 0x89, 0x65, 0xEE, 0x05, 0x99, 0xC1, 
  0xAC, 0x07, 0x00, 0x00, 0x00, 0x00, 0x88, 0xE3, 0xE5, 0x00, 0x00, 0x00, 
  0x00, 0x00, 0x00, 0x00, 0x00, 0x00, 0xFE, 0x7F, 0x00, 0x00, 0x00, 0x80, 
  0x25, 0x26, 0x26, 0x62, 0x11, 0xFF, 0xD5, 0x46, 0x1C, 0x7A, 0x00, 0x00, 
  0x00, 0x00, 0x00, 0x10, 0x88, 0xBF, 0x01, 0x00, 0x00, 0x00, 0x00, 0x00, 
  0x00, 0x00, 0x00, 0xFE, 0x5F, 0xF8, 0xFF, 0xEF, 0xFF, 0x66, 0xD7, 0x99, 
  0x24, 0x94, 0xBC, 0x13, 0x26, 0xA2, 0x07, 0x00, 0x00, 0x00, 0x00, 0x00, 
  0x20, 0xB6, 0xDB, 0x03, 0x00, 0x00, 0x00, 0x00, 0x00, 0x00, 0x00, 0x00, 
  0xFE, 0x7F, 0x88, 0x48, 0x54, 0xC8, 0x88, 0x06, 0x64, 0xC9, 0x66, 0xEE, 
  0x57, 0x98, 0x7E, 0x00, 0x00, 0x00, 0x00, 0x00, 0x00, 0x20, 0x00, 0x7F, 
  0x07, 0x00, 0x00, 0x00, 0x00, 0x00, 0x00, 0x00, 0x00, 0xFE, 0x7F, 0x28, 
  0x00, 0x00, 0xC0, 0x13, 0x62, 0x26, 0x1A, 0x40, 0xFA, 0xCB, 0xE1, 0x07, 
  0x00, 0x00, 0x00, 0x00, 0x00, 0x00, 0x40, 0x68, 0xFC, 0x0F, 0x00, 0x00, 
  0x00, 0x00, 0x00, 0x00, 0x00, 0x00, 0xFE, 0x5F, 0x18, 0x00, 0x00, 0xD0, 
  0x64, 0x2E, 0x91, 0x52, 0x9B, 0xB9, 0x17, 0x7E, 0x00, 0x00, 0x00, 0x00, 
  0x00, 0x00, 0x00, 0x80, 0x48, 0xE9, 0x1E, 0x00, 0x00, 0x00, 0x00, 0x00, 
  0x00, 0x00, 0x00, 0xFE, 0x7F, 0x18, 0x00, 0x00, 0xC0, 0x22, 0xC2, 0x46, 
  0x62, 0x13, 0xDE, 0xFF, 0x07, 0x00, 0x00, 0x00, 0x00, 0x00, 0x00, 0x00, 
  0x00, 0x51, 0xF1, 0x2D, 0x00, 0x00, 0x00, 0x00, 0x00, 0x00, 0x00, 0x00, 
  0xFE, 0x5F, 0x08, 0x00, 0x00, 0xE0, 0xCC, 0x17, 0x98, 0x19, 0x68, 0xF9, 
  0x03, 0x00, 0x00, 0x00, 0x00, 0x00, 0x00, 0x00, 0x00, 0x00, 0x21, 0x75, 
  0x7F, 0x00, 0x00, 0x00, 0x00, 0x00, 0x00, 0x00, 0x00, 0xFE, 0x3B, 0x18, 
  0x00, 0x00, 0xC0, 0x11, 0x66, 0x93, 0x89, 0x45, 0xFC, 0x01, 0x00, 0x00, 
  0x00, 0x00, 0x00, 0x00, 0x00, 0x00, 0x00, 0xC2, 0xFC, 0xDF, 0x00, 0x00, 
  0x00, 0x00, 0x00, 0x00, 0x00, 0x00, 0xFE, 0x7F, 0x08, 0xF8, 0x01, 0xE0, 
  0x56, 0x26, 0x24, 0x64, 0x94, 0x7A, 0x00, 0x00, 0x00, 0x00, 0x00, 0x00, 
  0x00, 0x00, 0x00, 0x00, 0x04, 0x82, 0xF6, 0x01, 0x00, 0x00, 0x00, 0x00, 
  0x00, 0x00, 0x00, 0xFE, 0x5F, 0x08, 0xF8, 0x41, 0xC0, 0xD4, 0x93, 0x44, 
  0x64, 0x11, 0x0A, 0x00, 0x00, 0x00, 0x00, 0x00, 0x00, 0x00, 0x00, 0x00, 
  0x00, 0x88, 0xA9, 0xFD, 0x03, 0x00, 0x00, 0x00, 0x00, 0x00, 0x00, 0x00, 
  0xFE, 0x7F, 0x08, 0xF8, 0xC1, 0xE0, 0x09, 0xAE, 0x93, 0x89, 0x55, 0x0D, 
  0x00, 0x00, 0x00, 0x00, 0x00, 0x00, 0x00, 0x00, 0x00, 0x00, 0x10, 0x14, 
  0xBF, 0x07, 0x00, 0x00, 0x00, 0x00, 0x00, 0x00, 0x00, 0xFE, 0x7F, 0x18, 
  0x00, 0x00, 0xC0, 0x28, 0x02, 0x88, 0x19, 0xCC, 0x09, 0x00, 0x00, 0x00, 
  0x00, 0x00, 0x00, 0x00, 0x00, 0x00, 0x00, 0x10, 0x66, 0xE7, 0x0F, 0x00, 
  0x00, 0x00, 0x00, 0x00, 0x00, 0x00, 0xFE, 0x5F, 0x08, 0x00, 0x80, 0xE1, 
  0x22, 0xA6, 0x4A, 0x62, 0x11, 0x0C, 0x00, 0x00, 0x00, 0x00, 0x00, 0x00, 
  0x00, 0x00, 0x00, 0x00, 0x20, 0x90, 0xBC, 0x1E, 0x00, 0x00, 0x00, 0x00, 
  0x00, 0x00, 0x00, 0xFE, 0x7F, 0x08, 0x00, 0x00, 0xE2, 0x91, 0x56, 0x55, 
  0xAD, 0x44, 0x09, 0x00, 0x00, 0x00, 0x00, 0x00, 0x00, 0x00, 0x00, 0x00, 
  0x00, 0x40, 0x48, 0xBE, 0x37, 0x00, 0x00, 0x00, 0x00, 0x00, 0x00, 0x00, 
  0xFE, 0x5F, 0x18, 0x00, 0x00, 0xC3, 0x5C, 0x86, 0x82, 0x82, 0x33, 0x0D, 
  0x00, 0x00, 0x00, 0x00, 0x00, 0x00, 0x00, 0x00, 0x00, 0x00, 0x80, 0x90, 
  0xF1, 0x7F, 0x00, 0x00, 0x00, 0x00, 0x00, 0x00, 0x00, 0xFE, 0x3B, 0x08, 
  0x00, 0x00, 0xC3, 0x26, 0x4A, 0x4D, 0x38, 0x8A, 0x0C, 0x00, 0x00, 0x00, 
  0x00, 0x00, 0x00, 0x00, 0x00, 0x00, 0x00, 0x80, 0x98, 0xF6, 0xFE, 0x00, 
  0x00, 0x00, 0x00, 0x00, 0x00, 0x00, 0xFE, 0x7F, 0x08, 0x00, 0x00, 0xE3, 
  0x10, 0x16, 0x41, 0x43, 0xA8, 0x0A, 0x00, 0x00, 0x00, 0x00, 0x00, 0x00, 
  0x00, 0x00, 0x00, 0x00, 0x00, 0x21, 0xA4, 0xEB, 0x01, 0x00, 0x00, 0x00, 
  0x00, 0x00, 0x00, 0xFE, 0x5F, 0x08, 0x00, 0x00, 0xE3, 0x1A, 0xC3, 0xC8, 
  0x9C, 0x2B, 0x0E, 0x00, 0x00, 0x00, 0x00, 0x00, 0x00, 0x00, 0x00, 0x00, 
  0x00, 0x00, 0x42, 0xD1, 0xBE, 0x03, 0x00, 0x00, 0x00, 0x00, 0x00, 0x00, 
  0xFE, 0x7F, 0x08, 0x00, 0x00, 0xC3, 0x38, 0x8E, 0x13, 0x23, 0x90, 0x09, 
  0x00, 0x00, 0x00, 0x00, 0x00, 0x00, 0x00, 0x00, 0x00, 0x00, 0x00, 0x84, 
  0xA6, 0xF7, 0x07, 0x00, 0x00, 0x00, 0x00, 0x00, 0x00, 0xFE, 0x7F, 0x18, 
  0x00, 0x00, 0xC3, 0x18, 0x82, 0x89, 0x65, 0x96, 0x0C, 0x00, 0x00, 0x00, 
  0x00, 0x00, 0x00, 0x00, 0x00, 0x00, 0x00, 0x00, 0x48, 0x44, 0x7F, 0x0D, 
  0x00, 0x00, 0x00, 0x00, 0x00, 0x00, 0xFE, 0x5F, 0x08, 0x00, 0x00, 0xE3, 
  0x18, 0x8B, 0x8B, 0x89, 0x44, 0x0A, 0x00, 0x00, 0x00, 0x00, 0x00, 0x00, 
  0x00, 0x00, 0x00, 0x00, 0x00, 0x08, 0x99, 0xEE, 0x1F, 0x00, 0x00, 0x00, 
  0x00, 0x00, 0x00, 0xFE, 0x6F, 0x08, 0x00, 0x00, 0xC3, 0x3C, 0xCE, 0x85, 
  0xD8, 0x4A, 0x09, 0x00, 0x00, 0x00, 0x00, 0x00, 0x00, 0x00, 0x00, 0x00, 
  0x00, 0x00, 0x10, 0x88, 0xDE, 0x3F, 0x00, 0x00, 0x00, 0x00, 0x00, 0x00, 
  0xFE, 0x7F, 0x08, 0x00, 0x00, 0xE2, 0x00, 0x02, 0xC8, 0x06, 0x58, 0x0C, 
  0x00, 0x00, 0x00, 0x00, 0x00, 0x00, 0x00, 0x00, 0x00, 0x00, 0x00, 0x20, 
  0x32, 0xFA, 0x79, 0x00, 0x00, 0x00, 0x00, 0x00, 0x00, 0xFE, 0x7F, 0x08, 
  0x00, 0x80, 0xC1, 0x38, 0x83, 0x89, 0x61, 0x93, 0x0E, 0x00, 0x00, 0x00, 
  0x00, 0x00, 0x00, 0x00, 0x00, 0x00, 0x00, 0x00, 0x40, 0xAA, 0xAA, 0xFB, 
  0x00, 0x00, 0x00, 0x00, 0x00, 0x00, 0xFE, 0x67, 0x18, 0x00, 0x00, 0xE0, 
  0x0C, 0xCE, 0x84, 0x2A, 0x24, 0x09, 0x00, 0x00, 0x00, 0x00, 0x00, 0x00, 
  0x00, 0x00, 0x00, 0x00, 0x00, 0x40, 0x88, 0xF9, 0x6F, 0x01, 0x00, 0x00, 
  0x00, 0x00, 0x00, 0xFE, 0x7B, 0x08, 0x00, 0xC0, 0xC0, 0x28, 0x83, 0xC5, 
  0x8A, 0x46, 0x09, 0x00, 0x00, 0x00, 0x00, 0x00, 0x00, 0x00, 0x00, 0x00, 
  0x00, 0x00, 0x80, 0x20, 0xE8, 0xFF, 0x03, 0x00, 0x00, 0x00, 0x00, 0x00, 
  0xFE, 0x7F, 0x08, 0x00, 0x00, 0xE0, 0x18, 0x8A, 0x0B, 0xA5, 0x91, 0x0C, 
  0x00, 0xFC, 0xFF, 0x0F, 0x00, 0x00, 0x00, 0x00, 0x00, 0x00, 0x00, 0x00, 
  0xA1, 0x93, 0xBB, 0x07, 0x00, 0x00, 0x00, 0x00, 0x00, 0xFE, 0x6F, 0x08, 
  0xF8, 0x01, 0xC0, 0x2C, 0x8E, 0x80, 0x32, 0x98, 0x0E, 0x00, 0x6B, 0x1A, 
  0x73, 0x00, 0x00, 0x00, 0x00, 0x00, 0x00, 0x00, 0x00, 0x82, 0xEA, 0x99, 
  0x0D, 0x00, 0x00, 0x00, 0x00, 0x00, 0xFE, 0x3F, 0x18, 0xF8, 0x01, 0xC0, 
  0x08, 0x82, 0xC6, 0x89, 0x26, 0x39, 0x80, 0x4A, 0x52, 0xD8, 0x00, 0x00, 
  0x00, 0x00, 0x00, 0x00, 0x00, 0x00, 0x42, 0x88, 0xFF, 0x1F, 0x00, 0x00, 
  0x00, 0x00, 0x00, 0xFE, 0x5F, 0x08, 0xF8, 0x01, 0xC0, 0x0C, 0xC6, 0x80, 
  0x08, 0x08, 0xF8, 0x40, 0x12, 0xC9, 0x99, 0x01, 0x00, 0x00, 0x00, 0x00, 
  0x00, 0x00, 0x00, 0x44, 0x29, 0xBF, 0x36, 0x00, 0x00, 0x00, 0x00, 0x00, 
  0xFE, 0x77, 0x28, 0x00, 0x00, 0xE0, 0x20, 0x06, 0x8B, 0xB2, 0xA2, 0xFE, 
  0x71, 0x69, 0x16, 0x22, 0x03, 0x00, 0x00, 0x00, 0x00, 0x00, 0x00, 0x00, 
  0x08, 0x92, 0xFE, 0x7F, 0x00, 0x00, 0x00, 0x00, 0x00, 0xFE, 0x7F, 0x08, 
  0x00, 0x00, 0xC0, 0x08, 0x82, 0xC0, 0x01, 0x01, 0x7C, 0xDB, 0x49, 0x62, 
  0x66, 0x02, 0x00, 0x00, 0x00, 0x00, 0x00, 0x00, 0x00, 0x10, 0x96, 0x98, 
  0x7F, 0x00, 0x00, 0x00, 0x00, 0x00, 0xFE, 0x5F, 0x18, 0x00, 0x00, 0xE0, 
  0x0C, 0xC3, 0x00, 0x08, 0x88, 0xE8, 0x17, 0x94, 0x29, 0x89, 0x02, 0x00, 
  0x00, 0x00, 0x00, 0x00, 0x00, 0x00, 0x20, 0x48, 0xFF, 0x6E, 0x00, 0x00, 
  0x00, 0x00, 0x00, 0xFE, 0x6F, 0x08, 0x00, 0x00, 0xD0, 0x08, 0x83, 0x80, 
  0x00, 0x00, 0xB8, 0xFD, 0x12, 0x88, 0x28, 0x04, 0x00, 0x00, 0x00, 0x00, 
  0x00, 0x00, 0x00, 0x20, 0x48, 0xDE, 0x37, 0x00, 0x00, 0x00, 0x00, 0x00, 
  0xFE, 0x7F, 0x28, 0x00, 0x00, 0xE0, 0x0C, 0xC2, 0xC0, 0x00, 0x00, 0xE8, 
  0xDF, 0x55, 0xA6, 0x66, 0x07, 0x00, 0x00, 0x00, 0x00, 0x00, 0x00, 0x00, 
  0x10, 0x2A, 0x77, 0x1F, 0x00, 0x00, 0x00, 0x00, 0x00, 0xF6, 0x7F, 0x68, 
  0x69, 0x29, 0xC8, 0x08, 0x82, 0x80, 0x00, 0x00, 0xF8, 0xBF, 0x4D, 0x32, 
  0x02, 0x06, 0x00, 0x00, 0x00, 0x00, 0x00, 0x00, 0x00, 0x88, 0xB2, 0xDD, 
  0x0F, 0x00, 0x00, 0x00, 0x00, 0x00, 0xFE, 0x67, 0xF8, 0xFF, 0xFF, 0xFF, 
  0x08, 0x82, 0x80, 0x00, 0x00, 0x78, 0xFB, 0x93, 0x89, 0xD9, 0x04, 0x00, 
  0x00, 0x00, 0x00, 0x00, 0x00, 0x00, 0x04, 0xC9, 0xFF, 0x07, 0x00, 0x00, 
  0x00, 0x00, 0x00, 0xFE, 0x6F, 0x00, 0x00, 0x00, 0x80, 0x08, 0x82, 0xC0, 
  0x00, 0x00, 0xF8, 0xFF, 0x1E, 0x66, 0x44, 0x06, 0x00, 0x00, 0x00, 0x00, 
  0x00, 0x00, 0x00, 0xC2, 0x62, 0xDD, 0x02, 0x00, 0x00, 0x00, 0x00, 0x00, 
  0xF6, 0x7F, 0x00, 0x00, 0x00, 0x80, 0x0C, 0x82, 0x00, 0x08, 0x00, 0x78, 
  0x9B, 0xCF, 0x89, 0x96, 0x04, 0x00, 0x00, 0x00, 0x00, 0x00, 0x00, 0x00, 
  0x11, 0xEC, 0xF7, 0x01, 0x00, 0x00, 0x00, 0x00, 0x00, 0xF6, 0x5F, 0x00, 
  0x00, 0x00, 0x80, 0x08, 0xCB, 0x81, 0x44, 0x51, 0xFC, 0xB9, 0x77, 0x10, 
  0xA0, 0x05, 0x00, 0x00, 0x00, 0x00, 0x00, 0x00, 0x80, 0x90, 0xF1, 0xFF, 
  0x00, 0x00, 0x00, 0x00, 0x00, 0x00, 0xFE, 0x7F, 0x00, 0x00, 0x00, 0x80, 
  0x24, 0x82, 0xCC, 0x31, 0x8A, 0xB9, 0xFF, 0x3F, 0x66, 0x2B, 0x06, 0x00, 
  0x00, 0x00, 0x00, 0x00, 0x00, 0x40, 0x48, 0x79, 0x5E, 0x00, 0x00, 0x00, 
  0x00, 0x00, 0x00, 0xF4, 0x5F, 0xF8, 0xFF, 0xFF, 0xFF, 0x08, 0x82, 0x80, 
  0x20, 0x00, 0xF8, 0xFF, 0xF6, 0xC2, 0xA8, 0x06, 0x00, 0x00, 0x00, 0x00, 
  0x00, 0x00, 0x20, 0x50, 0xDC, 0x3B, 0x00, 0x00, 0x00, 0x00, 0x00, 0x00, 
  0xEC, 0x7F, 0x00, 0x00, 0x00, 0x80, 0x1C, 0x8E, 0x85, 0x8D, 0xB5, 0x6D, 
  0xBB, 0x5F, 0x19, 0x8A, 0x02, 0x00, 0x00, 0x00, 0x00, 0x00, 0x00, 0x10, 
  0xA6, 0xFB, 0x1F, 0x00, 0x00, 0x00, 0x00, 0x00, 0x00, 0xFC, 0x6F, 0x00, 
  0x00, 0x00, 0x80, 0x18, 0xC3, 0xCA, 0x92, 0x09, 0xFA, 0xA9, 0xFF, 0xA9, 
  0x33, 0x03, 0x00, 0x00, 0x00, 0x00, 0x00, 0x00, 0x88, 0x24, 0xFD, 0x0F, 
  0x00, 0x00, 0x00, 0x00, 0x00, 0x00, 0xE8, 0x7F, 0x00, 0x00, 0x00, 0x80, 
  0x18, 0x86, 0x02, 0x25, 0x64, 0xB8, 0xFF, 0xFB, 0x24, 0x48, 0x01, 0x00, 
  0x00, 0x00, 0x00, 0x00, 0x00, 0x04, 0x99, 0x6F, 0x07, 0x00, 0x00, 0x00, 
  0x00, 0x00, 0x00, 0xF8, 0x3F, 0x00, 0x00, 0x00, 0x80, 0x18, 0x86, 0x88, 
  0x23, 0xCB, 0xDB, 0xBF, 0xEE, 0xAC, 0xE8, 0x00, 0x00, 0x00, 0x00, 0x00, 
  0x00, 0x00, 0x82, 0xD2, 0xFF, 0x03, 0x00, 0x00, 0x00, 0x00, 0x00, 0x00, 
  0xD0, 0x7F, 0x00, 0x00, 0x00, 0x80, 0x18, 0xCA, 0xC6, 0xA8, 0x10, 0xFC, 
  0xF6, 0xFF, 0x81, 0x3B, 0x00, 0x00, 0x00, 0x00, 0x00, 0x00, 0x00, 0x61, 
  0x4C, 0xD9, 0x01, 0x00, 0x00, 0x00, 0x00, 0x00, 0x00, 0xF0, 0xBF, 0x01, 
  0x00, 0x00, 0x80, 0x1C, 0x86, 0x81, 0x19, 0xA6, 0x6E, 0x5F, 0x77, 0xFF, 
  0x07, 0x00, 0x00, 0x00, 0x00, 0x00, 0x00, 0x80, 0x28, 0xE1, 0xBB, 0x00, 
  0x00, 0x00, 0x00, 0x00, 0x00, 0x00, 0xA0, 0x3F, 0xFE, 0xFF, 0xFF, 0xFF, 
  0x38, 0xCE, 0x8D, 0xC5, 0xA4, 0xFF, 0xFD, 0xFE, 0x01, 0x00, 0x00, 0x00, 
  0x00, 0x00, 0x00, 0x00, 0x40, 0x90, 0xF5, 0x7F, 0x00, 0x00, 0x00, 0x00, 
  0x00, 0x00, 0x00, 0x60, 0x0F, 0x00, 0x00, 0x00, 0x80, 0x38, 0x8F, 0xCF, 
  0xFF, 0xFF, 0xEF, 0xDD, 0xFF, 0x00, 0x00, 0x00, 0x00, 0x00, 0x00, 0x00, 
  0x00, 0x20, 0x84, 0xFC, 0x3D, 0x00, 0x00, 0x00, 0x00, 0x00, 0x00, 0x00, 
  0xC0, 0x1E, 0x00, 0x00, 0x00, 0x80, 0xA4, 0x69, 0x68, 0x00, 0x80, 0xFF, 
  0x77, 0x5D, 0x00, 0x00, 0x00, 0x00, 0x00, 0x00, 0x00, 0x00, 0x10, 0x3A, 
  0x6D, 0x1F, 0x00, 0x00, 0x00, 0x00, 0x00, 0x00, 0x00, 0x80, 0x0B, 0x00, 
  0x00, 0x00, 0x00, 0xE3, 0xB0, 0x31, 0x00, 0x00, 0x7F, 0xDF, 0x75, 0x00, 
  0x00, 0x00, 0x00, 0x00, 0x00, 0x00, 0x00, 0x08, 0xA0, 0xF8, 0x0F, 0x00, 
  0x00, 0x00, 0x00, 0x00, 0x00, 0x00, 0x00, 0x07, 0x00, 0x00, 0x00, 0x00, 
  0x00, 0xC0, 0x0F, 0x00, 0x00, 0xDC, 0xFD, 0x3F, 0x00, 0x00, 0x00, 0x00, 
  0x00, 0x00, 0x00, 0x00, 0x90, 0x8D, 0xDF, 0x05, 0x00, 0x00, 0x00, 0x00, 
  0x00, 0x00, 0x00, 0x00, 0x00, 0x00, 0x00, 0x00, 0x00, 0x00, 0x40, 0x74, 
  0x00, 0x00, 0xF0, 0xDF, 0x1F, 0x00, 0x00, 0x00, 0x00, 0x00, 0x00, 0x00, 
  0x00, 0xA0, 0x92, 0xFD, 0x03, 0x00, 0x00, 0x00, 0x00, 0x00, 0x00, 0x00, 
  0x00, 0x00, 0x00, 0x00, 0x00, 0x00, 0x00, 0xC0, 0xD3, 0x07, 0x00, 0x80, 
  0xFF, 0x0E, 0x00, 0x00, 0x00, 0x00, 0x00, 0x00, 0x00, 0x00, 0x40, 0xDA, 
  0x6F, 0x01, 0x00, 0x00, 0x00, 0x00, 0x00, 0x00, 0x00, 0x00, 0x00, 0x00, 
  0x00, 0x00, 0x00, 0x00, 0x20, 0x88, 0x79, 0x00, 0x00, 0xE0, 0x03, 0x00, 
  0x00, 0x00, 0x00, 0x00, 0x00, 0x00, 0x00, 0x80, 0x65, 0xFA, 0x00, 0x00, 
  0x00, 0x00, 0x00, 0x00, 0x00, 0x00, 0x00, 0x00, 0x00, 0x00, 0x00, 0x00, 
  0x00, 0x60, 0xAA, 0xE5, 0x03, 0x00, 0x00, 0x00, 0x00, 0x00, 0x00, 0x00, 
  0x00, 0x00, 0x00, 0x00, 0x00, 0xE1, 0x7F, 0x00, 0x00, 0x00, 0x00, 0x00, 
  0x00, 0x00, 0x00, 0x00, 0x00, 0x00, 0x00, 0x00, 0x00, 0x00, 0xE0, 0x23, 
  0x24, 0x0F, 0x00, 0x00, 0x00, 0x00, 0x00, 0x00, 0x00, 0x00, 0x00, 0x00, 
  0x00, 0x00, 0xFA, 0x37, 0x00, 0x00, 0x00, 0x00, 0x00, 0x00, 0x00, 0x00, 
  0x00, 0x00, 0x00, 0x00, 0x00, 0x00, 0x00, 0x10, 0xA8, 0x95, 0x38, 0x00, 
  0x00, 0x00, 0x00, 0x00, 0x00, 0x00, 0x00, 0x00, 0x00, 0x00, 0x00, 0xDC, 
  0x1E, 0x00, 0x00, 0x00, 0x00, 0x00, 0x00, 0x00, 0x00, 0x00, 0x00, 0x00, 
  0x00, 0x00, 0x00, 0x00, 0x30, 0x16, 0x98, 0xD9, 0x00, 0x00, 0x00, 0x00, 
  0x00, 0x00, 0x00, 0x00, 0x00, 0x00, 0x00, 0x00, 0x78, 0x0F, 0x00, 0x00, 
  0x00, 0x00, 0x00, 0x00, 0x00, 0x00, 0x00, 0x00, 0x00, 0x00, 0x00, 0x00, 
  0x00, 0xD0, 0xC4, 0x23, 0x42, 0x03, 0x00, 0x00, 0x00, 0x00, 0x00, 0x00, 
  0x00, 0x00, 0x00, 0x00, 0x00, 0xD0, 0x07, 0x00, 0x00, 0x00, 0x00, 0x00, 
  0x00, 0x00, 0x00, 0x00, 0x00, 0x00, 0x00, 0x00, 0x00, 0x00, 0xB8, 0x62, 
  0x46, 0x64, 0x1D, 0x00, 0x00, 0x00, 0x00, 0x00, 0x00, 0x00, 0x00, 0x00, 
  0x00, 0x00, 0xE0, 0x03, 0x00, 0x00, 0x00, 0x00, 0x00, 0x00, 0x00, 0x00, 
  0x00, 0x00, 0x00, 0x00, 0x00, 0x00, 0x00, 0x08, 0x19, 0x98, 0x09, 0x39, 
  0x00, 0x00, 0x00, 0x00, 0x00, 0x00, 0x00, 0x00, 0x00, 0x00, 0x00, 0xC0, 
  0x01, 0x00, 0x00, 0x00, 0x00, 0x00, 0x00, 0x00, 0x00, 0x00, 0x00, 0x00, 
  0x00, 0x00, 0x00, 0x00, 0x64, 0xC9, 0x91, 0x99, 0x44, 0x00, 0x00, 0x00, 
  0x00, 0x00, 0x00, 0x00, 0x00, 0x00, 0x00, 0x00, 0x80, 0x00, 0x00, 0x00, 
  0x00, 0x00, 0x00, 0x00, 0x00, 0x00, 0x00, 0x00, 0x00, 0x00, 0x00, 0x00, 
  0x00, 0x46, 0x24, 0x26, 0x62, 0x62, 0x00, 0x00, 0x00, 0x00, 0x00, 0x00, 
  0x00, 0x00, 0x00, 0x00, 0x00, 0x00, 0x00, 0x00, 0x00, 0x00, 0x00, 0x00, 
  0x00, 0x00, 0x00, 0x00, 0x00, 0x00, 0x00, 0x00, 0x00, 0x00, 0xB3, 0x44, 
  0x26, 0x2C, 0x30, 0x00, 0x00, 0x00, 0x00, 0x00, 0x00, 0x00, 0x00, 0x00, 
  0x00, 0x00, 0x00, 0x00, 0x00, 0x00, 0x00, 0x00, 0x00, 0x00, 0x00, 0x00, 
  0x00, 0x00, 0x00, 0x00, 0x00, 0x00, 0x00, 0x0D, 0x39, 0x91, 0xC1, 0x0E, 
  0x00, 0x00, 0x00, 0x00, 0x00, 0x00, 0x00, 0x00, 0x00, 0x00, 0x00, 0x00, 
  0x00, 0x00, 0x00, 0x00, 0x00, 0x00, 0x00, 0x00, 0x00, 0x00, 0x00, 0x00, 
  0x00, 0x00, 0x00, 0x00, 0x7E, 0x81, 0x98, 0x5A, 0x02, 0x00, 0x00, 0x00, 
  0x00, 0x00, 0x00, 0x00, 0x00, 0x00, 0x00, 0x00, 0x00, 0x00, 0x00, 0x00, 
  0x00, 0x00, 0x00, 0x00, 0x00, 0x00, 0x00, 0x00, 0x00, 0x00, 0x00, 0x00, 
  0x00, 0xC0, 0x6D, 0x46, 0x12, 0x03, 0x00, 0x00, 0x00, 0x00, 0x00, 0x00, 
  0x00, 0x00, 0x00, 0x00, 0x00, 0x00, 0x00, 0x00, 0x00, 0x00, 0x00, 0x00, 
  0x00, 0x00, 0x00, 0x00, 0x00, 0x00, 0x00, 0x00, 0x00, 0x00, 0x00, 0x1E, 
  0x23, 0xB1, 0x06, 0x00, 0x00, 0x00, 0x00, 0x00, 0x00, 0x00, 0x00, 0x00, 
  0x00, 0x00, 0x00, 0x00, 0x00, 0x00, 0x00, 0x00, 0x00, 0x00, 0x00, 0x00, 
  0x00, 0x00, 0x00, 0x00, 0x00, 0x00, 0x00, 0x00, 0xF0, 0x68, 0x05, 0x7A, 
  0x00, 0x00, 0x00, 0x00, 0x00, 0x00, 0x00, 0x00, 0x00, 0x00, 0x00, 0x00, 
  0x00, 0x00, 0x00, 0x00, 0x00, 0x00, 0x00, 0x00, 0x00, 0x00, 0x00, 0x00, 
  0x00, 0x00, 0x00, 0x00, 0x00, 0x80, 0x17, 0x6C, 0xB0, 0x03, 0x00, 0x00, 
  0x00, 0x00, 0x00, 0x00, 0x00, 0x00, 0x00, 0x00, 0x00, 0x00, 0x00, 0x00, 
  0x00, 0x00, 0x00, 0x00, 0x00, 0x00, 0x00, 0x00, 0x00, 0x00, 0x00, 0x00, 
  0x00, 0x00, 0x00, 0xC6, 0x81, 0x4D, 0x05, 0x00, 0x00, 0x00, 0x00, 0x00, 
  0x00, 0x00, 0x00, 0x00, 0x00, 0x00, 0x00, 0x00, 0x00, 0x00, 0x00, 0x00, 
  0x00, 0x00, 0x00, 0x00, 0x00, 0x00, 0x00, 0x00, 0x00, 0x00, 0x00, 0x00, 
  0x68, 0x99, 0x62, 0x08, 0x00, 0x00, 0x00, 0x00, 0x00, 0x00, 0x00, 0x00, 
  0x00, 0x00, 0x00, 0x00, 0x00, 0x00, 0x00, 0x00, 0x00, 0x00, 0x00, 0x00, 
  0x00, 0x00, 0x00, 0x00, 0x00, 0x00, 0x00, 0x00, 0x00, 0x10, 0x24, 0x1A, 
  0x0E, 0x00, 0x00, 0x00, 0x00, 0x00, 0x00, 0x00, 0x00, 0x00, 0x00, 0x00, 
  0x00, 0x00, 0x00, 0x00, 0x00, 0x00, 0x00, 0x00, 0x00, 0x00, 0x00, 0x00, 
  0x00, 0x00, 0x00, 0x00, 0x00, 0x00, 0xA0, 0x66, 0x81, 0x05, 0x00, 0x00, 
  0x00, 0x00, 0x00, 0x00, 0x00, 0x00, 0x00, 0x00, 0x00, 0x00, 0x00, 0x00, 
  0x00, 0x00, 0x00, 0x00, 0x00, 0x00, 0x00, 0x00, 0x00, 0x00, 0x00, 0x00, 
  0x00, 0x00, 0x00, 0xC0, 0x91, 0x6C, 0x04, 0x00, 0x00, 0x00, 0x00, 0x00, 
  0x00, 0x00, 0x00, 0x00, 0x00, 0x00, 0x00, 0x00, 0x00, 0x00, 0x00, 0x00, 
  0x00, 0x00, 0x00, 0x00, 0x00, 0x00, 0x00, 0x00, 0x00, 0x00, 0x00, 0x00, 
  0x00, 0x35, 0x22, 0x02, 0x00, 0x00, 0x00, 0x00, 0x00, 0x00, 0x00, 0x00, 
  0x00, 0x00, 0x00, 0x00, 0x00, 0x00, 0x00, 0x00, 0x00, 0x00, 0x00, 0x00, 
  0x00, 0x00, 0x00, 0x00, 0x00, 0x00, 0x00, 0x00, 0x00, 0x00, 0x82, 0x06, 
  0x02, 0x00, 0x00, 0x00, 0x00, 0x00, 0x00, 0x00, 0x00, 0x00, 0x00, 0x00, 
  0x00, 0x00, 0x00, 0x00, 0x00, 0x00, 0x00, 0x00, 0x00, 0x00, 0x00, 0x00, 
  0x00, 0x00, 0x00, 0x00, 0x00, 0x00, 0x00, 0x54, 0x01, 0x01, 0x00, 0x00, 
  0x00, 0x00, 0x00, 0x00, 0x00, 0x00, 0x00, 0x00, 0x00, 0x00, 0x00, 0x00, 
  0x00, 0x00, 0x00, 0x00, 0x00, 0x00, 0x00, 0x00, 0x00, 0x00, 0x00, 0x00, 
  0x00, 0x00, 0x00, 0x00, 0x18, 0x1C, 0x01, 0x00, 0x00, 0x00, 0x00, 0x00, 
  0x00, 0x00, 0x00, 0x00, 0x00, 0x00, 0x00, 0x00, 0x00, 0x00, 0x00, 0x00, 
  0x00, 0x00, 0x00, 0x00, 0x00, 0x00, 0x00, 0x00, 0x00, 0x00, 0x00, 0x00, 
  0x00, 0x60, 0x80, 0x00, 0x00, 0x00, 0x00, 0x00, 0x00, 0x00, 0x00, 0x00, 
  0x00, 0x00, 0x00, 0x00, 0x00, 0x00, 0x00, 0x00, 0x00, 0x00, 0x00, 0x00, 
  0x00, 0x00, 0x00, 0x00, 0x00, 0x00, 0x00, 0x00, 0x00, 0x00, 0x80, 0x7F, 
  0x00, 0x00, 0x00, 0x00, 0x00, 0x00, 0x00, 0x00, 0x00, 0x00, 0x00, 0x00, 
  0x00, 0x00, 0x00, 0x00, 0x00, 0x00, 0x00, 0x00, 0x00, 0x00, 0x00, 0x00, 
  0x00, 0x00, 0x00, 0x00, 0x00, 0x00, 0x00, 0x00, 0x00, 0x00, 0x00, 0x00, 
  0x00, 0x00, 0x00, 0x00, 0x00, 0x00, 0x00, 0x00, 0x00, 0x00, 0x00, 0x00, 
  0x00, 0x00, 0x00, 0x00, 0x00, 0x00, 0x00, 0x00, 0x00, 0x00, 0x00, 0x00, 
  0x00, 0x00, 0x00, 0x00, 0x00, 0x00, 0x00, 0x00, 0x00, 0x00, 0x00, 0x00, 
  0x00, 0x00, 0x00, 0x00, 0x00, 0x00, 0x00, 0x00, 0x00, 0x00, 0x00, 0x00, 
  0x00, 0x00, 0x00, 0x00, 0x00, 0x00, 0x00, 0x00, 0x00, 0x00, 0x00, 0x00, 
  0x00, 0x00, 0x00, 0x00, 0x00, 0x00, 0x00, 0x00, 0x00, 0x00, 0x00, 0x00, 
  0x00, 0x00, 0x00, 0x00, 0x00, 0x00, 0x00, 0x00, 0x00, 0x00, 0x00, 0x00, 
  0x00, 0x00, 0x00, 0x00, 0x00, 0x00, 0x00, 0x00, 0x00, 0x00, 0x00, 0x00, 
  0x00, 0x00, 0x00, 0x00, 0x00, 0x00, 0x00, 0x00, 0x00, 0x00, 0x00, 0x00, 
  0x00, 0x00, 0x00, 0x00, 0x00, 0x00, 0x00, 0x00, 0x00, 0x00, 0x00, 0x00, 
  0x00, 0x00, 0x00, 0x00, 0x00, 0x00, 0x00, 0x00, 0x00, 0x00, 0x00, 0x00, 
  0x00, 0x00, 0x00, 0x00, 0x00, 0x00, 0x00, 0x00, 0x00, 0x00, 0x00, 0x00, 
  0x00, 0x00, 0x00, 0x00, 0x00, 0x00, 0x00, 0x00, 0x00, 0x00, 0x00, 0x00, 
  0x00, 0x00, 0x00, 0x00, 0x00, 0x00, 0x00, 0x00, 0x00, 0x00, 0x00, 0x00, 
  0x00, 0x00, 0x00, 0x00, 0x00, 0x00, 0x00, 0x00, 0x00, 0x00, 0x00, 0x00, 
  0x00, 0x00, 0x00, 0x00, 0x00, 0x00, 0x00, 0x00, 0x00, 0x00, 0x00, 0x00, 
  0x00, 0x00, 0x00, 0x00, 0x00, 0x00, 0x00, 0x00, 0x00, 0x00, 0x00, 0x00, 
  0x00, 0x00, 0x00, 0x00, 0x00, 0x00, 0x00, 0x00, 0x00, 0x00, 0x00, 0x00, 
  0x00, 0x00, 0x00, 0x00, 0x00, 0x00, 0x00, 0x00, 0x00, 0x00, 0x00, 0x00, 
  0x00, 0x00, 0x00, 0x00, 0x00, 0x00, 0x00, 0x00, 0x00, 0x00, 0x00, 0x00, 
  0x00, 0x00, 0x00, 0x00, 0x00, 0x00, 0x00, 0x00, 0x00, 0x00, 0x00, 0x00, 
  0x00, 0x00, 0x00, 0x00, 0x00, 0x00, 0x00, 0x00, 0x00, 0x00, 0x00, 0x00, 
  0x00, 0x00, 0x00, 0x00, 0x00, 0x00, 0x00, 0x00, 0x00, 0x00, 0x00, 0x00, 
  0x00, 0x00, 0x00, 0x00, 0x00, 0x00, 0x00, 0x00, 0x00, 0x00, 0x00, 0x00, 
  0x00, 0x00, 0x00, 0x00, 0x00, 0x00, 0x00, 0x00, 0x00, 0x00, 0x00, 0x00, 
  0x00, 0x00, 0x00, 0x00, 0x00, 0x00, 0x00, 0x00, 0x00, 0x00, 0x00, 0x00, 
  0x00, 0x00, 0x00, 0x00, 0x00, 0x00, 0x00, 0x00, 0x00, 0x00, 0x00, 0x00, 
  0x00, 0x00, 0x00, 0x00, 0x00, 0x00, 0x00, 0x00, 0x00, 0x00, 0x00, 0x00, 
  0x00, 0x00, 0x00, 0x00, 0x00, 0x00, 0x00, 0x00, 0x00, 0x00, 0x00, 0x00, 
  0x00, 0x00, 0x00, 0x00, 0x00, 0x00, 0x00, 0x00, 0x00, 0x00, 0x00, 0x00, 
  0x00, 0x00, 0x00, 0x00, 0x00, 0x00, 0x00, 0x00, 0x00, 0x00, 0x00, 0x00, 
  0x00, 0x00, 0x00, 0x00, 0x00, 0x00, 0x00, 0x00, 0x00, 0x00, 0x00, 0x00, 
  0x00, 0x00, 0x00, 0x00, 0x00, 0x00, 0x00, 0x00, 0x00, 0x00, 0x00, 0x00, 
  0x00, 0x00, 0x00, 0x00, 0x00, 0x00, 0x00, 0x00, 0x00, 0x00, 0x00, 0x00, 
  0x00, 0x00, 0x00, 0x00, 0x00, 0x00, 0x00, 0x00, 0x00, 0x00, 0x00, 0x00, 
  0x00, 0x00, 0x00, 0x00, 0x00, 0x00, 0x00, 0x00, 0x00, 0x00, 0x00, 0x00, 
  0x00, 0x00, 0x00, 0x00, 0x00, 0x00, 0x00, 0x00, 0x00, 0x00, 0x00, 0x00, 
  0x00, 0x00, 0x00, 0x00, 0x00, 0x00, 0x00, 0x00, 0x00, 0x00, 0x00, 0x00, 
  0x00, 0x00, 0x00, 0x00, 0x00, 0x00, 0x00, 0x00, 0x00, 0x00, 0x00, 0x00, 
  0x00, 0x00, 0x00, 0x00, 0x00, 0x00, 0x00, 0x00, 0x00, 0x00, 0x00, 0x00, 
  0x00, 0x00, 0x00, 0x00, 0x00, 0x00, 0x00, 0x00, 0x00, 0x00, 0x00, 0x00, 
  0x00, 0x00, 0x00, 0x00, 0x00, 0x00, 0x00, 0x00, 0x00, 0x00, 0x00, 0x00, 
  0x00, 0x00, 0x00, 0x00, 0x00, 0x00, 0x00, 0x00, 0x00, 0x00, 0x00, 0x00, 
  0x00, 0x00, 0x00, 0x00, 0x00, 0x00, 0x00, 0x00, 0x00, 0x00, 0x00, 0x00, 
  0x00, 0x00, 0x00, 0x00, 0x00, 0x00, 0x00, 0x00, 0x00, 0x00, 0x00, 0x00, 
  0x00, 0x00, 0x00, 0x00, 0x00, 0x00, 0x00, 0x00, 0x00, 0x00, 0x00, 0x00, 
  0x00, 0x00, 0x00, 0x00, 0x00, 0x00, 0x00, 0x00, 0x00, 0x00, 0x00, 0x00, 
  0x00, 0x00, 0x00, 0x00, 0x00, 0x00, 0x00, 0x00, 0x00, 0x00, 0x00, 0x00, 
  };
