G75*
%MOIN*%
%OFA0B0*%
%FSLAX24Y24*%
%IPPOS*%
%LPD*%
%AMOC8*
5,1,8,0,0,1.08239X$1,22.5*
%
%ADD10OC8,0.0630*%
%ADD11R,0.1024X0.1102*%
%ADD12R,0.1102X0.1102*%
%ADD13R,0.0650X0.0937*%
%ADD14R,0.0276X0.0098*%
%ADD15R,0.0710X0.0630*%
%ADD16C,0.0520*%
%ADD17R,0.0551X0.0709*%
%ADD18R,0.0512X0.0630*%
%ADD19R,0.0630X0.0512*%
%ADD20C,0.1000*%
%ADD21C,0.0100*%
%ADD22C,0.0120*%
%ADD23C,0.0560*%
%ADD24C,0.0500*%
%ADD25C,0.0660*%
%ADD26C,0.0400*%
%ADD27R,0.0396X0.0396*%
%ADD28C,0.0400*%
D10*
X007100Y008600D03*
X009100Y008600D03*
X015600Y016600D03*
X015600Y018600D03*
X001600Y016100D03*
X001600Y014100D03*
D11*
X014100Y006647D03*
D12*
X012683Y012002D03*
X015517Y012002D03*
D13*
X006600Y017100D03*
D14*
X006049Y017011D03*
X006049Y016834D03*
X006049Y016657D03*
X006049Y017189D03*
X006049Y017366D03*
X006049Y017543D03*
X007151Y017543D03*
X007151Y017366D03*
X007151Y017189D03*
X007151Y017011D03*
X007151Y016834D03*
X007151Y016657D03*
D15*
X009100Y013160D03*
X009100Y012040D03*
D16*
X012600Y015340D02*
X012600Y015860D01*
X012600Y019340D02*
X012600Y019860D01*
X005860Y020100D02*
X005340Y020100D01*
X004600Y016860D02*
X004600Y016340D01*
X004600Y012860D02*
X004600Y012340D01*
X001860Y020100D02*
X001340Y020100D01*
D17*
X015931Y014600D03*
X017269Y014600D03*
D18*
X009974Y015100D03*
X009226Y015100D03*
D19*
X007100Y012974D03*
X007100Y012226D03*
D20*
X003600Y002170D02*
X002600Y002170D01*
X007670Y002600D02*
X007670Y003600D01*
X003600Y011030D02*
X002600Y011030D01*
X016530Y003600D02*
X016530Y002600D01*
D21*
X015517Y012002D02*
X015520Y012010D01*
X015930Y014600D02*
X015931Y014600D01*
X017260Y014600D02*
X017269Y014600D01*
X015600Y016600D02*
X015560Y016630D01*
X015140Y017550D02*
X007200Y017550D01*
X007151Y017543D01*
X007150Y017550D01*
X007100Y020100D01*
X006040Y017550D02*
X005550Y017550D01*
X005350Y017350D01*
X004600Y016600D01*
X006010Y016620D02*
X004840Y014950D01*
X006010Y016620D02*
X006049Y016657D01*
X006050Y016650D01*
X006240Y016650D01*
X006600Y017010D01*
X006600Y017100D01*
X007151Y016657D02*
X007160Y016650D01*
X008710Y015100D01*
X008680Y015060D01*
X008670Y015550D02*
X009540Y015550D01*
X009950Y015140D01*
X009974Y015100D01*
X009970Y014970D01*
X009980Y015020D02*
X009974Y015100D01*
X010010Y015060D01*
X010110Y015060D01*
X009980Y015100D02*
X009974Y015100D01*
X009300Y015880D02*
X008130Y017050D01*
X008100Y017100D01*
X007650Y016570D02*
X007600Y016600D01*
X007650Y016570D02*
X008670Y015550D01*
X009100Y016720D02*
X014220Y016720D01*
X012640Y015570D02*
X012600Y015600D01*
X009640Y013690D02*
X009630Y013690D01*
X009100Y013160D02*
X009100Y013160D01*
X009120Y012090D02*
X009100Y012040D01*
X007100Y012226D02*
X007060Y012250D01*
X007100Y012974D02*
X007100Y012980D01*
X003100Y011100D02*
X003100Y011030D01*
X001750Y015950D02*
X001600Y016100D01*
X006040Y017550D02*
X006049Y017543D01*
X012680Y012010D02*
X012683Y012002D01*
X007670Y003100D02*
X007600Y003100D01*
D22*
X007600Y016600D02*
X007600Y017011D01*
X007151Y017011D01*
X007151Y017189D02*
X008100Y017189D01*
X008100Y017100D01*
X008600Y017366D02*
X009100Y016720D01*
X009100Y016600D01*
X008600Y017366D02*
X007151Y017366D01*
X006049Y017189D02*
X005350Y017189D01*
X005350Y017350D01*
D23*
X007100Y012226D02*
X007100Y008600D01*
X011930Y012760D02*
X012680Y012010D01*
D24*
X010970Y012440D02*
X009970Y014970D01*
X009980Y015100D02*
X010480Y015600D01*
X012600Y015600D01*
X012640Y015570D02*
X014960Y015570D01*
X015930Y014600D01*
X016340Y012830D02*
X015520Y012010D01*
X015600Y016600D02*
X016340Y016600D01*
X015560Y016630D02*
X015140Y017550D01*
X010970Y012440D02*
X009120Y012090D01*
X009100Y013160D02*
X009630Y013690D01*
X008680Y014560D02*
X008680Y015060D01*
X008710Y015100D02*
X009226Y015100D01*
X008680Y014560D02*
X007100Y012980D01*
X007060Y012250D02*
X005870Y011940D01*
X005870Y012410D01*
X004840Y014950D01*
X001750Y015950D01*
X004600Y012600D02*
X003100Y011100D01*
X005600Y020100D02*
X007100Y020100D01*
D25*
X009100Y012040D02*
X009100Y008600D01*
X007600Y003100D01*
D26*
X011930Y012760D03*
X009640Y013690D03*
X009300Y015880D03*
X014220Y016720D03*
D27*
X016340Y016600D03*
X016340Y012830D03*
D28*
X017260Y014600D02*
X017520Y018340D01*
X016520Y018600D01*
X015600Y018600D01*
M02*
