G75*
%MOIN*%
%OFA0B0*%
%FSLAX24Y24*%
%IPPOS*%
%LPD*%
%AMOC8*
5,1,8,0,0,1.08239X$1,22.5*
%
%ADD10C,0.0000*%
%ADD11C,0.0060*%
%ADD12C,0.0120*%
%ADD13C,0.0050*%
%ADD14C,0.0040*%
%ADD15R,0.0200X0.0800*%
%ADD16R,0.0750X0.0200*%
%ADD17C,0.0080*%
%ADD18R,0.0240X0.0620*%
%ADD19R,0.0800X0.0200*%
%ADD20R,0.0200X0.0750*%
%ADD21C,0.0020*%
%ADD22C,0.0070*%
%ADD23R,0.0250X0.0450*%
%ADD24R,0.0250X0.1600*%
%ADD25R,0.4000X0.0200*%
%ADD26R,0.1550X0.0050*%
%ADD27R,0.1900X0.0200*%
%ADD28R,0.0450X0.0250*%
%ADD29R,0.1600X0.0250*%
%ADD30R,0.0200X0.4000*%
%ADD31R,0.0050X0.1550*%
%ADD32R,0.0200X0.1900*%
D10*
X000100Y000100D02*
X000100Y021470D01*
X018592Y021470D01*
X018592Y000100D01*
X000100Y000100D01*
D11*
X001550Y001650D02*
X002450Y001650D01*
X002100Y002350D02*
X002100Y004350D01*
X001650Y004350D01*
X001650Y002350D01*
X002100Y002350D01*
X001550Y001650D02*
X001550Y011550D01*
X002450Y011550D01*
X002300Y011100D02*
X001650Y011100D01*
X001650Y010850D01*
X001650Y008850D01*
X002100Y008850D01*
X002100Y010850D01*
X001850Y010850D01*
X001850Y011000D01*
X002300Y011000D01*
X001850Y010850D02*
X001650Y010850D01*
X003750Y011550D02*
X004650Y011550D01*
X004650Y001650D01*
X003750Y001650D01*
X003900Y002100D02*
X004550Y002100D01*
X004550Y002350D01*
X004550Y004350D01*
X004100Y004350D01*
X004100Y002350D01*
X004350Y002350D01*
X004350Y002200D01*
X003900Y002200D01*
X004350Y002350D02*
X004550Y002350D01*
X007150Y002450D02*
X007150Y001550D01*
X017050Y001550D01*
X017050Y002450D01*
X016350Y002100D02*
X016350Y001650D01*
X014350Y001650D01*
X014350Y002100D01*
X016350Y002100D01*
X017050Y003750D02*
X017050Y004650D01*
X007150Y004650D01*
X007150Y003750D01*
X007850Y004100D02*
X009850Y004100D01*
X009850Y004550D01*
X007850Y004550D01*
X007850Y004100D01*
X007700Y002300D02*
X007700Y001850D01*
X007850Y001850D01*
X007850Y002100D01*
X009850Y002100D01*
X009850Y001650D01*
X007850Y001650D01*
X007600Y001650D01*
X007600Y002300D01*
X007850Y001850D02*
X007850Y001650D01*
X006750Y007900D02*
X009450Y007900D01*
X009467Y007902D01*
X009484Y007906D01*
X009500Y007913D01*
X009514Y007923D01*
X009527Y007936D01*
X009537Y007950D01*
X009544Y007966D01*
X009548Y007983D01*
X009550Y008000D01*
X009550Y009200D01*
X009548Y009217D01*
X009544Y009234D01*
X009537Y009250D01*
X009527Y009264D01*
X009514Y009277D01*
X009500Y009287D01*
X009484Y009294D01*
X009467Y009298D01*
X009450Y009300D01*
X006750Y009300D01*
X006733Y009298D01*
X006716Y009294D01*
X006700Y009287D01*
X006686Y009277D01*
X006673Y009264D01*
X006663Y009250D01*
X006656Y009234D01*
X006652Y009217D01*
X006650Y009200D01*
X006650Y008000D01*
X006652Y007983D01*
X006656Y007966D01*
X006663Y007950D01*
X006673Y007936D01*
X006686Y007923D01*
X006700Y007913D01*
X006716Y007906D01*
X006733Y007902D01*
X006750Y007900D01*
X007500Y008600D02*
X007980Y008600D01*
X008230Y008600D02*
X008700Y008600D01*
X004550Y008850D02*
X004100Y008850D01*
X004100Y010850D01*
X004550Y010850D01*
X004550Y008850D01*
X004300Y013700D02*
X004900Y013700D01*
X004917Y013702D01*
X004934Y013706D01*
X004950Y013713D01*
X004964Y013723D01*
X004977Y013736D01*
X004987Y013750D01*
X004994Y013766D01*
X004998Y013783D01*
X005000Y013800D01*
X005000Y015400D01*
X004998Y015417D01*
X004994Y015434D01*
X004987Y015450D01*
X004977Y015464D01*
X004964Y015477D01*
X004950Y015487D01*
X004934Y015494D01*
X004917Y015498D01*
X004900Y015500D01*
X004300Y015500D01*
X004283Y015498D01*
X004266Y015494D01*
X004250Y015487D01*
X004236Y015477D01*
X004223Y015464D01*
X004213Y015450D01*
X004206Y015434D01*
X004202Y015417D01*
X004200Y015400D01*
X004200Y013800D01*
X004202Y013783D01*
X004206Y013766D01*
X004213Y013750D01*
X004223Y013736D01*
X004236Y013723D01*
X004250Y013713D01*
X004266Y013706D01*
X004283Y013702D01*
X004300Y013700D01*
X004600Y014000D02*
X004600Y014600D01*
X004350Y014600D01*
X004600Y014600D02*
X004600Y014850D01*
X004600Y014600D02*
X004850Y014600D01*
X004600Y014600D02*
X004850Y014200D01*
X004350Y014200D01*
X004600Y014600D01*
X002300Y013750D02*
X002300Y016450D01*
X002298Y016467D01*
X002294Y016484D01*
X002287Y016500D01*
X002277Y016514D01*
X002264Y016527D01*
X002250Y016537D01*
X002234Y016544D01*
X002217Y016548D01*
X002200Y016550D01*
X001000Y016550D01*
X000983Y016548D01*
X000966Y016544D01*
X000950Y016537D01*
X000936Y016527D01*
X000923Y016514D01*
X000913Y016500D01*
X000906Y016484D01*
X000902Y016467D01*
X000900Y016450D01*
X000900Y013750D01*
X000902Y013733D01*
X000906Y013716D01*
X000913Y013700D01*
X000923Y013686D01*
X000936Y013673D01*
X000950Y013663D01*
X000966Y013656D01*
X000983Y013652D01*
X001000Y013650D01*
X002200Y013650D01*
X002217Y013652D01*
X002234Y013656D01*
X002250Y013663D01*
X002264Y013673D01*
X002277Y013686D01*
X002287Y013700D01*
X002294Y013716D01*
X002298Y013733D01*
X002300Y013750D01*
X001600Y014500D02*
X001600Y014980D01*
X001600Y015230D02*
X001600Y015700D01*
X002237Y017630D02*
X002450Y017630D01*
X002557Y017737D01*
X002557Y017950D01*
X002344Y017950D01*
X002557Y018164D02*
X002450Y018271D01*
X002237Y018271D01*
X002130Y018164D01*
X002130Y017737D01*
X002237Y017630D01*
X002775Y017630D02*
X002775Y018271D01*
X003202Y017630D01*
X003202Y018271D01*
X003419Y018271D02*
X003739Y018271D01*
X003846Y018164D01*
X003846Y017737D01*
X003739Y017630D01*
X003419Y017630D01*
X003419Y018271D01*
X002800Y019700D02*
X004400Y019700D01*
X004417Y019702D01*
X004434Y019706D01*
X004450Y019713D01*
X004464Y019723D01*
X004477Y019736D01*
X004487Y019750D01*
X004494Y019766D01*
X004498Y019783D01*
X004500Y019800D01*
X004500Y020400D01*
X004498Y020417D01*
X004494Y020434D01*
X004487Y020450D01*
X004477Y020464D01*
X004464Y020477D01*
X004450Y020487D01*
X004434Y020494D01*
X004417Y020498D01*
X004400Y020500D01*
X002800Y020500D01*
X002783Y020498D01*
X002766Y020494D01*
X002750Y020487D01*
X002736Y020477D01*
X002723Y020464D01*
X002713Y020450D01*
X002706Y020434D01*
X002702Y020417D01*
X002700Y020400D01*
X002700Y019800D01*
X002702Y019783D01*
X002706Y019766D01*
X002713Y019750D01*
X002723Y019736D01*
X002736Y019723D01*
X002750Y019713D01*
X002766Y019706D01*
X002783Y019702D01*
X002800Y019700D01*
X003000Y020100D02*
X003600Y020100D01*
X003600Y020350D01*
X003600Y020100D02*
X003600Y019850D01*
X003600Y020100D02*
X003200Y019850D01*
X003200Y020350D01*
X003600Y020100D01*
X003850Y020100D01*
X011630Y020844D02*
X011844Y020630D01*
X012057Y020844D01*
X012057Y021271D01*
X012275Y020950D02*
X012275Y020737D01*
X012381Y020630D01*
X012595Y020630D01*
X012702Y020737D01*
X012702Y020950D01*
X012595Y021057D01*
X012381Y021057D01*
X012275Y020950D01*
X011630Y020844D02*
X011630Y021271D01*
X012919Y021057D02*
X012919Y020737D01*
X013026Y020630D01*
X013346Y020630D01*
X013346Y021057D01*
X013564Y021057D02*
X013777Y021057D01*
X013670Y021164D02*
X013670Y020737D01*
X013777Y020630D01*
X015000Y019050D02*
X016200Y019050D01*
X016217Y019048D01*
X016234Y019044D01*
X016250Y019037D01*
X016264Y019027D01*
X016277Y019014D01*
X016287Y019000D01*
X016294Y018984D01*
X016298Y018967D01*
X016300Y018950D01*
X016300Y016250D01*
X016298Y016233D01*
X016294Y016216D01*
X016287Y016200D01*
X016277Y016186D01*
X016264Y016173D01*
X016250Y016163D01*
X016234Y016156D01*
X016217Y016152D01*
X016200Y016150D01*
X015000Y016150D01*
X014983Y016152D01*
X014966Y016156D01*
X014950Y016163D01*
X014936Y016173D01*
X014923Y016186D01*
X014913Y016200D01*
X014906Y016216D01*
X014902Y016233D01*
X014900Y016250D01*
X014900Y018950D01*
X014902Y018967D01*
X014906Y018984D01*
X014913Y019000D01*
X014923Y019014D01*
X014936Y019027D01*
X014950Y019037D01*
X014966Y019044D01*
X014983Y019048D01*
X015000Y019050D01*
X015600Y018200D02*
X015600Y017730D01*
X015600Y017480D02*
X015600Y017000D01*
X013000Y016800D02*
X013000Y018400D01*
X012998Y018417D01*
X012994Y018434D01*
X012987Y018450D01*
X012977Y018464D01*
X012964Y018477D01*
X012950Y018487D01*
X012934Y018494D01*
X012917Y018498D01*
X012900Y018500D01*
X012300Y018500D01*
X012283Y018498D01*
X012266Y018494D01*
X012250Y018487D01*
X012236Y018477D01*
X012223Y018464D01*
X012213Y018450D01*
X012206Y018434D01*
X012202Y018417D01*
X012200Y018400D01*
X012200Y016800D01*
X012202Y016783D01*
X012206Y016766D01*
X012213Y016750D01*
X012223Y016736D01*
X012236Y016723D01*
X012250Y016713D01*
X012266Y016706D01*
X012283Y016702D01*
X012300Y016700D01*
X012900Y016700D01*
X012917Y016702D01*
X012934Y016706D01*
X012950Y016713D01*
X012964Y016723D01*
X012977Y016736D01*
X012987Y016750D01*
X012994Y016766D01*
X012998Y016783D01*
X013000Y016800D01*
X012850Y017200D02*
X012600Y017600D01*
X012350Y017600D01*
X012600Y017600D02*
X012600Y017850D01*
X012600Y017600D02*
X012850Y017600D01*
X012600Y017600D02*
X012600Y017000D01*
X012350Y017200D02*
X012600Y017600D01*
X012850Y017200D02*
X012350Y017200D01*
X014350Y004550D02*
X014350Y004100D01*
X016350Y004100D01*
X016350Y004350D01*
X016500Y004350D01*
X016500Y003900D01*
X016600Y003900D02*
X016600Y004550D01*
X016350Y004550D01*
X014350Y004550D01*
X016350Y004550D02*
X016350Y004350D01*
D12*
X008230Y008350D02*
X008230Y008600D01*
X008230Y008850D01*
X007980Y008850D02*
X007980Y008600D01*
X007980Y008350D01*
X001850Y014980D02*
X001600Y014980D01*
X001350Y014980D01*
X001350Y015230D02*
X001600Y015230D01*
X001850Y015230D01*
X015350Y017480D02*
X015600Y017480D01*
X015850Y017480D01*
X015850Y017730D02*
X015600Y017730D01*
X015350Y017730D01*
D13*
X014775Y017311D02*
X014775Y017160D01*
X014700Y017085D01*
X014700Y016925D02*
X014775Y016850D01*
X014775Y016700D01*
X014700Y016625D01*
X014400Y016625D01*
X014325Y016700D01*
X014325Y016850D01*
X014400Y016925D01*
X014400Y017085D02*
X014325Y017160D01*
X014325Y017311D01*
X014400Y017386D01*
X014475Y017386D01*
X014550Y017311D01*
X014625Y017386D01*
X014700Y017386D01*
X014775Y017311D01*
X014550Y017311D02*
X014550Y017236D01*
X013575Y017554D02*
X013575Y017779D01*
X013500Y017854D01*
X013200Y017854D01*
X013125Y017779D01*
X013125Y017554D01*
X013575Y017554D01*
X013350Y018015D02*
X013350Y018315D01*
X013575Y018240D02*
X013125Y018240D01*
X013350Y018015D01*
X011344Y012966D02*
X011344Y009600D01*
X011344Y009403D01*
X011344Y005643D01*
X016876Y005643D01*
X016876Y012966D01*
X011344Y012966D01*
X007886Y009800D02*
X007886Y009725D01*
X007585Y009425D01*
X007886Y009425D01*
X007886Y009800D02*
X007811Y009875D01*
X007660Y009875D01*
X007585Y009800D01*
X007425Y009800D02*
X007350Y009875D01*
X007200Y009875D01*
X007125Y009800D01*
X007125Y009500D01*
X007200Y009425D01*
X007350Y009425D01*
X007425Y009500D01*
X005575Y014554D02*
X005125Y014554D01*
X005125Y014779D01*
X005200Y014854D01*
X005500Y014854D01*
X005575Y014779D01*
X005575Y014554D01*
X005500Y015015D02*
X005575Y015090D01*
X005575Y015240D01*
X005500Y015315D01*
X005425Y015315D01*
X005350Y015240D01*
X005350Y015165D01*
X005350Y015240D02*
X005275Y015315D01*
X005200Y015315D01*
X005125Y015240D01*
X005125Y015090D01*
X005200Y015015D01*
X005813Y016313D02*
X007387Y016313D01*
X007387Y017887D01*
X005813Y017887D01*
X005813Y016313D01*
X004315Y019125D02*
X004015Y019125D01*
X004315Y019425D01*
X004315Y019500D01*
X004240Y019575D01*
X004090Y019575D01*
X004015Y019500D01*
X003854Y019500D02*
X003779Y019575D01*
X003554Y019575D01*
X003554Y019125D01*
X003779Y019125D01*
X003854Y019200D01*
X003854Y019500D01*
X000775Y014886D02*
X000775Y014585D01*
X000775Y014736D02*
X000325Y014736D01*
X000475Y014585D01*
X000400Y014425D02*
X000325Y014350D01*
X000325Y014200D01*
X000400Y014125D01*
X000700Y014125D01*
X000775Y014200D01*
X000775Y014350D01*
X000700Y014425D01*
D14*
X006120Y012811D02*
X006120Y012657D01*
X006196Y012580D01*
X006196Y012427D02*
X006120Y012350D01*
X006120Y012120D01*
X006580Y012120D01*
X006427Y012120D02*
X006427Y012350D01*
X006350Y012427D01*
X006196Y012427D01*
X006427Y012273D02*
X006580Y012427D01*
X006503Y012580D02*
X006580Y012657D01*
X006580Y012811D01*
X006503Y012887D01*
X006427Y012887D01*
X006350Y012811D01*
X006350Y012734D01*
X006350Y012811D02*
X006273Y012887D01*
X006196Y012887D01*
X006120Y012811D01*
X007564Y015549D02*
X008025Y015549D01*
X008025Y015856D01*
X008025Y016162D02*
X007564Y016162D01*
X007564Y016009D02*
X007564Y016316D01*
X007641Y016469D02*
X007564Y016546D01*
X007564Y016700D01*
X007641Y016776D01*
X007718Y016776D01*
X007795Y016700D01*
X007871Y016776D01*
X007948Y016776D01*
X008025Y016700D01*
X008025Y016546D01*
X007948Y016469D01*
X007795Y016623D02*
X007795Y016700D01*
X007795Y016930D02*
X007641Y017083D01*
X007564Y017237D01*
X007564Y017390D02*
X007795Y017390D01*
X007718Y017544D01*
X007718Y017620D01*
X007795Y017697D01*
X007948Y017697D01*
X008025Y017620D01*
X008025Y017467D01*
X007948Y017390D01*
X007948Y017237D02*
X007871Y017237D01*
X007795Y017160D01*
X007795Y016930D01*
X007948Y016930D01*
X008025Y017006D01*
X008025Y017160D01*
X007948Y017237D01*
X007564Y017390D02*
X007564Y017697D01*
X007641Y017851D02*
X007564Y017927D01*
X007564Y018081D01*
X007641Y018157D01*
X007718Y018157D01*
X008025Y017851D01*
X008025Y018157D01*
X009120Y016080D02*
X009350Y016080D01*
X009427Y016004D01*
X009427Y015850D01*
X009350Y015773D01*
X009120Y015773D01*
X009120Y015620D02*
X009120Y016080D01*
X009273Y015773D02*
X009427Y015620D01*
X009580Y015620D02*
X009887Y015927D01*
X009887Y016004D01*
X009811Y016080D01*
X009657Y016080D01*
X009580Y016004D01*
X009580Y015620D02*
X009887Y015620D01*
X011817Y013998D02*
X011970Y013998D01*
X011894Y013998D02*
X011894Y013537D01*
X011970Y013537D02*
X011817Y013537D01*
X012124Y013537D02*
X012124Y013998D01*
X012431Y013537D01*
X012431Y013998D01*
X012584Y013998D02*
X012814Y013998D01*
X012891Y013921D01*
X012891Y013614D01*
X012814Y013537D01*
X012584Y013537D01*
X012584Y013998D01*
X010030Y013017D02*
X010030Y012710D01*
X010030Y012863D02*
X009570Y012863D01*
X009723Y012710D01*
X009646Y012556D02*
X009800Y012556D01*
X009877Y012479D01*
X009877Y012249D01*
X010030Y012249D02*
X009570Y012249D01*
X009570Y012479D01*
X009646Y012556D01*
X009877Y012403D02*
X010030Y012556D01*
X016299Y013670D02*
X016529Y013670D01*
X016606Y013747D01*
X016606Y014054D01*
X016529Y014130D01*
X016299Y014130D01*
X016299Y013670D01*
X016760Y013670D02*
X017067Y013670D01*
X016913Y013670D02*
X016913Y014130D01*
X016760Y013977D01*
D15*
X004250Y020100D03*
D16*
X004875Y020100D03*
X002325Y020100D03*
D17*
X016353Y014836D02*
X016353Y014364D01*
X016747Y014600D01*
X016353Y014836D01*
D18*
X016820Y014600D03*
D19*
X012600Y018250D03*
X004600Y015250D03*
D20*
X004600Y015875D03*
X004600Y013325D03*
X012600Y016325D03*
X012600Y018875D03*
D21*
X004250Y008600D02*
X004250Y004600D01*
X003100Y004550D02*
X003100Y008650D01*
X001950Y008600D02*
X001950Y004600D01*
X010050Y003100D02*
X014150Y003100D01*
X014100Y001950D02*
X010100Y001950D01*
X010100Y004250D02*
X014100Y004250D01*
D22*
X015846Y004835D02*
X015846Y005466D01*
X016266Y005466D01*
X016490Y005255D02*
X016701Y005466D01*
X016701Y004835D01*
X016911Y004835D02*
X016490Y004835D01*
X016056Y005150D02*
X015846Y005150D01*
X001365Y010346D02*
X000734Y010346D01*
X000734Y010766D01*
X000840Y010990D02*
X000734Y011096D01*
X000734Y011306D01*
X000840Y011411D01*
X000945Y011411D01*
X001365Y010990D01*
X001365Y011411D01*
X001050Y010556D02*
X001050Y010346D01*
D23*
X009975Y004125D03*
X009975Y002075D03*
X014225Y002075D03*
X014225Y004125D03*
D24*
X014225Y003100D03*
X009975Y003100D03*
D25*
X012100Y002150D03*
X012100Y004050D03*
D26*
X009075Y003875D03*
X009075Y002325D03*
X015125Y002325D03*
X015125Y003875D03*
D27*
X015300Y004000D03*
X015300Y002200D03*
X008900Y002200D03*
X008900Y004000D03*
D28*
X004125Y004475D03*
X002075Y004475D03*
X002075Y008725D03*
X004125Y008725D03*
D29*
X003100Y008725D03*
X003100Y004475D03*
D30*
X002150Y006600D03*
X004050Y006600D03*
D31*
X003875Y003575D03*
X002325Y003575D03*
X002325Y009625D03*
X003875Y009625D03*
D32*
X004000Y009800D03*
X002200Y009800D03*
X002200Y003400D03*
X004000Y003400D03*
M02*
