G75*
%MOIN*%
%OFA0B0*%
%FSLAX24Y24*%
%IPPOS*%
%LPD*%
%AMOC8*
5,1,8,0,0,1.08239X$1,22.5*
%
%ADD10R,0.2500X0.2000*%
%ADD11R,0.1500X0.2500*%
%ADD12R,0.1000X0.2000*%
%ADD13OC8,0.0630*%
%ADD14C,0.0520*%
%ADD15C,0.1000*%
%ADD16C,0.0100*%
%ADD17C,0.0500*%
%ADD18C,0.0700*%
%ADD19C,0.0400*%
%ADD20R,0.0396X0.0396*%
%ADD21C,0.0660*%
%ADD22C,0.0560*%
D10*
X012850Y001600D03*
X010350Y020100D03*
D11*
X005850Y001850D03*
D12*
X001100Y018100D03*
D13*
X001600Y016100D03*
X001600Y014100D03*
X007100Y008600D03*
X009100Y008600D03*
X015600Y016600D03*
X015600Y018600D03*
D14*
X012600Y019340D02*
X012600Y019860D01*
X012600Y015860D02*
X012600Y015340D01*
X005860Y020100D02*
X005340Y020100D01*
X004600Y016860D02*
X004600Y016340D01*
X004600Y012860D02*
X004600Y012340D01*
X001860Y020100D02*
X001340Y020100D01*
D15*
X002600Y002170D02*
X003600Y002170D01*
X007670Y002600D02*
X007670Y003600D01*
X003600Y011030D02*
X002600Y011030D01*
X001600Y014100D02*
X004070Y016570D01*
X004600Y016600D02*
X009600Y016600D01*
X012600Y019600D01*
X015600Y018600D02*
X014220Y016720D01*
X016530Y003600D02*
X016530Y002600D01*
X001600Y016100D02*
X001600Y020100D01*
D16*
X004070Y016570D02*
X004560Y016570D01*
X004600Y016600D01*
X009300Y015880D02*
X009610Y015570D01*
X009610Y013730D02*
X009640Y013690D01*
D17*
X011600Y019600D02*
X012600Y019600D01*
X016340Y016600D02*
X016340Y012830D01*
D18*
X011930Y012760D02*
X010570Y012760D01*
X009640Y013690D01*
X009610Y013730D02*
X009610Y015570D01*
D19*
X009300Y015880D03*
X009640Y013690D03*
X011930Y012760D03*
X014220Y016720D03*
D20*
X016340Y016600D03*
X016340Y012830D03*
D21*
X016600Y003100D02*
X013600Y002100D01*
D22*
X005600Y000600D02*
X003100Y000600D01*
X003100Y002100D01*
M02*
